<?xml version="1.0" encoding="UTF-8" standalone="no"?>
<!-- Uploaded to: SVG Repo, www.svgrepo.com, Generator: SVG Repo Mixer Tools -->

<svg
   fill="#000000"
   width="63.035"
   height="64"
   viewBox="0 0 1.89105 1.92"
   role="img"
   version="1.1"
   id="svg1"
   sodipodi:docname="circleci.svg"
   inkscape:version="1.4 (e7c3feb100, 2024-10-09)"
   xmlns:inkscape="http://www.inkscape.org/namespaces/inkscape"
   xmlns:sodipodi="http://sodipodi.sourceforge.net/DTD/sodipodi-0.dtd"
   xmlns="http://www.w3.org/2000/svg"
   xmlns:svg="http://www.w3.org/2000/svg">
  <defs
     id="defs1" />
  <sodipodi:namedview
     id="namedview1"
     pagecolor="#ffffff"
     bordercolor="#000000"
     borderopacity="0.25"
     inkscape:showpageshadow="2"
     inkscape:pageopacity="0.0"
     inkscape:pagecheckerboard="0"
     inkscape:deskcolor="#d1d1d1"
     inkscape:zoom="1.36125"
     inkscape:cx="399.63269"
     inkscape:cy="400"
     inkscape:window-width="2560"
     inkscape:window-height="1300"
     inkscape:window-x="0"
     inkscape:window-y="0"
     inkscape:window-maximized="1"
     inkscape:current-layer="svg1" />
  <title
     id="title1">CircleCI icon</title>
  <path
     d="m 0.70263892,0.95999852 c 0,-0.1267198 0.10271984,-0.22839964 0.22839965,-0.22839964 0.12575983,0 0.22847973,0.10271984 0.22847973,0.22839964 0,0.12575978 -0.1027199,0.22847968 -0.22847973,0.22847968 -0.12559981,0 -0.22839965,-0.1027199 -0.22839965,-0.22847968 z M 0.93103857,0 C 0.48279926,0 0.10735984,0.30719953 7.9999877e-4,0.72199889 0,0.72487889 0,0.72759888 0,0.73159888 c 0,0.02504 0.02015997,0.0460799 0.04599993,0.0460799 h 0.3867994 c 0.0184,0 0.03464,-0.0104 0.0413599,-0.02664 0.0797599,-0.17279974 0.25439961,-0.29375956 0.45695929,-0.29375956 0.27727958,0 0.50287928,0.22559966 0.50287928,0.50295924 0,0.27759954 -0.2255997,0.50319924 -0.50319927,0.50319924 -0.20239969,0 -0.37711942,-0.1199998 -0.4567993,-0.2938396 -0.00776,-0.0152 -0.0232,-0.02688 -0.0413599,-0.02688 H 0.04599993 C 0.02103996,1.1427183 0,1.1629582 0,1.1887982 c 0,0.00296 0.00112,0.00576 0.00112,0.0096 C 0.10671983,1.6128004 0.48271926,1.92 0.93103857,1.92 1.4609577,1.919997 1.8910371,1.4899977 1.8910371,0.95999852 1.8910371,0.43015934 1.4609577,0 0.93103857,0 Z"
     id="path1"
     style="stroke-width:0.0799998" />
</svg>
