<?xml version="1.0" encoding="UTF-8" standalone="no"?>
<svg
   viewBox="0 0 64 64"
   version="1.1"
   id="svg2"
   sodipodi:docname="github_actions.svg"
   width="64"
   height="64"
   inkscape:version="1.4 (e7c3feb100, 2024-10-09)"
   xmlns:inkscape="http://www.inkscape.org/namespaces/inkscape"
   xmlns:sodipodi="http://sodipodi.sourceforge.net/DTD/sodipodi-0.dtd"
   xmlns="http://www.w3.org/2000/svg"
   xmlns:svg="http://www.w3.org/2000/svg">
  <defs
     id="defs2" />
  <sodipodi:namedview
     id="namedview2"
     pagecolor="#ffffff"
     bordercolor="#000000"
     borderopacity="0.25"
     inkscape:showpageshadow="2"
     inkscape:pageopacity="0.0"
     inkscape:pagecheckerboard="0"
     inkscape:deskcolor="#d1d1d1"
     inkscape:zoom="8.5078125"
     inkscape:cx="63.94123"
     inkscape:cy="64"
     inkscape:window-width="2560"
     inkscape:window-height="1300"
     inkscape:window-x="0"
     inkscape:window-y="0"
     inkscape:window-maximized="1"
     inkscape:current-layer="svg2" />
  <path
     fill="#2088ff"
     d="M 13.333,0 C 5.985,0 0,5.985 0,13.333 0,19.768 4.5905,25.1585 10.667,26.398 v 18.935 c 0,5.885 4.84,10.667 10.666,10.667 h 0.0975 c 0.651,4.5115 4.55,8 9.2365,8 5.139,0 9.333,-4.194 9.333,-9.333 0,-5.139 -4.194,-9.334 -9.333,-9.334 -4.686,0 -8.585,3.4885 -9.2365,8 H 21.333 c -4.3685,0 -8,-3.576 -8,-8 V 31.8895 a 9.257,9.257 0 0 0 6.62,2.7775 h 1.4775 c 0.6515,4.5115 4.55,8 9.2365,8 4.686,0 8.5845,-3.4885 9.235,-8 h 5.5285 c 0.6515,4.5115 4.55,8 9.2365,8 C 59.806,42.667 64,38.472 64,33.333 64,28.194 59.806,24 54.667,24 c -4.6865,0 -8.5855,3.4885 -9.2365,8 h -5.528 c -0.6505,-4.5115 -4.549,-8 -9.2355,-8 -4.6865,0 -8.5855,3.4885 -9.2365,8 H 19.953 C 16.7365,32 14.0565,29.7055 13.459,26.664 20.749,26.596 26.667,20.639 26.667,13.333 26.667,5.985 20.681,0 13.333,0 Z m 0,2.667 A 10.646,10.646 0 0 1 24,13.333 10.647,10.647 0 0 1 13.333,24 10.646,10.646 0 0 1 2.667,13.333 10.645,10.645 0 0 1 13.333,2.667 Z M 10.7255,6.4375 C 9.335,6.4445 8,7.5615 8,9.083 v 8.5215 c 0,2.0215 2.3545,3.3315 4.0725,2.2665 l 6.817,-4.2275 c 1.6285,-1.01 1.637,-3.501 0.016,-4.5225 L 12.088,6.826 A 2.512,2.512 0 0 0 10.7255,6.4375 Z m -0.0585,2.6455 6.8175,4.294 -6.8175,4.2275 z m 20,17.584 A 6.645,6.645 0 0 1 37.333,33.333 6.6465,6.6465 0 0 1 30.667,40 6.647,6.647 0 0 1 24,33.333 6.6465,6.6465 0 0 1 30.667,26.667 Z m 24,0 A 6.645,6.645 0 0 1 61.333,33.333 6.6465,6.6465 0 0 1 54.667,40 6.647,6.647 0 0 1 48,33.333 6.6465,6.6465 0 0 1 54.667,26.667 Z m -21.284,3.4755 a 1.3335,1.3335 0 0 0 -0.9435,0.39 l -3.15,3.147 -1.0465,-1.042 a 1.3335,1.3335 0 0 0 -1.8855,0.003 1.3335,1.3335 0 0 0 0.004,1.886 l 1.987,1.98 a 1.3335,1.3335 0 0 0 1.883,-5e-4 l 4.0925,-4.087 a 1.3335,1.3335 0 0 0 0.001,-1.886 1.3335,1.3335 0 0 0 -0.942,-0.39 z m 24,0 a 1.3335,1.3335 0 0 0 -0.9435,0.39 l -3.15,3.147 -1.0465,-1.042 a 1.3335,1.3335 0 0 0 -1.8855,0.003 1.3335,1.3335 0 0 0 0.004,1.886 l 1.987,1.98 a 1.3335,1.3335 0 0 0 1.883,-5e-4 l 4.0925,-4.087 a 1.3335,1.3335 0 0 0 0.001,-1.886 1.3335,1.3335 0 0 0 -0.942,-0.39 z M 30.667,48 a 6.6465,6.6465 0 0 1 6.666,6.667 6.645,6.645 0 0 1 -6.666,6.666 A 6.6465,6.6465 0 0 1 24,54.667 6.647,6.647 0 0 1 30.667,48 Z M 28,52.667 c -1.0965,0 -2,0.9035 -2,2 0,1.0975 0.904,2 2,2 1.096,0 2,-0.9025 2,-2 0,-1.0965 -0.9035,-2 -2,-2 z m 5.333,0 c -1.0965,0 -2,0.9035 -2,2 0,1.0975 0.904,2 2,2 1.096,0 2,-0.9025 2,-2 0,-1.0965 -0.9035,-2 -2,-2 z M 28,54 c 0.375,0 0.667,0.2925 0.667,0.667 0,0.3765 -0.2915,0.666 -0.667,0.666 -0.375,0 -0.667,-0.29 -0.667,-0.666 C 27.333,54.292 27.6255,54 28,54 Z m 5.333,0 c 0.375,0 0.667,0.2925 0.667,0.667 0,0.3765 -0.2915,0.666 -0.667,0.666 -0.375,0 -0.666,-0.29 -0.666,-0.666 0,-0.375 0.2915,-0.667 0.666,-0.667 z"
     id="path1"
     style="stroke-width:0.5" />
  <path
     fill="#79b8ff"
     d="m 54.667,45.333 c -4.6915,0 -8.594,3.4965 -9.2385,8.0155 A 1.3335,1.3335 0 0 0 45.296,53.343 l -1.35,0.045 a 1.3335,1.3335 0 0 0 -1.289,1.3755 1.3335,1.3335 0 0 0 1.376,1.289 l 1.35,-0.0435 a 1.3335,1.3335 0 0 0 0.0485,-0.003 C 46.085,60.5145 49.9825,64 54.667,64 59.806,64 64,59.806 64,54.667 64,49.528 59.806,45.333 54.667,45.333 Z m 0,2.667 a 6.6465,6.6465 0 0 1 6.666,6.667 6.645,6.645 0 0 1 -6.666,6.666 A 6.6465,6.6465 0 0 1 48,54.667 6.647,6.647 0 0 1 54.667,48 Z"
     id="path2"
     style="stroke-width:0.5" />
</svg>
