<?xml version="1.0" encoding="UTF-8" standalone="no"?>
<svg
   enable-background="new 0 0 304 172"
   height="64"
   viewBox="0 0 140.478 64"
   width="140.478"
   version="1.1"
   id="svg12"
   sodipodi:docname="gitlab_cicd.svg"
   inkscape:version="1.4 (e7c3feb100, 2024-10-09)"
   xmlns:inkscape="http://www.inkscape.org/namespaces/inkscape"
   xmlns:sodipodi="http://sodipodi.sourceforge.net/DTD/sodipodi-0.dtd"
   xmlns="http://www.w3.org/2000/svg"
   xmlns:svg="http://www.w3.org/2000/svg">
  <defs
     id="defs12" />
  <sodipodi:namedview
     id="namedview12"
     pagecolor="#ffffff"
     bordercolor="#000000"
     borderopacity="0.25"
     inkscape:showpageshadow="2"
     inkscape:pageopacity="0.0"
     inkscape:pagecheckerboard="0"
     inkscape:deskcolor="#d1d1d1"
     inkscape:zoom="6.3313953"
     inkscape:cx="151.94123"
     inkscape:cy="86"
     inkscape:window-width="2560"
     inkscape:window-height="1300"
     inkscape:window-x="0"
     inkscape:window-y="0"
     inkscape:window-maximized="1"
     inkscape:current-layer="svg12" />
  <path
     d="m 22.757367,42.975199 c 0,4.729411 -2.481771,6.742924 -7.585789,6.742924 H 7.5857887 C 2.4817704,49.718123 0,47.751436 0,42.975199 V 24.900418 c 0,-4.729412 2.4817704,-6.742924 7.5857887,-6.742924 h 7.6326143 c 5.057193,0 7.585788,2.013512 7.585788,6.742924 v 1.311122 c 0,0.327784 -0.234127,0.655563 -0.56191,0.749216 l -3.137332,0.842865 c -0.468258,0.140476 -0.983343,-0.23413 -0.983343,-0.749216 v -1.311122 c 0,-2.294467 -0.749213,-3.27781 -3.511939,-3.27781 H 8.1945248 c -2.7627253,0 -3.558765,0.983343 -3.558765,3.27781 v 16.389051 c 0,2.294465 0.7960397,3.277808 3.558765,3.277808 h 6.3683162 c 2.762726,0 3.51194,-0.983343 3.51194,-3.277808 V 40.58708 c 0,-0.515086 0.515084,-0.889694 0.983343,-0.749216 l 3.137332,0.936519 c 0.327781,0.09366 0.561911,0.374608 0.561911,0.749213 z"
     fill="#251b3f"
     id="path1"
     style="stroke-width:0.468257" />
  <path
     d="m 29.406637,45.363318 h 8.007221 V 22.418646 h -7.44531 c -0.421433,0 -0.749214,-0.327781 -0.749214,-0.749213 v -2.762725 c 0,-0.421433 0.327781,-0.749214 0.749214,-0.749214 h 19.573209 c 0.421433,0 0.749212,0.327781 0.749212,0.749214 v 2.762725 c 0,0.421432 -0.327779,0.749213 -0.749212,0.749213 h -7.492139 v 22.944672 h 8.007221 c 0.421432,0 0.749216,0.327779 0.749216,0.749213 v 2.809551 c 0,0.421433 -0.327784,0.749212 -0.749216,0.749212 H 29.406637 c -0.421433,0 -0.749214,-0.327779 -0.749214,-0.749212 v -2.809551 c -0.04682,-0.374608 0.327781,-0.749213 0.749214,-0.749213 z"
     fill="#251b3f"
     id="path2"
     style="stroke-width:0.468257" />
  <path
     d="m 111.82014,42.975199 c 0,4.729411 -2.48177,6.742924 -7.58578,6.742924 h -7.632618 c -5.057192,0 -7.585789,-1.966687 -7.585789,-6.742924 V 24.900418 c 0,-4.729412 2.481768,-6.742924 7.585789,-6.742924 h 7.632618 c 5.05719,0 7.58578,2.013512 7.58578,6.742924 v 1.311122 c 0,0.327784 -0.23413,0.655563 -0.56191,0.749216 l -3.13733,0.842865 c -0.46826,0.140476 -0.98334,-0.23413 -0.98334,-0.749216 v -1.311122 c 0,-2.294467 -0.74922,-3.27781 -3.51194,-3.27781 h -6.368318 c -2.762724,0 -3.558765,0.983343 -3.558765,3.27781 v 16.389051 c 0,2.294465 0.796041,3.277808 3.558765,3.277808 h 6.368318 c 2.76272,0 3.51194,-0.983343 3.51194,-3.277808 V 40.58708 c 0,-0.515086 0.51508,-0.889694 0.98334,-0.749216 l 3.13733,0.936519 c 0.32778,0.09366 0.56191,0.374608 0.56191,0.749213 z"
     fill="#251b3f"
     id="path3"
     style="stroke-width:0.468257" />
  <path
     d="m 140.47757,42.975199 c 0,4.729411 -2.34129,6.742924 -7.44531,6.742924 h -14.65649 c -0.42144,0 -0.74922,-0.327783 -0.74922,-0.749216 V 18.953534 c 0,-0.421433 0.32778,-0.749214 0.74922,-0.749214 h 14.65649 c 5.05719,0 7.44531,1.966686 7.44531,6.742923 z m -4.68259,-17.231916 c 0,-2.294467 -0.74921,-3.27781 -3.51194,-3.27781 h -10.02073 v 22.944669 h 10.02073 c 2.76273,0 3.51194,-0.983343 3.51194,-3.277808 z"
     fill="#251b3f"
     id="path4"
     style="stroke-width:0.468257" />
  <path
     d="m 76.326146,0.03588766 c -0.280957,-0.09365173 -0.561911,0 -0.702389,0.23412928 L 60.686309,27.522667 c -0.515084,0.983343 -0.374606,2.153987 0.374608,2.950027 l 7.164356,7.585789 8.428654,-37.41385921 c 0.09366,-0.23412928 -0.09366,-0.51508441 -0.327781,-0.60873613 z"
     fill="#d72d20"
     id="path5"
     style="stroke-width:0.468257" />
  <path
     d="m 78.152354,33.469548 -7.164356,-7.585789 -8.428654,37.413859 c -0.04682,0.280956 0.09366,0.56191 0.327781,0.655564 C 62.933943,64 63.027601,64 63.074419,64 c 0.187294,0 0.374608,-0.09366 0.468259,-0.280954 l 14.937448,-27.25265 c 0.608742,-0.983337 0.468266,-2.200807 -0.327772,-2.996848 z"
     fill="#f8911e"
     id="path6"
     style="stroke-width:0.468257" />
</svg>
