<?xml version="1.0" encoding="UTF-8" standalone="no"?>
<svg
   viewBox="0 0 65.500999 64"
   version="1.1"
   id="svg23"
   sodipodi:docname="podman.svg"
   width="65.500999"
   height="64"
   inkscape:version="1.4 (e7c3feb100, 2024-10-09)"
   xmlns:inkscape="http://www.inkscape.org/namespaces/inkscape"
   xmlns:sodipodi="http://sodipodi.sourceforge.net/DTD/sodipodi-0.dtd"
   xmlns="http://www.w3.org/2000/svg"
   xmlns:svg="http://www.w3.org/2000/svg">
  <defs
     id="defs23" />
  <sodipodi:namedview
     id="namedview23"
     pagecolor="#ffffff"
     bordercolor="#000000"
     borderopacity="0.25"
     inkscape:showpageshadow="2"
     inkscape:pageopacity="0.0"
     inkscape:pagecheckerboard="0"
     inkscape:deskcolor="#d1d1d1"
     inkscape:zoom="8.5078125"
     inkscape:cx="63.94123"
     inkscape:cy="64"
     inkscape:window-width="2560"
     inkscape:window-height="1300"
     inkscape:window-x="0"
     inkscape:window-y="0"
     inkscape:window-maximized="1"
     inkscape:current-layer="svg23" />
  <path
     fill="#3c6eb4"
     d="m 47.686873,29.852257 c 0.07574,0.474373 0.153519,0.948746 0.246654,1.412373 h 4.582534 v -1.412373 z m 0.759406,3.528884 c 0.09467,0.324437 0.194969,0.647338 0.306014,0.968704 0.266099,0.132538 0.525546,0.280427 0.776293,0.445204 h 5.809149 v -1.413908 z m -9.43168,0.656037 c -0.217996,0.07932 -0.431387,0.171941 -0.640685,0.272752 v 0.002 c 0.209809,-0.101323 0.422177,-0.195481 0.640685,-0.274799 z M 17.906795,51.727655 v 1.412372 h 16.967404 v -1.412372 z m 9.88149,3.528884 v 1.408279 h 13.968671 v -1.408279 z"
     id="path1"
     style="stroke-width:0.511729" />
  <path
     fill="#cccccc"
     d="m 31.273672,7.5700349 c -2.51259,0 -4.974519,0.2901504 -6.440623,0.8735216 -4.037543,1.4778738 -7.138621,5.5138815 -8.057687,10.4034535 -1.210239,5.724202 -1.138085,10.204391 -2.339625,14.419504 a 6.9538874,6.9538874 0 0 1 1.805892,-0.992754 c 0.938511,-0.371516 2.512078,-0.557785 4.118908,-0.557785 1.606829,0 3.24948,0.186781 4.314388,0.557785 2.339114,0.854587 4.184409,3.049905 4.948421,5.774351 h 4.973496 c 1.018852,-1.883675 2.573997,-3.338009 4.417757,-4.010933 2.005467,-0.795227 6.736915,-0.79318 9.015133,0 0.247165,0.09007 0.487166,0.199575 0.723585,0.316761 C 47.186402,29.816948 47.385465,25.065543 46.070832,18.84701 45.152279,13.957438 42.050177,9.9214303 38.013145,8.4435565 36.347979,7.8622322 33.785751,7.5705466 31.273672,7.5700349 Z"
     id="path2"
     style="stroke-width:0.511729" />
  <path
     fill="#e7e8e9"
     d="m 23.168394,24.726778 a 1.7112223,1.8028218 0 0 0 -1.709175,1.802822 1.7112223,1.8028218 0 0 0 1.709175,1.802822 1.7112223,1.8028218 0 0 0 1.709688,-1.802822 1.7112223,1.8028218 0 0 0 -1.709176,-1.802822 z m 17.291328,0 a 1.7112223,1.8028218 0 0 0 -1.709175,1.802822 1.7112223,1.8028218 0 0 0 1.709175,1.802822 1.7112223,1.8028218 0 0 0 1.714293,-1.802822 1.7112223,1.8028218 0 0 0 -1.714293,-1.802822 z"
     id="path3"
     style="stroke-width:0.511729" />
  <path
     fill="#a7a9ac"
     d="m 26.04943,25.196545 -6.35977,1.705082 0.182175,0.681623 6.360794,-1.705081 z m 12.035869,0 -0.183199,0.681624 6.359258,1.705081 0.183199,-0.681623 z m -11.399278,1.027553 -6.396103,3.694172 0.353093,0.610493 6.395079,-3.693661 z m 10.766269,0 -0.353093,0.611004 6.395591,3.693661 0.353093,-0.610493 z m -10.298549,1.225591 -4.404453,4.410593 c 0.299874,0.03787 0.585418,0.08546 0.85817,0.138679 l 4.045219,-4.050848 z m 9.830317,0 -0.498424,0.498424 5.53128,5.53998 c 0.313178,-0.02047 0.633009,-0.03429 0.956934,-0.04094 z m -9.616414,1.605806 -2.024912,3.510462 c 0.21032,0.103881 0.416547,0.217997 0.616633,0.343882 l 2.019795,-3.502274 z m 9.403023,0 -0.611516,0.35207 2.705512,4.691532 c 0.05015,-0.01996 0.09876,-0.0435 0.149936,-0.06192 0.158636,-0.06294 0.3403,-0.119233 0.530663,-0.171941 z"
     id="path4"
     style="stroke-width:0.511729" />
  <path
     fill="#ffffff"
     d="m 37.489646,25.265629 a 5.4939241,5.2283367 0 0 1 -5.493924,5.228848 5.4939241,5.2283367 0 0 1 -5.494436,-5.228848 5.4939241,5.2283367 0 0 1 5.494436,-5.228337 5.4939241,5.2283367 0 0 1 5.493413,5.228337 z"
     id="path5"
     style="stroke-width:0.511729" />
  <path
     fill="#808080"
     d="m 34.340465,24.323024 c -0.184222,-0.477444 -0.184222,-1.43233 -0.73689,-1.43233 -0.552667,0 -1.064396,-0.358211 -1.607853,-0.358211 -0.543968,0 -1.054162,0.358211 -1.607853,0.358211 -0.552667,0 -0.552667,0.954886 -0.73689,1.432841 -0.184222,0.476932 2.344743,2.028495 2.344743,2.028495 0,0 2.528966,-1.551563 2.344743,-2.029006 z"
     id="path6"
     style="stroke-width:0.511729" />
  <path
     fill="#3c6eb4"
     d="m 29.372599,37.265677 c 0.16887,0.453392 0.30192,0.92623 0.405801,1.412885 h 4.502705 c 0.226696,-0.497913 0.490236,-0.970751 0.785504,-1.413396 z m 22.606658,5.12e-4 a 10.067248,10.067248 0 0 1 0.783969,1.412373 h 5.665865 v -1.412373 z"
     id="path7"
     style="stroke-width:0.511729" />
  <path
     fill="#cccccc"
     d="m 20.361048,31.715975 c -1.606829,0 -3.180908,0.186269 -4.119419,0.557785 -2.582186,0.943628 -4.563089,3.519673 -5.150554,6.639685 -0.307038,1.446147 -0.483584,2.758732 -0.633521,3.99507 H 30.459 c -0.149937,-1.236338 -0.32239,-2.548411 -0.629427,-3.99507 -0.586954,-3.120012 -2.572463,-5.695545 -5.15516,-6.639174 -1.06542,-0.371003 -2.707047,-0.557784 -4.313876,-0.557784 z"
     id="path8"
     style="stroke-width:0.511729" />
  <path
     fill="#e7e8e9"
     d="m 15.179279,42.66442 a 1.0951004,1.1503671 0 0 0 -0.64222,0.244095 h 1.310027 a 1.0951004,1.1503671 0 0 0 -0.667807,-0.243583 z m 11.063584,0 a 1.0951004,1.1503671 0 0 0 -0.642732,0.244095 h 1.31105 a 1.0951004,1.1503671 0 0 0 -0.66883,-0.243583 z"
     id="path9"
     style="stroke-width:0.511729" />
  <path
     fill="#a7a9ac"
     d="m 16.990288,42.84199 -0.247676,0.06652 h 0.266099 z m 7.763955,0 -0.01791,0.06652 h 0.266099 z"
     id="path10"
     style="stroke-width:0.511729" />
  <path
     fill="#ffffff"
     d="m 20.82621,39.675922 a 3.5145558,3.3364741 0 0 0 -3.503298,3.232593 h 7.001479 A 3.5145558,3.3364741 0 0 0 20.82621,39.675922 Z"
     id="path11"
     style="stroke-width:0.511729" />
  <path
     fill="#808080"
     d="m 20.82621,41.265352 c -0.347976,0 -0.673947,0.230279 -1.027552,0.230279 -0.353605,0 -0.356163,0.607934 -0.473861,0.912413 -0.04094,0.106439 0.137143,0.298338 0.376121,0.500471 h 2.249561 c 0.239489,-0.202133 0.413477,-0.394032 0.372027,-0.500471 -0.117698,-0.304479 -0.115651,-0.912413 -0.469255,-0.912413 -0.353094,0 -0.679065,-0.230279 -1.027041,-0.230279 z"
     id="path12"
     style="stroke-width:0.511729" />
  <path
     fill="#892ca0"
     d="M 46.943842,2.5577347e-5 18.421083,0.08394916 A 0.70618623,0.70618623 0 0 0 17.871998,0.35004831 L 0.15081722,22.728987 A 0.70618623,0.70618623 0 0 0 0.01776764,23.322593 L 6.4450859,51.141725 a 0.70618623,0.70618623 0 0 0 0.385332,0.478467 L 32.562718,63.932907 a 0.70618623,0.70618623 0 0 0 0.611516,-0.0051 L 58.836427,51.464626 a 0.70618623,0.70618623 0 0 0 0.380727,-0.482561 L 65.484301,23.127624 A 0.70618623,0.70618623 0 0 0 65.347157,22.534019 L 47.498557,0.26100744 A 0.70618623,0.70618623 0 0 0 46.944354,2.5577347e-5 Z M 46.607636,1.412398 64.032013,23.150652 57.914803,50.344963 32.86822,62.511835 7.7469248,50.495411 1.4710784,23.33641 18.7665,1.4922278 Z"
     id="path13"
     style="stroke-width:0.511729" />
  <path
     fill="#cccccc"
     d="m 54.5727,48.240732 c -0.310108,-2.110371 -0.460556,-4.405988 -1.033181,-7.106382 -0.628403,-3.335451 -2.74952,-6.089577 -5.510299,-7.097684 -2.278218,-0.79318 -7.009154,-0.795227 -9.014621,0 -2.760778,1.008107 -4.881896,3.762233 -5.510299,7.097684 -0.572113,2.700906 -0.723073,4.996011 -1.033181,7.106382"
     id="path14"
     style="stroke-width:0.511729" />
  <path
     fill="#e7e8e9"
     d="m 37.878049,45.145283 a 1.1703246,1.2301969 0 0 0 -1.169813,1.23122 1.1703246,1.2301969 0 0 0 1.169813,1.23122 1.1703246,1.2301969 0 0 0 1.169301,-1.23122 1.1703246,1.2301969 0 0 0 -1.169301,-1.23122 z m 11.82606,0 a 1.1703246,1.2301969 0 0 0 -1.169812,1.23122 1.1703246,1.2301969 0 0 0 1.169812,1.23122 1.1703246,1.2301969 0 0 0 1.169302,-1.23122 1.1703246,1.2301969 0 0 0 -1.169302,-1.23122 z"
     id="path15"
     style="stroke-width:0.511729" />
  <path
     fill="#a7a9ac"
     d="m 39.819549,45.358162 -4.349698,1.165207 0.183199,0.681624 4.348675,-1.165208 z m 8.287966,0 -0.1832,0.681623 4.349698,1.165208 0.183199,-0.681624 z m -7.880629,0.712327 -4.372214,2.520778 0.352069,0.610493 4.371703,-2.519755 z m 7.473804,0 -0.353093,0.611516 4.371701,2.519755 0.353093,-0.610493 z"
     id="path16"
     style="stroke-width:0.511729" />
  <path
     fill="#ffffff"
     d="m 47.67101,45.514751 a 3.7576271,3.5667522 0 0 1 -3.757116,3.566752 3.7576271,3.5667522 0 0 1 -3.757627,-3.566752 3.7576271,3.5667522 0 0 1 3.757627,-3.566752 3.7576271,3.5667522 0 0 1 3.757116,3.566752 z"
     id="path17"
     style="stroke-width:0.511729" />
  <path
     fill="#808080"
     d="m 45.517142,44.870996 c -0.125886,-0.32546 -0.125886,-0.977403 -0.504054,-0.977403 -0.377656,0 -0.726655,-0.243583 -1.099194,-0.243583 -0.372027,0 -0.721538,0.244095 -1.099706,0.244095 -0.377656,0 -0.377656,0.651431 -0.504053,0.977403 -0.125885,0.325459 1.603759,1.383715 1.603759,1.383715 0,0 1.729645,-1.058256 1.603248,-1.384227 z"
     id="path18"
     style="stroke-width:0.511729" />
  <path
     fill="#60605b"
     d="m 31.996234,19.509699 c -3.306282,0 -6.023052,2.569904 -6.023052,5.757977 0,3.188072 2.71677,5.757976 6.023052,5.757976 3.306794,0 6.023564,-2.569904 6.023564,-5.757976 0,-3.188073 -2.717794,-5.757977 -6.023564,-5.757977 z m 0,1.058768 c 2.762314,0 4.965308,2.112418 4.965308,4.699209 0,2.587302 -2.202994,4.698697 -4.965308,4.698697 -2.761802,0 -4.965308,-2.111395 -4.965308,-4.698697 0,-2.586791 2.203506,-4.699209 4.965308,-4.699209 z M 20.82621,39.144235 c -2.176896,0 -3.981253,1.668237 -4.040102,3.76428 h 1.058768 c 0.05731,-1.494249 1.34943,-2.706024 2.981334,-2.706024 1.632416,0 2.922997,1.211775 2.980311,2.706024 h 1.058256 c -0.05783,-2.095531 -1.862695,-3.76428 -4.038567,-3.76428 z m 23.088708,2.27566 c -2.346279,0 -4.288291,1.821755 -4.288291,4.092809 0,2.272078 1.942012,4.096904 4.288291,4.096904 2.346789,0 4.287778,-1.825338 4.287778,-4.096904 0,-2.271054 -1.940989,-4.092809 -4.28829,-4.092809 z m 0,1.058767 c 1.803845,0 3.229011,1.364782 3.229011,3.034554 0,1.668237 -1.425166,3.038136 -3.229011,3.038136 -1.803334,0 -3.229011,-1.369899 -3.229011,-3.038648 0,-1.668237 1.425677,-3.034553 3.229011,-3.034553 z"
     id="path19"
     style="stroke-width:0.511729" />
  <path
     fill="#3c6eb4"
     d="m 8.1680779,42.908515 v 1.412372 H 32.967496 c 0.06141,-0.459021 0.129467,-0.9293 0.207762,-1.412372 z m 12.5649971,5.292814 v 1.408279 h 36.672558 v -1.408279 h -2.837538 l 0.0051,0.03889 H 32.470607 l 0.0051,-0.03889 z"
     id="path20"
     style="stroke-width:0.511729" />
  <path
     d="m 31.274696,7.0414187 h -10e-4 c -2.549434,0 -5.030297,0.2783806 -6.629451,0.912413 -4.238652,1.5571918 -7.434401,5.7441593 -8.384682,10.7852033 -0.845376,3.999164 -1.069514,7.381182 -1.519324,10.443369 -0.191898,1.309003 -0.428829,2.556087 -0.765546,3.775026 -1.719922,1.358641 -2.955236,3.462359 -3.407093,5.859298 -0.315225,1.490667 -0.489725,2.83498 -0.6417085,4.091787 h 1.0633735 c 0.147378,-1.212798 0.319319,-2.487004 0.61561,-3.884025 l 0.0041,-0.0051 v -0.0092 c 0.557784,-2.95933 2.440948,-5.369062 4.814348,-6.23542 l 0.0092,-0.0051 0.0041,-0.0041 c 0.80495,-0.319319 2.357537,-0.518893 3.92394,-0.518893 1.564356,0 3.178349,0.194969 4.136818,0.527593 2.371353,0.867892 4.252981,3.278137 4.810254,6.235931 v 0.0092 l 0.0041,0.0051 c 0.296803,1.397021 0.468232,2.671738 0.61561,3.884025 h 1.063885 c -0.152016,-1.257842 -0.326004,-2.604713 -0.64174,-4.096915 -0.619193,-3.278137 -2.702954,-6.014864 -5.493413,-7.033717 h -0.0041 l -0.0041,-0.0051 c -1.172884,-0.407337 -2.840097,-0.583372 -4.487865,-0.584395 -1.644698,0 -3.238222,0.170406 -4.308248,0.593606 -0.265076,0.09723 -0.521964,0.214926 -0.773734,0.341835 a 35.945391,35.945391 0 0 0 0.511729,-2.786365 c 0.457997,-3.122572 0.672924,-6.464675 1.501413,-10.38145 l 0.0051,-0.0051 v -0.0082 c 0.888362,-4.728377 3.892212,-8.60012 7.719946,-10.001234 l 0.0051,-0.00409 h 0.0077 c 1.333054,-0.5301514 3.774002,-0.8371889 6.245654,-0.8366772 2.46807,0 4.996523,0.2983381 6.55525,0.840771 3.827734,1.4006032 6.831584,5.2723452 7.718923,10.0007232 l 0.0051,0.01023 v 0.0036 c 0.827978,3.916775 1.048021,7.258878 1.506019,10.38145 0.206227,1.406231 0.473861,2.768454 0.859705,4.111743 -1.22508,-0.370492 -2.86773,-0.537315 -4.500658,-0.537315 -1.755231,0 -3.452637,0.184222 -4.588163,0.63352 -2.964959,1.084866 -5.181258,3.991488 -5.8419,7.480969 -0.581325,2.741845 -0.735867,5.055372 -1.041881,7.135039 l 1.049556,0.155054 c 0.314714,-2.140563 0.459533,-4.414175 1.023459,-7.073632 l 0.0051,-0.0051 v -0.0036 c 0.5977,-3.175279 2.621588,-5.770258 5.173582,-6.701605 h 0.0036 l 0.0092,-0.0051 c 0.86994,-0.344906 2.531012,-0.557785 4.207949,-0.557785 1.675913,0 3.401975,0.208274 4.433621,0.566996 h 0.0051 c 2.546876,0.934417 4.565647,3.525814 5.163347,6.697511 v 0.0087 c 0.563414,2.658945 0.712327,4.933069 1.02704,7.073121 l 1.05058,-0.154543 c -0.305434,-2.080236 -0.460488,-4.393763 -1.0413,-7.135608 -0.586442,-3.099543 -2.401034,-5.738019 -4.876779,-7.050092 -0.513776,-1.54184 -0.829001,-3.117966 -1.075143,-4.793367 -0.448786,-3.060141 -0.671388,-6.4396 -1.51523,-10.434158 C 45.642003,13.698503 42.444208,9.4992538 38.197368,7.9446206 h -0.0092 C 36.415527,7.3254284 33.828224,7.0419304 31.274696,7.0414187 Z m -7.967623,6.3776803 a 3.5370719,3.5370719 0 0 0 -2.817581,1.373481 l -0.323924,0.416548 0.842306,0.646825 0.322901,-0.421153 a 2.5177074,2.5177074 0 0 1 1.838131,-0.956422 c 0.665248,-0.02814 1.356082,0.23949 1.82892,0.708745 l 0.376633,0.376633 0.74866,-0.753265 -0.376633,-0.372027 a 3.5334898,3.5334898 0 0 0 -2.440948,-1.018341 z m 17.077425,0 a 3.5334898,3.5334898 0 0 0 -2.440948,1.019365 l -0.376632,0.372027 0.744565,0.753265 0.377145,-0.376633 a 2.5049142,2.5049142 0 0 1 1.82892,-0.708745 c 0.703627,0.0307 1.412372,0.397614 1.842225,0.956934 l 0.323924,0.420641 0.837189,-0.646825 -0.323924,-0.416548 A 3.5283725,3.5283725 0 0 0 40.384498,13.419099 Z M 23.279951,18.08351 a 2.6456397,2.7152349 0 0 0 -2.644616,2.714723 2.6456397,2.7152349 0 0 0 2.644616,2.715235 2.6456397,2.7152349 0 0 0 2.648199,-2.715235 2.6456397,2.7152349 0 0 0 -2.648199,-2.714723 z m 17.126552,0 a 2.6456397,2.7152349 0 0 0 -2.644105,2.714723 2.6456397,2.7152349 0 0 0 2.644105,2.715235 2.6456397,2.7152349 0 0 0 2.644616,-2.715235 2.6456397,2.7152349 0 0 0 -2.644105,-2.714723 z m -8.410269,3.919846 c -0.387891,0 -0.705675,0.119232 -0.969727,0.208273 -0.264564,0.08955 -0.475908,0.150449 -0.638638,0.150449 -0.29015,0 -0.575183,0.159147 -0.730237,0.345929 -0.154542,0.186269 -0.22772,0.378679 -0.28401,0.561878 -0.11258,0.364863 -0.167335,0.735867 -0.216973,0.864822 -0.113604,0.293733 -0.0051,0.527593 0.08495,0.681112 0.08955,0.153519 0.199063,0.274287 0.322389,0.399149 0.247677,0.2487 0.560855,0.497912 0.877104,0.730237 0.323925,0.237442 0.648873,0.453392 0.890409,0.611005 l -0.01279,0.212879 c -0.119233,0.09723 -0.409384,0.354628 -0.890409,0.517358 -0.284522,0.09621 -0.57109,0.130491 -0.81979,0.06704 -0.211344,-0.05424 -0.421665,-0.240513 -0.637615,-0.522476 0.01382,-0.111557 0.01893,-0.157101 0.04401,-0.340811 0.04452,-0.321366 0.108998,-0.709769 0.138167,-0.824908 L 28.12501,25.408404 c -0.06141,0.24563 -0.113604,0.603841 -0.15966,0.935953 -0.04605,0.3316 -0.07983,0.61561 -0.07983,0.61561 l -0.02201,0.18934 0.101834,0.159148 c 0.373051,0.586441 0.870452,0.942093 1.382181,1.072584 0.511729,0.131003 1.008106,0.05168 1.422607,-0.08802 0.537316,-0.182687 0.975356,-0.475908 1.216892,-0.66013 0.242048,0.184222 0.677529,0.478467 1.21331,0.66013 0.4145,0.140214 0.90576,0.219021 1.417489,0.08802 0.51173,-0.131003 1.009642,-0.486143 1.382181,-1.072584 l 0.102346,-0.158636 -0.02252,-0.189852 c 0,0 -0.03377,-0.28401 -0.07983,-0.61561 -0.04606,-0.332624 -0.09928,-0.690323 -0.15966,-0.935953 l -1.027552,0.256888 c 0.02866,0.115139 0.09314,0.503542 0.138167,0.824908 0.02456,0.181152 0.0307,0.225161 0.0435,0.336717 -0.216973,0.284522 -0.424735,0.472326 -0.637614,0.527082 -0.248701,0.06294 -0.534757,0.02866 -0.819279,-0.06755 -0.481025,-0.16273 -0.771687,-0.420129 -0.890409,-0.517358 l -0.0092,-0.199063 c 0.245119,-0.158636 0.577231,-0.378679 0.912413,-0.624309 0.316249,-0.232837 0.629427,-0.482561 0.877616,-0.731773 0.122815,-0.12435 0.233348,-0.245118 0.322389,-0.398125 0.09058,-0.153519 0.198039,-0.387379 0.08444,-0.681623 -0.04964,-0.127933 -0.108487,-0.499448 -0.221067,-0.864823 -0.05629,-0.182175 -0.123839,-0.375609 -0.278893,-0.56239 -0.155054,-0.186269 -0.440087,-0.344905 -0.730749,-0.344905 -0.162218,0 -0.373562,-0.06141 -0.637615,-0.150449 -0.264564,-0.08904 -0.581836,-0.208273 -0.970238,-0.208273 z m 0,1.058767 c 0.156077,0 0.363328,0.06038 0.629427,0.149937 0.244606,0.0829 0.552156,0.173988 0.90269,0.190875 0.01177,0.01791 0.0435,0.07676 0.07574,0.181664 0.0568,0.184222 0.114627,0.465673 0.194457,0.739448 -0.02559,0.0348 -0.05629,0.0783 -0.123327,0.145843 -0.175011,0.176035 -0.460556,0.404778 -0.753777,0.619704 -0.450321,0.331089 -0.731772,0.503542 -0.925206,0.624821 C 31.80434,25.593647 31.51726,25.42273 31.065403,25.090106 30.772182,24.87518 30.492266,24.645925 30.317255,24.46989 c -0.06755,-0.06755 -0.09723,-0.111045 -0.122815,-0.145843 0.07881,-0.273775 0.137143,-0.554714 0.193433,-0.739448 a 0.79318018,0.79318018 0 0 1 0.07625,-0.181664 c 0.350023,-0.01638 0.653478,-0.107975 0.898596,-0.190875 0.265076,-0.08955 0.477955,-0.149937 0.633521,-0.149937 z M 15.138852,35.259187 c -0.71642,0.0307 -1.386786,0.380727 -1.824826,0.948746 l -0.322389,0.420642 0.836165,0.646825 0.323925,-0.421665 a 1.4343768,1.4343768 0 0 1 1.036251,-0.53578 1.4210718,1.4210718 0 0 1 1.027552,0.398637 l 0.376633,0.372027 0.743543,-0.752753 -0.376633,-0.372028 a 2.4491357,2.4491357 0 0 0 -1.820221,-0.704651 z m 11.175142,0 a 2.4394129,2.4394129 0 0 0 -1.816639,0.704651 l -0.376121,0.372028 0.743543,0.752241 0.377144,-0.371515 a 1.4210718,1.4210718 0 0 1 1.02704,-0.399149 1.4328416,1.4328416 0 0 1 1.036764,0.536292 l 0.318807,0.421665 0.841283,-0.646825 -0.323413,-0.420642 a 2.4511826,2.4511826 0 0 0 -1.828408,-0.948746 z m 23.336896,2.001885 h -10e-4 a 2.5821853,2.5821853 0 0 0 -1.784399,0.745077 l -0.376633,0.371516 0.744566,0.752242 0.375609,-0.371516 a 1.5500276,1.5500276 0 0 1 1.125804,-0.433434 c 0.429853,0.01791 0.870451,0.244095 1.132969,0.584394 l 0.323924,0.420642 0.8377,-0.646314 -0.323924,-0.420641 a 2.5699038,2.5699038 0 0 0 -1.923078,-0.997872 c -0.0435,-0.0015 -0.08699,-0.0041 -0.131514,-0.0041 z m -11.679706,0 c -0.04452,0 -0.08853,0.002 -0.13305,0.0046 a 2.5791149,2.5791149 0 0 0 -1.927172,0.997361 l -0.322389,0.420641 0.841282,0.646826 0.32239,-0.421154 a 1.553098,1.553098 0 0 1 1.129898,-0.584394 1.5597504,1.5597504 0 0 1 1.129386,0.433434 l 0.376633,0.372027 0.744565,-0.752241 -0.376632,-0.372028 a 2.5816736,2.5816736 0 0 0 -1.784911,-0.744565 z m -22.721798,1.165719 a 1.6922883,1.7327149 0 0 0 -1.691777,1.731691 1.6922883,1.7327149 0 0 0 1.691777,1.736297 1.6922883,1.7327149 0 0 0 1.691776,-1.736297 1.6922883,1.7327149 0 0 0 -1.691776,-1.731691 z m 10.957144,0 a 1.6922883,1.7327149 0 0 0 -1.696382,1.731691 1.6922883,1.7327149 0 0 0 1.696382,1.736297 1.6922883,1.7327149 0 0 0 1.691777,-1.736297 1.6922883,1.7327149 0 0 0 -1.691777,-1.731691 z m 11.74572,2.188154 a 1.8094743,1.8524595 0 0 0 -1.806404,1.850924 1.8094743,1.8524595 0 0 0 1.806404,1.851436 1.8094743,1.8524595 0 0 0 1.811521,-1.851436 1.8094743,1.8524595 0 0 0 -1.811521,-1.850924 z m 11.715015,0 a 1.8094743,1.8524595 0 0 0 -1.811521,1.850924 1.8094743,1.8524595 0 0 0 1.811521,1.851436 1.8094743,1.8524595 0 0 0 1.807427,-1.851436 1.8094743,1.8524595 0 0 0 -1.807427,-1.850924 z m -28.841567,0.123838 c -0.289638,0 -0.513776,0.08546 -0.682646,0.142261 -0.168871,0.05629 -0.281963,0.08392 -0.344906,0.08392 -0.240512,0 -0.489725,0.141238 -0.61561,0.292709 -0.125885,0.150961 -0.17757,0.296803 -0.216973,0.424736 -0.07983,0.257399 -0.117186,0.493818 -0.13305,0.53578 -0.105416,0.272752 -0.0051,0.481025 0.06653,0.602817 0.01945,0.03377 0.04094,0.05885 0.06141,0.08802 H 20.57751 A 5.6929868,5.6929868 0 0 1 20.342626,42.745273 C 20.159427,42.610177 19.980834,42.468428 19.88207,42.369152 v -0.0051 c 0.03224,-0.13305 0.07011,-0.292709 0.09314,-0.367933 0.0026,-0.0082 0.002,-10e-4 0.0051,-0.0077 0.187293,-0.02763 0.375097,-0.06499 0.499447,-0.107463 0.169895,-0.0568 0.287592,-0.08341 0.345929,-0.08341 0.05783,0 0.170918,0.02661 0.340812,0.08392 0.12435,0.04196 0.31369,0.07932 0.500471,0.106952 0.0026,0.0067 0.0015,0 0.0041,0.0077 0.02354,0.07522 0.0655,0.23386 0.09723,0.368445 l -0.0041,0.0046 c -0.09876,0.09928 -0.276334,0.241025 -0.460045,0.375609 a 7.9266845,7.9266845 0 0 1 -0.230278,0.163754 h 1.617064 c 0.02047,-0.02815 0.04196,-0.05424 0.0609,-0.08751 0.07164,-0.121792 0.172453,-0.330065 0.06652,-0.602817 -0.01535,-0.04145 -0.05783,-0.278381 -0.138167,-0.53578 a 1.1247807,1.1247807 0 0 0 -0.216462,-0.424736 c -0.125885,-0.151471 -0.36998,-0.292709 -0.610492,-0.292709 -0.06294,0 -0.177059,-0.02712 -0.345929,-0.08392 -0.168871,-0.0568 -0.391985,-0.142261 -0.681624,-0.142261 z m 23.088708,2.383123 c -0.30192,0 -0.537316,0.09006 -0.717956,0.15096 -0.180641,0.0609 -0.305502,0.09211 -0.380727,0.09211 -0.246653,0 -0.499447,0.140726 -0.629426,0.296803 -0.128956,0.155054 -0.183711,0.308061 -0.225161,0.443157 -0.08392,0.270193 -0.125886,0.523499 -0.145843,0.575696 -0.106951,0.276333 -0.0031,0.486142 0.07011,0.611004 0.07369,0.125886 0.158636,0.214927 0.2487,0.306014 0.180641,0.180641 0.399661,0.35207 0.619704,0.513265 0.181664,0.133049 0.358722,0.253817 0.509682,0.35514 -0.09979,0.07932 -0.232325,0.187804 -0.474884,0.269681 -0.173988,0.05885 -0.335695,0.07267 -0.46465,0.03992 -0.09416,-0.02405 -0.200086,-0.133561 -0.305503,-0.251771 0.0082,-0.06499 0.01024,-0.06908 0.02201,-0.15096 0.0307,-0.217485 0.0742,-0.487166 0.08853,-0.54448 l -1.027041,-0.256888 c -0.04708,0.188317 -0.07932,0.426782 -0.111045,0.654502 -0.03173,0.228743 -0.05322,0.425758 -0.05322,0.425758 l -0.022,0.185758 0.102346,0.160171 c 0.272752,0.428829 0.653478,0.705675 1.043927,0.805462 0.391473,0.09979 0.76043,0.03633 1.063885,-0.06601 a 3.1215478,3.1215478 0 0 0 0.779364,-0.403754 c 0.183199,0.128955 0.453903,0.29322 0.779875,0.404266 0.303455,0.102346 0.671389,0.165288 1.06235,0.0655 0.391472,-0.09979 0.772199,-0.376633 1.045462,-0.805462 l 0.102346,-0.160171 -0.02252,-0.185758 c 0,0 -0.0261,-0.196504 -0.05783,-0.424735 -0.03122,-0.228231 -0.06294,-0.467208 -0.110022,-0.655525 l -1.027552,0.256888 c 0.01433,0.05731 0.06294,0.327507 0.09313,0.54448 0.01024,0.08188 0.0087,0.08597 0.01689,0.15096 -0.104905,0.117698 -0.207251,0.22772 -0.300897,0.251771 -0.128956,0.03275 -0.291686,0.01893 -0.465674,-0.03992 -0.235395,-0.07983 -0.364863,-0.186269 -0.46465,-0.266099 0.153519,-0.101323 0.332624,-0.223114 0.518382,-0.358211 0.220043,-0.161706 0.439063,-0.332623 0.619704,-0.513776 a 1.4788972,1.4788972 0 0 0 0.248188,-0.306014 c 0.07369,-0.125373 0.172965,-0.335182 0.06652,-0.611004 -0.02047,-0.0522 -0.06294,-0.305503 -0.146866,-0.575696 -0.04094,-0.135096 -0.09211,-0.288103 -0.220555,-0.443669 -0.129979,-0.155565 -0.382262,-0.296803 -0.628915,-0.296803 -0.07471,0 -0.199575,-0.0307 -0.380727,-0.09211 -0.18064,-0.06141 -0.415524,-0.150448 -0.717444,-0.150448 z m 0,1.058256 c 0.07011,0 0.194969,0.03173 0.376633,0.09313 a 3.1829553,3.1829553 0 0 0 0.55369,0.114628 c 0.0067,0.01433 0,0.0051 0.0077,0.0307 0.02763,0.08955 0.07215,0.261494 0.111046,0.41706 l -0.01791,0.01791 A 4.7350298,4.7350298 0 0 1 44.4497,45.260415 c -0.258424,0.18934 -0.380727,0.260982 -0.535269,0.358722 -0.153519,-0.09723 -0.276334,-0.168359 -0.535781,-0.35821 A 4.7340064,4.7340064 0 0 1 42.881761,44.85359 c -0.01126,-0.01177 -0.0072,-0.01228 -0.01689,-0.02303 0.03787,-0.152495 0.07881,-0.323412 0.105928,-0.41143 0.0082,-0.02712 0.0061,-0.01689 0.01279,-0.0307 a 3.0923792,3.0923792 0 0 0 0.549597,-0.115139 c 0.181663,-0.06141 0.310619,-0.09313 0.380726,-0.09313 z"
     id="path21"
     style="stroke-width:0.511729" />
  <path
     fill="#892ca0"
     d="m 23.278928,17.556429 a 3.1133601,3.1133601 0 0 0 -2.242397,0.954887 3.2551091,3.2551091 0 0 0 -0.785504,1.327937 3.2689258,3.2689258 0 0 0 -0.138167,1.124781 3.2735314,3.2735314 0 0 0 1.392415,2.519242 3.1783497,3.1783497 0 0 0 0.683158,0.358722 3.0990317,3.0990317 0 0 0 2.328368,-0.05629 3.1189892,3.1189892 0 0 0 0.783457,-0.488189 3.221335,3.221335 0 0 0 0.695952,-0.822349 3.2730196,3.2730196 0 0 0 0.422688,-2.167685 3.2909302,3.2909302 0 0 0 -0.4232,-1.185676 3.2730196,3.2730196 0 0 0 -0.940046,-1.009642 3.1783497,3.1783497 0 0 0 -0.683671,-0.35821 3.0944262,3.0944262 0 0 0 -1.09203,-0.197528 z m 17.127575,0 a 3.1251299,3.1251299 0 0 0 -1.091007,0.199063 3.1087546,3.1087546 0 0 0 -0.806997,0.449298 3.2121239,3.2121239 0 0 0 -0.731773,0.787039 3.2730196,3.2730196 0 0 0 -0.476931,2.4563 3.2755783,3.2755783 0 0 0 0.863799,1.637534 3.2392455,3.2392455 0 0 0 0.730749,0.560855 3.1425287,3.1425287 0 0 0 0.872498,0.327506 3.0754922,3.0754922 0 0 0 0.96461,0.04964 3.1010786,3.1010786 0 0 0 1.693823,-0.727679 3.2341282,3.2341282 0 0 0 0.770664,-0.957957 3.2663672,3.2663672 0 0 0 0.365886,-1.868834 3.2909302,3.2909302 0 0 0 -0.442134,-1.345848 3.2699493,3.2699493 0 0 0 -1.067467,-1.094077 3.1624861,3.1624861 0 0 0 -0.852029,-0.369468 3.0811212,3.0811212 0 0 0 -0.79318,-0.10337 z m -17.127575,1.054162 h 0.001 a 2.2081113,2.2081113 0 0 1 0.32239,0.02456 2.049987,2.049987 0 0 1 0.687252,0.236419 2.1021833,2.1021833 0 0 1 0.489213,0.374586 2.1625674,2.1625674 0 0 1 0.455439,0.694928 2.2132286,2.2132286 0 0 1 0.164265,0.743543 2.3268324,2.3268324 0 0 1 -0.09314,0.76964 2.2132286,2.2132286 0 0 1 -0.389426,0.742007 2.1625674,2.1625674 0 0 1 -0.626356,0.52964 2.0822259,2.0822259 0 0 1 -1.332031,0.235395 2.0755734,2.0755734 0 0 1 -1.31105,-0.766058 2.1758723,2.1758723 0 0 1 -0.388914,-0.742007 2.238815,2.238815 0 0 1 -0.09518,-0.655014 2.3232503,2.3232503 0 0 1 0.09569,-0.655013 2.2157872,2.2157872 0 0 1 0.388914,-0.741495 2.1584735,2.1584735 0 0 1 0.624309,-0.529128 2.0786438,2.0786438 0 0 1 0.899108,-0.258935 c 0.03582,-0.002 0.07215,-0.0026 0.108487,-0.0026 z m 17.127575,0 a 2.0919488,2.0919488 0 0 1 0.629426,0.09774 2.0653388,2.0653388 0 0 1 0.716421,0.398637 2.1441451,2.1441451 0 0 1 0.515823,0.643755 2.2004353,2.2004353 0 0 1 0.245118,0.822349 2.2884528,2.2884528 0 0 1 -0.24563,1.273693 2.1902008,2.1902008 0 0 1 -0.515311,0.643756 2.1216291,2.1216291 0 0 1 -0.521964,0.325459 2.0638037,2.0638037 0 0 1 -1.646744,0 2.0817142,2.0817142 0 0 1 -0.672924,-0.466185 2.1625674,2.1625674 0 0 1 -0.454415,-0.694928 2.2137403,2.2137403 0 0 1 -0.163754,-0.743031 2.3232503,2.3232503 0 0 1 0.04043,-0.557785 2.2372798,2.2372798 0 0 1 0.318807,-0.783969 2.1748489,2.1748489 0 0 1 0.572113,-0.588488 2.1006482,2.1006482 0 0 1 0.654502,-0.302432 2.0648271,2.0648271 0 0 1 0.528105,-0.06857 z M 15.192072,37.898686 a 0.71130352,0.71130352 0 0 0 -0.05731,5.12e-4 c -1.174419,0.06141 -2.103719,1.061326 -2.103719,2.258773 0,1.236337 0.991219,2.263378 2.218858,2.263378 1.227638,0 2.222951,-1.027041 2.222951,-2.263378 0,-1.236338 -0.995313,-2.258773 -2.222951,-2.258773 z m 10.957656,0 a 0.72409675,0.72409675 0 0 0 -0.05783,5.12e-4 c -1.174418,0.06141 -2.108324,1.061326 -2.108324,2.258773 0,1.236337 0.995825,2.263378 2.223463,2.263378 1.22815,0 2.218858,-1.027041 2.218858,-2.263378 0,-1.236338 -0.99122,-2.258773 -2.218858,-2.258773 z m -10.89983,1.05928 c 0.641708,0 1.164183,0.522475 1.164183,1.200005 0,0.677529 -0.522475,1.20461 -1.164183,1.20461 -0.641709,0 -1.161114,-0.527081 -1.161114,-1.20461 0,-0.67753 0.519405,-1.200005 1.161114,-1.200005 z m 10.957144,0 c 0.641708,0 1.160602,0.522475 1.160602,1.200005 0,0.677529 -0.518894,1.20461 -1.160602,1.20461 -0.641708,0 -1.164695,-0.527081 -1.164695,-1.20461 0,-0.67753 0.522987,-1.200005 1.164695,-1.200005 z m 11.745719,1.12478 c -1.292116,0 -2.338602,1.080261 -2.338602,2.382611 0,1.302863 1.046486,2.383123 2.338602,2.383123 1.292628,0 2.338602,-1.079749 2.338602,-2.383123 0,-1.30235 -1.045974,-2.382611 -2.338602,-2.382611 z m 11.715016,0 c -1.292116,0 -2.338603,1.080261 -2.338603,2.382611 0,1.302863 1.046487,2.383123 2.338603,2.383123 1.292628,0 2.338601,-1.079749 2.338601,-2.383123 0,-1.30235 -1.045973,-2.382611 -2.338601,-2.382611 z m -11.747766,1.058256 0.03326,5.12e-4 c 0.706186,0 1.279323,0.580301 1.279323,1.323843 0,0.744054 -0.573137,1.324355 -1.279323,1.324355 -0.706186,0 -1.280346,-0.580301 -1.280346,-1.324355 0,-0.720514 0.537315,-1.289557 1.213821,-1.323843 a 0.38942588,0.38942588 0 0 1 0.03326,0 z m 11.714503,0 0.03377,5.12e-4 c 0.706187,0 1.279323,0.580301 1.279323,1.323843 0,0.744054 -0.573136,1.324355 -1.279323,1.324355 -0.706186,0 -1.280346,-0.580301 -1.280346,-1.324355 0,-0.720514 0.537316,-1.289557 1.213822,-1.323843 a 0.38737897,0.38737897 0 0 1 0.03275,0 z"
     id="path22"
     style="stroke-width:0.511729" />
  <path
     fill="#ffffff"
     d="m 22.398242,18.68121 a 1.3013272,1.3530119 0 0 0 -1.302351,1.350965 1.3013272,1.3530119 0 0 0 1.302351,1.356082 1.3013272,1.3530119 0 0 0 1.302351,-1.356082 1.3013272,1.3530119 0 0 0 -1.302351,-1.350965 z m 17.118875,0 a 1.3013272,1.3530119 0 0 0 -1.30235,1.350965 1.3013272,1.3530119 0 0 0 1.30235,1.356082 1.3013272,1.3530119 0 0 0 1.301328,-1.356082 1.3013272,1.3530119 0 0 0 -1.301328,-1.350965 z M 14.686484,38.807517 a 0.8320716,0.86328707 0 0 0 -0.83156,0.863287 0.8320716,0.86328707 0 0 0 0.832583,0.863799 0.8320716,0.86328707 0 0 0 0.832584,-0.863799 0.8320716,0.86328707 0 0 0 -0.832584,-0.863287 z m 11.063584,0.123839 a 0.8320716,0.86328707 0 0 0 -0.832072,0.863799 0.8320716,0.86328707 0 0 0 0.832584,0.863287 0.8320716,0.86328707 0 0 0 0.833607,-0.863287 0.8320716,0.86328707 0 0 0 -0.834119,-0.863799 z m 11.6009,2.090925 a 0.88989699,0.92315938 0 0 0 -0.890409,0.920601 0.88989699,0.92315938 0 0 0 0.890409,0.925206 0.88989699,0.92315938 0 0 0 0.890409,-0.925206 0.88989699,0.92315938 0 0 0 -0.890409,-0.920601 z m 11.896167,0.118721 a 0.88989699,0.92315938 0 0 0 -0.890408,0.92623 0.88989699,0.92315938 0 0 0 0.890408,0.921112 0.88989699,0.92315938 0 0 0 0.890409,-0.921112 0.88989699,0.92315938 0 0 0 -0.890409,-0.92623 z"
     id="path23"
     style="stroke-width:0.511729" />
</svg>
