<?xml version="1.0" encoding="UTF-8" standalone="no"?>
<svg
   width="64"
   height="64"
   viewBox="0 0 6.5536 6.5536"
   preserveAspectRatio="xMidYMid"
   version="1.1"
   id="svg1"
   sodipodi:docname="elementary_os.svg"
   inkscape:version="1.4 (e7c3feb100, 2024-10-09)"
   xmlns:inkscape="http://www.inkscape.org/namespaces/inkscape"
   xmlns:sodipodi="http://sodipodi.sourceforge.net/DTD/sodipodi-0.dtd"
   xmlns="http://www.w3.org/2000/svg"
   xmlns:svg="http://www.w3.org/2000/svg">
  <defs
     id="defs1" />
  <sodipodi:namedview
     id="namedview1"
     pagecolor="#ffffff"
     bordercolor="#000000"
     borderopacity="0.25"
     inkscape:showpageshadow="2"
     inkscape:pageopacity="0.0"
     inkscape:pagecheckerboard="0"
     inkscape:deskcolor="#d1d1d1"
     inkscape:zoom="0.2178"
     inkscape:cx="431.58861"
     inkscape:cy="1349.8623"
     inkscape:window-width="1342"
     inkscape:window-height="1269"
     inkscape:window-x="26"
     inkscape:window-y="23"
     inkscape:window-maximized="0"
     inkscape:current-layer="svg1" />
  <path
     d="M 3.2768,0 C 1.4670592,0 0,1.4670592 0,3.2768 0,5.0865408 1.4670592,6.5536 3.2768,6.5536 5.0865408,6.5536 6.5536,5.0865408 6.5536,3.2768 6.5536,1.4670592 5.0865408,0 3.2768,0 Z m 0,0.272896 c 1.3757952,0 2.5357824,0.924544 2.8913152,2.186112 C 5.862656,3.0909696 5.4261504,3.6597248 4.896,4.1198848 4.640896,4.3405824 4.362368,4.5374208 4.054784,4.6759936 3.7472512,4.8145664 3.4088192,4.8932096 3.071744,4.8740096 2.8189952,4.859264 2.5685504,4.7888128 2.3475968,4.6657024 2.9350656,4.3473664 3.4647552,3.9232768 3.8984448,3.4153728 4.1840128,3.0818304 4.4321024,2.7026688 4.5280768,2.2747904 4.5767424,2.0608768 4.5842432,1.8371072 4.539776,1.6222464 4.4953088,1.4073856 4.3960576,1.2032768 4.2457856,1.0431744 4.0990464,0.8873216 3.9064064,0.7763712 3.6999936,0.7197184 3.494016,0.6628608 3.2740096,0.6584064 3.0633216,0.6967808 2.642048,0.774016 2.265216,1.0188288 1.9639808,1.32288 1.4319616,1.8588928 1.103104,2.6153472 1.1634944,3.368064 1.1939328,3.7444352 1.3198592,4.1142528 1.5356416,4.42368 a 1.9792384,1.9792384 0 0 0 0.158208,0.1972992 4.8912896,4.8912896 0 0 1 -0.9713152,0.2333696 c -0.283904,-0.458752 -0.448,-0.999424 -0.448,-1.57824 0,-1.6594688 1.3444352,-3.003904 3.0034432,-3.003904 L 3.2768,0.2729216 Z m 0.018714,0.606208 c 0.2116096,0 0.4241152,0.0641536 0.59264,0.1919488 0.15168,0.114688 0.2644992,0.27712 0.32768,0.4563968 C 4.279732,1.706752 4.296116,1.9012352 4.274356,2.090368 4.23104,2.4683776 4.0402944,2.8150016 3.8099712,3.1178752 3.4020096,3.6538624 2.8596992,4.0828928 2.256768,4.3834112 A 5.0690048,5.0690048 0 0 1 2.0695296,4.471424 C 1.9384576,4.356736 1.8261248,4.2209792 1.7399808,4.0688384 1.5609344,3.7514752 1.501952,3.3748736 1.5363584,3.0123264 1.571456,2.6495232 1.6955136,2.3003136 1.8628608,1.9766016 2.0566528,1.601408 2.3209216,1.2463616 2.6907136,1.0420224 c 0.1849088,-0.102272 0.3939328,-0.16384 0.605056,-0.16384 l -2.56e-4,9.472e-4 z m 2.9580288,1.9946496 a 3.0373376,3.0373376 0 0 1 0.026906,0.4020992 c 0,1.659008 -1.3439488,3.003904 -3.0029568,3.003904 -0.9315336,0 -1.764788,-0.4241152 -2.314804,-1.0899968 C 1.302528,5.1124992 1.6348928,5.001344 1.953664,4.8601856 2.0934144,4.9659904 2.2471936,5.053056 2.4110336,5.115776 2.882176,5.2964864 3.417472,5.270272 3.8944768,5.1052544 4.3712512,4.9400064 4.7944192,4.6441728 5.1630592,4.2989312 A 5.4582272,5.4582272 0 0 0 6.25472,2.8735232 Z"
     fill="#333333"
     id="path1"
     style="stroke-width:0.0256" />
</svg>
