<?xml version="1.0" encoding="UTF-8" standalone="no"?>
<svg
   width="19.914394mm"
   height="16.933332mm"
   inkscape:version="1.4 (e7c3feb100, 2024-10-09)"
   sodipodi:docname="endeavouros.svg"
   version="1.1"
   viewBox="0 0 19.914394 16.933332"
   id="svg8"
   xmlns:inkscape="http://www.inkscape.org/namespaces/inkscape"
   xmlns:sodipodi="http://sodipodi.sourceforge.net/DTD/sodipodi-0.dtd"
   xmlns="http://www.w3.org/2000/svg"
   xmlns:svg="http://www.w3.org/2000/svg"
   xmlns:rdf="http://www.w3.org/1999/02/22-rdf-syntax-ns#"
   xmlns:cc="http://creativecommons.org/ns#"
   xmlns:dc="http://purl.org/dc/elements/1.1/">
  <defs
     id="defs8" />
  <sodipodi:namedview
     id="cvfa"
     bordercolor="#666666"
     borderopacity="1.0"
     inkscape:current-layer="g8"
     inkscape:cx="196.17572"
     inkscape:cy="181.83539"
     inkscape:document-rotation="0"
     inkscape:document-units="mm"
     inkscape:pageopacity="0.0"
     inkscape:pageshadow="2"
     inkscape:window-height="1269"
     inkscape:window-maximized="0"
     inkscape:window-width="1342"
     inkscape:window-x="26"
     inkscape:window-y="23"
     inkscape:zoom="1.743335"
     pagecolor="#ffffff"
     showgrid="false"
     inkscape:showpageshadow="2"
     inkscape:pagecheckerboard="0"
     inkscape:deskcolor="#d1d1d1" />
  <title
     id="title1">EndeavourOS Logo</title>
  <metadata
     id="metadata1">
    <rdf:RDF>
      <cc:Work
         rdf:about="">
        <dc:format>image/svg+xml</dc:format>
        <dc:type
           rdf:resource="http://purl.org/dc/dcmitype/StillImage" />
        <dc:title />
      </cc:Work>
    </rdf:RDF>
  </metadata>
  <g
     transform="translate(-66.5,-122)"
     inkscape:groupmode="layer"
     inkscape:label="Layer 1"
     id="g8">
    <g
       transform="matrix(0.39630166,0,0,0.40452976,128.48158,139.1328)"
       id="g3">
      <path
         d="m -127,-42.3 c 4.57,6.45 23.8,31.4 10.7,36.6 -6.12,2.81 -34,-1.65 -33.6,-0.921 -2,3.28 -3.59,5.92 -3.59,5.92 0,0 21.5,0.967 38.1,-1.27 23.7,-3.18 -4.88,-33.5 -11.6,-40.3 z"
         style="fill:#7f7fff;stroke-width:0.585"
         inkscape:connector-curvature="0"
         id="path1" />
      <path
         d="m -127,-42.3 c -1.52,0.209 -29.4,34.5 -29.4,34.5 0,0 2.01,0.57 6.58,1.23 1.48,-1.15 22.3,-36.2 22.9,-35.7 -0.0107,-0.0141 -0.028,-0.0193 -0.0522,-0.016 z"
         style="fill:#ff7f7f;stroke-width:0.585"
         inkscape:connector-curvature="0"
         id="path2" />
      <path
         d="m -127,-42.3 c -0.96,-0.156 -22.9,35.7 -22.9,35.7 0,0 19.9,2.1 28.1,1.96 23.1,-0.39 0.176,-30.6 -5.16,-37.7 -0.007,-0.007 -0.0151,-0.0108 -0.0248,-0.0124 z"
         style="fill:#7f3fbf;stroke-width:0.585"
         inkscape:connector-curvature="0"
         id="path3" />
    </g>
  </g>
</svg>
