<?xml version="1.0" encoding="UTF-8" standalone="no"?>
<svg
   viewBox="0 0 60.542 64"
   version="1.1"
   id="svg1"
   sodipodi:docname="kde.svg"
   width="60.542"
   height="64"
   inkscape:version="1.4 (e7c3feb100, 2024-10-09)"
   xmlns:inkscape="http://www.inkscape.org/namespaces/inkscape"
   xmlns:sodipodi="http://sodipodi.sourceforge.net/DTD/sodipodi-0.dtd"
   xmlns="http://www.w3.org/2000/svg"
   xmlns:svg="http://www.w3.org/2000/svg">
  <defs
     id="defs1" />
  <sodipodi:namedview
     id="namedview1"
     pagecolor="#ffffff"
     bordercolor="#000000"
     borderopacity="0.25"
     inkscape:showpageshadow="2"
     inkscape:pageopacity="0.0"
     inkscape:pagecheckerboard="0"
     inkscape:deskcolor="#d1d1d1"
     inkscape:zoom="22.6875"
     inkscape:cx="24.022039"
     inkscape:cy="24"
     inkscape:window-width="2560"
     inkscape:window-height="1300"
     inkscape:window-x="0"
     inkscape:window-y="0"
     inkscape:window-maximized="1"
     inkscape:current-layer="svg1" />
  <path
     d="M 35.287419,0 24.643734,1.0189284 V 44.846452 L 35.174855,43.260973 V 24.574915 L 49.330734,45.300217 60.428381,41.788759 45.933089,21.857092 60.541933,3.0576938 49.218173,0.45419467 35.175102,19.25281 Z M 11.160755,10.680048 c -0.120194,0.01265 -0.236268,0.06561 -0.326529,0.156216 l -4.1774204,4.176688 c -0.1756428,0.17616 -0.2087272,0.449273 -0.079239,0.662554 l 4.8908904,8.055272 c -0.867471,1.45836 -1.5627346,3.030766 -2.0596416,4.689483 l -8.97900107,1.86766 C 0.17999865,30.339658 0,30.561013 0,30.817372 v 5.906927 c 0,0.24985 0.17091166,0.466184 0.41163155,0.524356 L 9.1266708,39.37888 c 0.4647445,1.921084 1.1849212,3.742254 2.1367532,5.416088 l -5.04452,7.692337 c -0.1407422,0.215021 -0.1113259,0.498182 0.070513,0.67926 l 4.175937,4.176688 c 0.175644,0.175145 0.449829,0.20947 0.664017,0.08075 l 7.904835,-4.800822 c 1.552737,0.895996 3.227195,1.601126 4.997017,2.079294 l 1.844362,8.867686 C 25.92749,63.821522 26.1496,64 26.404309,64 h 5.907662 c 0.248359,0 0.465089,-0.169589 0.524366,-0.413133 l 2.172377,-8.885984 c 1.824373,-0.492352 3.54979,-1.2262 5.140505,-2.162931 l 7.789805,5.107612 c 0.214188,0.141081 0.497475,0.112804 0.67928,-0.06889 l 4.177422,-4.176663 c 0.176711,-0.176657 0.208359,-0.449804 0.07851,-0.662528 l -2.843742,-4.686579 -0.920017,0.290934 c -0.134118,0.0424 -0.280364,-0.0077 -0.359258,-0.124414 0,0 -1.813836,-2.655236 -4.156393,-6.083842 -2.800446,5.480696 -8.497829,9.235088 -15.077152,9.235088 -9.347618,0 -16.925902,-7.578566 -16.925902,-16.926641 0,-6.87672 4.101721,-12.790816 9.989838,-15.440096 v -4.366691 c -1.07164,0.374899 -2.107656,0.826924 -3.091625,1.362938 -7.19e-4,-6.58e-4 -0.0014,-0.0025 -0.0043,-0.005 l -7.973121,-5.229332 c -0.107373,-0.07016 -0.231839,-0.09817 -0.351986,-0.08581 z"
     fill="#1d99f3"
     id="path1"
     style="stroke-width:1.78064" />
</svg>
