<?xml version="1.0" encoding="UTF-8" standalone="no"?>
<svg
   height="64"
   viewBox="16.231 2.282 9.385361 9.2442016"
   width="63.716999"
   version="1.1"
   id="svg1"
   sodipodi:docname="nobara.svg"
   inkscape:version="1.4 (e7c3feb100, 2024-10-09)"
   xmlns:inkscape="http://www.inkscape.org/namespaces/inkscape"
   xmlns:sodipodi="http://sodipodi.sourceforge.net/DTD/sodipodi-0.dtd"
   xmlns="http://www.w3.org/2000/svg"
   xmlns:svg="http://www.w3.org/2000/svg">
  <defs
     id="defs1" />
  <sodipodi:namedview
     id="namedview1"
     pagecolor="#ffffff"
     bordercolor="#000000"
     borderopacity="0.25"
     inkscape:showpageshadow="2"
     inkscape:pageopacity="0.0"
     inkscape:pagecheckerboard="0"
     inkscape:deskcolor="#d1d1d1"
     inkscape:zoom="0.4826"
     inkscape:cx="464.15251"
     inkscape:cy="647.53419"
     inkscape:window-width="2560"
     inkscape:window-height="1300"
     inkscape:window-x="0"
     inkscape:window-y="0"
     inkscape:window-maximized="1"
     inkscape:current-layer="svg1" />
  <path
     d="m 17.51856,1.4089309 c -0.585693,0.04745 -1.090686,0.475848 -1.237293,1.049532 -0.05199,0.20358 -0.05287,0.27476 -0.04877,3.770469 l 0.004,3.315857 0.02666,0.116435 c 0.279739,1.2238211 1.86707,1.5404671 2.555872,0.5099741 0.740062,-1.1072381 2.461258,-0.6707861 2.565684,0.650723 0.0053,0.06737 0.0085,-0.266705 0.0077,-0.785026 l -0.0016,-0.9021941 -0.03149,-0.114826 c -0.17209,-0.626409 -0.649842,-1.003397 -1.339082,-1.056562 -0.511145,-0.03939 -0.833504,-0.291163 -0.938076,-0.732594 -0.04731,-0.199918 -0.03457,-1.275081 0.01802,-1.521428 0.27549,-1.288701 1.767478,-1.898269 2.862704,-1.169484 0.369959,0.246201 0.682358,0.682944 0.770233,1.076922 0.01406,0.06283 0.01772,0.06811 0.05711,0.0788 0.35004,0.09622 1.371891,0.392366 1.371745,0.397492 0,0.004 -0.307127,0.09461 -0.682504,0.201529 l -0.682356,0.194499 2.92e-4,3.055744 0.02695,0.123026 c 0.167258,0.7651071 0.860453,1.2305581 1.63215,1.0959611 0.578077,-0.100765 1.041623,-0.563872 1.140923,-1.1396061 0.03295,-0.190691 0.01962,-3.906823 -0.01493,-4.145992 -0.211597,-1.46724 -1.021373,-2.688425 -2.275803,-3.432002 -1.324437,-0.785173 -3.027618,-0.856207 -4.411226,-0.183955 l -0.140455,0.06811 -0.09022,-0.0952 c -0.291749,-0.308305 -0.704912,-0.461795 -1.146196,-0.426204 m 3.158847,3.916782 c -0.80758,0.185565 -1.006326,1.262486 -0.315474,1.709336 0.695831,0.449778 1.589089,-0.142213 1.446877,-0.959021 -0.08905,-0.511585 -0.624505,-0.866751 -1.131403,-0.750315"
     fill-rule="evenodd"
     id="path1"
     sodipodi:nodetypes="ccccccccccccccccccccccccccccccccc"
     style="stroke-width:0.146461" />
</svg>
