<?xml version="1.0" encoding="UTF-8" standalone="no"?>
<svg
   height="64"
   viewBox="670 0 64 64"
   width="64"
   version="1.1"
   id="svg13"
   sodipodi:docname="opencore.svg"
   inkscape:version="1.4 (e7c3feb100, 2024-10-09)"
   xmlns:inkscape="http://www.inkscape.org/namespaces/inkscape"
   xmlns:sodipodi="http://sodipodi.sourceforge.net/DTD/sodipodi-0.dtd"
   xmlns="http://www.w3.org/2000/svg"
   xmlns:svg="http://www.w3.org/2000/svg">
  <defs
     id="defs13" />
  <sodipodi:namedview
     id="namedview13"
     pagecolor="#ffffff"
     bordercolor="#000000"
     borderopacity="0.25"
     inkscape:showpageshadow="2"
     inkscape:pageopacity="0.0"
     inkscape:pagecheckerboard="0"
     inkscape:deskcolor="#d1d1d1"
     inkscape:zoom="1.9836066"
     inkscape:cx="274.24793"
     inkscape:cy="274.5"
     inkscape:window-width="2560"
     inkscape:window-height="1300"
     inkscape:window-x="0"
     inkscape:window-y="0"
     inkscape:window-maximized="1"
     inkscape:current-layer="svg13" />
  <linearGradient
     id="a"
     x1="365.71121"
     x2="129.32227"
     y1="265.71915"
     y2="368.81671"
     gradientUnits="userSpaceOnUse">
    <stop
       offset="0"
       stop-color="#2786d7"
       id="stop1" />
    <stop
       offset="1"
       stop-color="#096eb4"
       id="stop2" />
  </linearGradient>
  <linearGradient
     id="b"
     x1="96.961739"
     x2="399.08585"
     y1="46.629665"
     y2="290.90579"
     gradientTransform="scale(0.99997607,1.0000239)"
     gradientUnits="userSpaceOnUse">
    <stop
       offset="0"
       stop-color="#02addc"
       id="stop3" />
    <stop
       offset="1"
       stop-color="#08e4cc"
       id="stop4" />
  </linearGradient>
  <linearGradient
     id="c"
     x1="205.08257"
     x2="436.39746"
     y1="491.10403"
     y2="255.9073"
     gradientTransform="scale(0.99997607,1.0000239)"
     gradientUnits="userSpaceOnUse">
    <stop
       offset="0"
       stop-color="#0070ec"
       stop-opacity=".870766"
       id="stop5" />
    <stop
       offset=".614235364"
       stop-color="#0296e3"
       stop-opacity=".452524"
       id="stop6" />
    <stop
       offset="1"
       stop-color="#07dfd0"
       stop-opacity="0"
       id="stop7" />
  </linearGradient>
  <linearGradient
     id="d"
     x1="229.98851"
     x2="222.27843"
     y1="333.44611"
     y2="433.12262"
     gradientTransform="scale(0.99997607,1.0000239)"
     gradientUnits="userSpaceOnUse">
    <stop
       offset="0"
       stop-color="#0089e5"
       stop-opacity="0"
       id="stop8" />
    <stop
       offset="1"
       stop-color="#0070ed"
       stop-opacity=".809823"
       id="stop9" />
  </linearGradient>
  <g
     fill="none"
     transform="matrix(0.09838264,-0.09838264,0.09838264,0.09838264,656.74517,32.000022)"
     id="g13">
    <path
       d="M 229.99412,459.98792 C 102.97193,459.98792 1.0542e-4,357.01609 1.0542e-4,229.99391 1.0542e-4,102.97172 102.97193,-1.0359e-4 229.99412,-1.0359e-4 c 127.02218,0 229.99401,102.97182359 229.99401,229.99401359 0,127.02218 -102.97183,229.99401 -229.99401,229.99401 z m 0,-130.2 c 55.11471,0 99.79401,-44.6793 99.79401,-99.79401 0,-55.11471 -44.6793,-99.79401 -99.79401,-99.79401 -55.11471,0 -99.79402,44.6793 -99.79402,99.79401 0,55.11471 44.67931,99.79401 99.79402,99.79401 z"
       fill="url(#a)"
       id="path9"
       style="fill:url(#a)" />
    <g
       transform="translate(1.05e-4,-1.04e-4)"
       id="g12">
      <path
         d="m 459.75239,226.78434 c -1.26157,34.84291 -29.90567,62.70219 -65.05666,62.70219 -34.06509,0 -62.01911,-26.16458 -64.86196,-59.49365 l -0.0457,10e-4 c 0,-0.19631 -5.6e-4,-0.3925 -0.002,-0.58854 -0.1263,-1.65642 -0.1906,-3.33017 -0.1906,-5.01894 0,-0.19864 8.9e-4,-0.39707 0.003,-0.5953 C 326.39572,171.56573 283.02561,130.2 229.99401,130.2 c -55.11471,0 -112.36162,43.84361 -129.88266,107.86329 -26.261609,95.95663 50.96195,198.9142 129.84211,221.88418 0.0465,0.0135 0.0936,0.027 0.14136,0.0405 -0.0336,2e-5 -0.0672,2e-5 -0.10081,2e-5 C 102.97183,459.98802 0,357.0162 0,229.99401 0,102.97183 102.97183,0 229.99401,0 355.94281,0 458.246,101.23887 459.96601,226.77905 l -0.21362,0.005 z"
         fill="url(#b)"
         id="path10"
         style="fill:url(#b)" />
      <path
         d="m 459.75239,226.78434 c -1.26157,34.84291 -29.90567,62.70219 -65.05666,62.70219 -34.06509,0 -62.01911,-26.16458 -64.86196,-59.49365 l -0.0457,10e-4 c 0,-0.19631 -5.6e-4,-0.3925 -0.002,-0.58854 -0.1263,-1.65642 -0.1906,-3.33017 -0.1906,-5.01894 0,-0.19864 8.9e-4,-0.39707 0.003,-0.5953 C 326.39572,171.56573 283.02561,130.2 229.99401,130.2 c -55.11471,0 -112.36162,43.84361 -129.88266,107.86329 -26.261609,95.95663 50.96195,198.9142 129.84211,221.88418 0.0465,0.0135 0.0936,0.027 0.14136,0.0405 -0.0336,2e-5 -0.0672,2e-5 -0.10081,2e-5 C 102.97183,459.98802 0,357.0162 0,229.99401 0,102.97183 102.97183,0 229.99401,0 355.94281,0 458.246,101.23887 459.96601,226.77905 l -0.21362,0.005 z"
         fill="url(#c)"
         id="path11"
         style="fill:url(#c)" />
      <path
         d="m 459.75239,226.78434 c -1.26157,34.84291 -29.90567,62.70219 -65.05666,62.70219 -34.06509,0 -62.01911,-26.16458 -64.86196,-59.49365 l -0.0457,10e-4 c 0,-0.19631 -5.6e-4,-0.3925 -0.002,-0.58854 -0.1263,-1.65642 -0.1906,-3.33017 -0.1906,-5.01894 0,-0.19864 8.9e-4,-0.39707 0.003,-0.5953 C 326.39572,171.56573 283.02561,130.2 229.99401,130.2 c -55.11471,0 -112.36162,43.84361 -129.88266,107.86329 -26.261609,95.95663 50.96195,198.9142 129.84211,221.88418 0.0465,0.0135 0.0936,0.027 0.14136,0.0405 -0.0336,2e-5 -0.0672,2e-5 -0.10081,2e-5 C 102.97183,459.98802 0,357.0162 0,229.99401 0,102.97183 102.97183,0 229.99401,0 355.94281,0 458.246,101.23887 459.96601,226.77905 l -0.21362,0.005 z"
         fill="url(#d)"
         id="path12"
         style="fill:url(#d)" />
    </g>
  </g>
</svg>
