<?xml version="1.0" encoding="UTF-8" standalone="no"?>
<svg
   version="1.1"
   width="122.415"
   height="64"
   id="svg1"
   sodipodi:docname="xfce.svg"
   inkscape:version="1.4 (e7c3feb100, 2024-10-09)"
   xmlns:inkscape="http://www.inkscape.org/namespaces/inkscape"
   xmlns:sodipodi="http://sodipodi.sourceforge.net/DTD/sodipodi-0.dtd"
   xmlns="http://www.w3.org/2000/svg"
   xmlns:svg="http://www.w3.org/2000/svg">
  <defs
     id="defs1" />
  <sodipodi:namedview
     id="namedview1"
     pagecolor="#ffffff"
     bordercolor="#000000"
     borderopacity="0.25"
     inkscape:showpageshadow="2"
     inkscape:pageopacity="0.0"
     inkscape:pagecheckerboard="0"
     inkscape:deskcolor="#d1d1d1"
     inkscape:zoom="11.967033"
     inkscape:cx="87.991736"
     inkscape:cy="45.5"
     inkscape:window-width="2560"
     inkscape:window-height="1300"
     inkscape:window-x="0"
     inkscape:window-y="0"
     inkscape:window-maximized="1"
     inkscape:current-layer="svg1" />
  <path
     d="M 0.51866441,0.47583129 C 0.89836874,0.41231181 10.366275,5.4098829 16.730205,7.1369065 28.078282,10.036924 38.43687,18.765205 43.443604,23.779009 c 0.371235,0.429109 4.300257,-2.941658 8.412074,-2.698872 5.616519,0.340182 22.9954,5.226947 25.317383,1.899232 1.408011,-1.953576 1.307087,-4.350378 3.063748,-5.332107 0.945733,-0.264664 -3.515441,-8.4240936 1.225923,-11.0382729 3.380639,-1.6896177 6.24536,7.7698439 7.113457,8.8299129 0.38888,0.474279 2.451846,0.590025 2.207649,-0.490511 -0.264663,-1.173699 -3.601545,-10.250632 0.490511,-11.7736878 6.646237,-2.63182358 5.468306,11.6141828 5.641221,12.0192958 0.367706,0.862453 23.14714,1.527291 24.52834,11.773687 0.79893,5.639118 -18.24981,12.927625 -20.11304,14.226245 -1.862526,1.298621 -1.707256,3.375707 -0.98103,4.660918 0.83493,1.3939 6.38441,6.098575 5.64194,8.339401 -0.51028,1.294386 -10.867456,-3.449813 -11.528762,-2.452557 -1.50823,1.904878 7.539742,6.673074 4.415298,10.056545 -1.238626,0.810226 -15.489537,-5.966597 -15.453543,-5.886845 -0.382527,0.145389 -20.137031,3.608613 -35.320969,-0.981729 -0.534974,-0.151035 -9.745274,8.896962 -10.792637,8.585717 -1.432007,-0.525094 2.110959,-7.869358 1.717139,-9.321131 -0.643662,-0.808815 -6.529079,3.283957 -6.86785,1.226632 -0.405112,-2.703813 5.164826,-5.812032 4.905809,-7.603987 C 35.630023,37.636841 37.70781,31.692124 41.235955,26.722784 42.412473,24.893423 27.408507,13.56296 16.545998,9.0911891 5.684196,4.6194183 -0.12711531,0.82942303 0.51866441,0.47583129 Z"
     id="path14"
     style="fill:#020202;stroke:#000002;stroke-width:0.705771pt" />
  <path
     d="m 98.135395,34.513376 c -0.119276,-0.416405 7.412705,-4.972163 8.503125,-3.924797 1.96274,0.711418 -8.433961,4.453421 -8.503125,3.924797 z"
     id="path7"
     style="fill:#ffffff;stroke:#000000;stroke-width:0.423462pt" />
  <path
     d="m 101.73271,38.656258 c -0.66343,-0.400879 4.50916,-6.432406 5.77813,-5.778155 1.85265,1.840653 -5.86494,5.921426 -5.77813,5.778155 z"
     id="path8"
     style="fill:#ffffff;stroke:#000000;stroke-width:0.423462pt" />
  <path
     d="m 122.11888,10.747918 c -0.62884,-0.520154 -5.56006,7.260276 -4.46965,8.067679 0.65567,0.490512 4.75055,-7.79031 4.46965,-8.067679 z"
     id="path13"
     style="fill:#020202;stroke:#000000;stroke-width:0.423462pt" />
  <ellipse
     cx="99.815727"
     cy="21.88389"
     rx="1.9670081"
     ry="2.2395518"
     id="ellipse17"
     style="fill:#ffffff;stroke:#000000;stroke-width:0.393624pt" />
  <path
     d="m 116.45006,9.6577616 c -0.31125,-0.3613552 -1.96274,8.0232154 -1.19911,8.3944514 0.65566,0.490512 1.7976,-7.958284 1.19911,-8.3944514 z"
     id="path18"
     style="fill:#020202;stroke:#000000;stroke-width:0.423462pt" />
  <path
     d="m 95.400605,21.004902 c -1.955689,1.382607 1.073477,9.206795 6.055505,4.638333 -3.914198,0.115041 -5.219873,-1.031133 -6.055505,-4.638333 z"
     id="path21"
     style="fill:#ffffff;stroke:#000000;stroke-width:0.423462pt" />
</svg>
