<?xml version="1.0" encoding="UTF-8" standalone="no"?>
<svg
   version="1.1"
   viewBox="0 0 64 64"
   id="svg27"
   sodipodi:docname="code_kate.svg"
   width="64"
   height="64"
   inkscape:version="1.4 (e7c3feb100, 2024-10-09)"
   xmlns:inkscape="http://www.inkscape.org/namespaces/inkscape"
   xmlns:sodipodi="http://sodipodi.sourceforge.net/DTD/sodipodi-0.dtd"
   xmlns:xlink="http://www.w3.org/1999/xlink"
   xmlns="http://www.w3.org/2000/svg"
   xmlns:svg="http://www.w3.org/2000/svg">
  <defs
     id="defs27" />
  <sodipodi:namedview
     id="namedview27"
     pagecolor="#ffffff"
     bordercolor="#000000"
     borderopacity="0.25"
     inkscape:showpageshadow="2"
     inkscape:pageopacity="0.0"
     inkscape:pagecheckerboard="0"
     inkscape:deskcolor="#d1d1d1"
     inkscape:zoom="22.6875"
     inkscape:cx="24.022039"
     inkscape:cy="24"
     inkscape:window-width="2560"
     inkscape:window-height="1300"
     inkscape:window-x="0"
     inkscape:window-y="0"
     inkscape:window-maximized="1"
     inkscape:current-layer="svg27" />
  <title
     id="title1">Kate text editor logo</title>
  <linearGradient
     id="a">
    <stop
       stop-color="#2a7fff"
       offset="0"
       id="stop1" />
    <stop
       stop-color="#0cf"
       offset="1"
       id="stop2" />
  </linearGradient>
  <linearGradient
     id="b"
     x1="80.723297"
     x2="141.4052"
     y1="192.1563"
     y2="252.8381"
     gradientUnits="userSpaceOnUse">
    <stop
       stop-color="#0055d4"
       offset="0"
       id="stop3" />
    <stop
       stop-color="#06f"
       stop-opacity="0"
       offset="1"
       id="stop4" />
  </linearGradient>
  <linearGradient
     id="c"
     x1="61.163261"
     x2="64.927658"
     y1="105.1096"
     y2="109.0449"
     gradientUnits="userSpaceOnUse">
    <stop
       stop-color="#e6e6e6"
       offset="0"
       id="stop5" />
    <stop
       stop-color="#b3b3b3"
       offset="1"
       id="stop6" />
  </linearGradient>
  <linearGradient
     id="d"
     x1="77.166962"
     x2="64.371696"
     y1="115.7148"
     y2="112.0044"
     gradientUnits="userSpaceOnUse">
    <stop
       stop-color="#0cf"
       offset="0"
       id="stop7" />
    <stop
       stop-color="#2a7fff"
       offset="1"
       id="stop8" />
  </linearGradient>
  <linearGradient
     id="e"
     x1="68.7071"
     x2="75.81916"
     y1="113.0645"
     y2="117.9126"
     gradientUnits="userSpaceOnUse"
     xlink:href="#a" />
  <linearGradient
     id="f">
    <stop
       stop-color="#fff"
       offset="0"
       id="stop9" />
    <stop
       stop-color="#b3b3b3"
       offset="1"
       id="stop10" />
  </linearGradient>
  <linearGradient
     id="g"
     x1="77.401382"
     x2="68.670082"
     y1="106.368"
     y2="120.358"
     gradientUnits="userSpaceOnUse"
     xlink:href="#f" />
  <linearGradient
     id="h"
     x1="68.228661"
     x2="68.16433"
     y1="112.7317"
     y2="118.5546"
     gradientUnits="userSpaceOnUse">
    <stop
       stop-color="#b3b3b3"
       offset="0"
       id="stop11" />
    <stop
       stop-color="#fff"
       offset="1"
       id="stop12" />
  </linearGradient>
  <linearGradient
     id="i"
     x1="63.36673"
     x2="71.135643"
     y1="106.8649"
     y2="104.8897"
     gradientUnits="userSpaceOnUse"
     xlink:href="#f" />
  <linearGradient
     id="j"
     x1="66.951469"
     x2="66.335762"
     y1="104.461"
     y2="109.6676"
     gradientUnits="userSpaceOnUse">
    <stop
       stop-color="#ccc"
       offset="0"
       id="stop13" />
    <stop
       stop-color="#b3b3b3"
       offset="1"
       id="stop14" />
  </linearGradient>
  <linearGradient
     id="k"
     x1="62.960659"
     x2="77.488457"
     y1="115.8834"
     y2="107.3138"
     gradientUnits="userSpaceOnUse">
    <stop
       stop-color="#e6e6e6"
       offset="0"
       id="stop15" />
    <stop
       stop-color="#fff"
       offset="1"
       id="stop16" />
  </linearGradient>
  <linearGradient
     id="l"
     x1="220.3062"
     x2="54.439178"
     y1="207.9187"
     y2="42.05167"
     gradientTransform="matrix(0.4464822,0,0,0.4347945,59.66495,148.2602)"
     gradientUnits="userSpaceOnUse"
     xlink:href="#a" />
  <linearGradient
     id="m"
     x1="68.210472"
     x2="148.52049"
     y1="177.7513"
     y2="258.06131"
     gradientUnits="userSpaceOnUse">
    <stop
       stop-color="#59f"
       offset="0"
       id="stop17" />
    <stop
       stop-color="#06f"
       offset="1"
       id="stop18" />
  </linearGradient>
  <g
     transform="matrix(0.57335144,0,0,0.57335144,-29.742267,-92.535142)"
     id="g27">
    <circle
       cx="107.6866"
       cy="217.2056"
       r="55.812191"
       fill="url(#m)"
       stroke-width="0.046091"
       id="circle18"
       style="fill:url(#m)" />
    <ellipse
       cx="107.6866"
       cy="215.7446"
       rx="55.812191"
       ry="54.351181"
       fill="url(#l)"
       stroke-width="0.045484"
       id="ellipse18"
       style="fill:url(#l)" />
    <path
       d="m 104.4276,173.4388 c -3.17498,21.38886 -11.1964,24.89739 -26.92757,45.50887 l 4.506763,10.66624 38.212397,38.21262 a 55.81218,55.81218 0 0 0 43.27959,-50.62107 L 120.73762,174.4443 Z"
       fill="url(#b)"
       stroke-width="0.046091"
       id="path18"
       style="fill:url(#b)" />
    <g
       transform="matrix(4.547575,0,0,4.648984,-203.9438,-313.7877)"
       stroke-width="0.264583"
       id="g26">
      <path
         d="m 65.428762,109.91943 c -0.79474,-2.58086 -5.285936,-1.9546 -6.036655,-2.01063 0.842596,-0.40914 1.604061,-0.74639 3.341118,-1.97728 3.346321,-2.37122 6.889189,-1.85409 8.663362,-0.91242 -4.85033,0.18036 -3.926305,2.76518 -3.211896,4.12714 -0.908518,0.25814 -2.342683,0.64782 -2.755929,0.77319 z"
         fill="url(#c)"
         id="path19"
         style="fill:url(#c)" />
      <path
         d="m 77.401381,106.36805 c -1.746608,2.25673 -4.650524,5.30573 -7.828693,5.70736 -3.17817,0.40163 -6.208039,-0.0433 -6.909882,2.27202 -0.64633,2.1322 1.626883,4.12293 3.984589,3.64314 2.518769,-0.51257 1.974803,-3.30514 0.597137,-5.20681 1.046467,-0.0587 0.851808,-0.0435 2.626388,-0.131 2.645109,2.20549 3.521857,2.8343 8.143023,6.05209 -3.561162,-0.36484 -4.857257,-0.69982 -7.41144,-2.19429 0.661668,1.62462 2.075907,5.31186 2.382248,8.17285 -1.47315,-2.07065 -2.031632,-2.83161 -4.314667,-4.32544 -2.924418,-1.9135 -5.29286,-1.97828 -6.663677,-4.79745 -1.367857,-2.81308 0.442686,-4.83945 3.682518,-5.71701 4.629957,-1.2541 8.619281,-2.4431 11.712456,-3.47546 z"
         fill="url(#d)"
         id="path20"
         style="fill:url(#d)" />
      <path
         d="m 67.244532,112.78376 c 1.046467,-0.0587 0.851808,-0.0435 2.626388,-0.131 2.645109,2.20549 3.521857,2.8343 8.143023,6.05209 -4.644893,-0.32503 -8.159344,-1.66506 -10.769411,-5.92109 z"
         fill="url(#e)"
         id="path21"
         style="fill:url(#e)" />
      <path
         d="m 77.401381,106.36805 c -1.746608,2.25673 -4.650524,5.30573 -7.828693,5.70736 -3.17817,0.40163 -6.208039,-0.0433 -6.909882,2.27202 -0.64633,2.1322 1.626883,4.12293 3.984589,3.64314 2.518769,-0.51257 1.974803,-3.30514 0.597137,-5.20681 1.046467,-0.0587 0.851808,-0.0435 2.626388,-0.131 2.645109,2.20549 3.521857,2.8343 8.143023,6.05209 -3.561162,-0.36484 -4.857257,-0.69982 -7.41144,-2.19429 0.661668,1.62462 2.075907,5.31186 2.382248,8.17285 -1.47315,-2.07065 -2.031632,-2.83161 -4.314667,-4.32544 -2.924418,-1.9135 -5.29286,-1.97828 -6.663677,-4.79745 -1.367857,-2.81308 0.442686,-4.83945 3.682518,-5.71701 4.629957,-1.2541 8.619281,-2.4431 11.712456,-3.47546 z"
         fill="url(#g)"
         id="path22"
         style="fill:url(#g)" />
      <path
         d="m 67.244532,112.78376 c 1.046467,-0.0587 0.851808,-0.0435 2.626388,-0.131 2.645109,2.20549 3.521857,2.8343 8.143023,6.05209 -4.644893,-0.32503 -8.159344,-1.66506 -10.769411,-5.92109 z"
         fill="url(#h)"
         id="path23"
         style="fill:url(#h)" />
      <path
         d="m 59.392107,107.9088 c 0.842596,-0.40914 1.604061,-0.74639 3.341118,-1.97728 3.346321,-2.37122 6.889189,-1.85409 8.663362,-0.91242 -4.85033,0.18036 -4.225378,1.1257 -4.243278,1.86679 -3.222572,-0.66446 -4.163494,0.2396 -7.761202,1.02291 z"
         fill="url(#i)"
         id="path24"
         style="fill:url(#i)" />
      <path
         d="m 71.396587,105.0191 c -4.85033,0.18036 -3.926305,2.76518 -3.211896,4.12714 -0.566006,0.16082 -1.179475,0.34403 -1.936109,0.53991 -3.052938,-5.32116 2.656266,-6.01341 5.148005,-4.66705 z"
         fill="url(#j)"
         id="path25"
         style="fill:url(#j)" />
      <path
         d="m 62.8798,116.8861 c -2.373486,-2.98949 -1.93525,-5.72962 2.712379,-7.1533 4.586439,-1.40494 8.716028,-2.33243 11.8092,-3.36479 -8.347338,3.11114 -18.79984,5.18999 -14.521579,10.51809 z"
         fill="url(#k)"
         id="path26"
         style="fill:url(#k)" />
    </g>
  </g>
</svg>
