<?xml version="1.0" encoding="UTF-8" standalone="no"?>
<svg
   height="64"
   width="64"
   version="1.1"
   id="svg13"
   sodipodi:docname="code_sublime_text.svg"
   inkscape:version="1.4 (e7c3feb100, 2024-10-09)"
   xmlns:inkscape="http://www.inkscape.org/namespaces/inkscape"
   xmlns:sodipodi="http://sodipodi.sourceforge.net/DTD/sodipodi-0.dtd"
   xmlns="http://www.w3.org/2000/svg"
   xmlns:svg="http://www.w3.org/2000/svg">
  <defs
     id="defs13" />
  <sodipodi:namedview
     id="namedview13"
     pagecolor="#ffffff"
     bordercolor="#000000"
     borderopacity="0.25"
     inkscape:showpageshadow="2"
     inkscape:pageopacity="0.0"
     inkscape:pagecheckerboard="0"
     inkscape:deskcolor="#d1d1d1"
     inkscape:zoom="22.6875"
     inkscape:cx="24.022039"
     inkscape:cy="24"
     inkscape:window-width="2560"
     inkscape:window-height="1300"
     inkscape:window-x="0"
     inkscape:window-y="0"
     inkscape:window-maximized="1"
     inkscape:current-layer="svg13" />
  <linearGradient
     id="a"
     gradientUnits="userSpaceOnUse"
     x1="23"
     x2="37"
     y1="20"
     y2="34"
     gradientTransform="matrix(1.6,0,0,1.6,-6.4,-6.4)">
    <stop
       offset="0"
       stop-color="#292c2f"
       id="stop1" />
    <stop
       offset="1"
       stop-opacity="0"
       id="stop2" />
  </linearGradient>
  <linearGradient
     id="b"
     gradientUnits="userSpaceOnUse"
     x1="44"
     x2="4"
     y1="44"
     y2="4"
     gradientTransform="matrix(1.6,0,0,1.6,-6.4,-6.4)">
    <stop
       offset="0"
       stop-color="#172525"
       id="stop3" />
    <stop
       offset="1"
       stop-color="#536161"
       id="stop4" />
  </linearGradient>
  <linearGradient
     id="c"
     gradientTransform="matrix(3.2685864,-10.929364,9.2510939,3.7813006,33.950581,49.044499)"
     gradientUnits="userSpaceOnUse"
     x1="24"
     x2="24"
     y1="35"
     y2="13">
    <stop
       offset="0"
       stop-color="#cd7223"
       id="stop5" />
    <stop
       offset=".53"
       stop-color="#f48e00"
       id="stop6" />
    <stop
       offset="1"
       stop-color="#ffa92d"
       id="stop7" />
  </linearGradient>
  <linearGradient
     id="d"
     gradientUnits="userSpaceOnUse"
     x1="27"
     x2="25.42725"
     y1="28"
     y2="32.71825"
     gradientTransform="matrix(1.6,0,0,1.6,-6.4,-6.4)">
    <stop
       offset="0"
       stop-color="#b1621e"
       id="stop8" />
    <stop
       offset="1"
       stop-color="#ffa21d"
       id="stop9" />
  </linearGradient>
  <rect
     fill="url(#b)"
     height="64"
     ry="1.6"
     width="64"
     x="0"
     y="0"
     id="rect9"
     style="fill:url(#b);stroke-width:1.6" />
  <path
     d="M 19.2,49.6 32,62.4 H 64 V 33.6 L 44.8,14.4 V 24 l -11.2,3.733333 11.2,3.733334 v 9.6 z"
     fill="url(#a)"
     opacity="0.4"
     id="path9"
     style="fill:url(#a);stroke-width:1.6" />
  <path
     d="m 19.2,40 25.6,-8.533333 v 9.6 L 19.2,49.6 Z"
     fill="url(#d)"
     id="path10"
     style="fill:url(#d);stroke-width:1.6" />
  <path
     d="M 0,3.2 V 1.6 C 0,0.7135888 0.7135936,0 1.6,0 H 62.4 C 63.286406,0 64,0.7135888 64,1.6 V 3.2 C 64,2.3135888 63.286406,1.6 62.4,1.6 H 1.6 C 0.7135936,1.6 0,2.3135888 0,3.2 Z"
     fill="#ffffff"
     opacity="0.184"
     id="path11"
     style="stroke-width:1.6" />
  <path
     d="m 0,60.8 v 1.6 C 0,63.286411 0.7135936,64 1.6,64 h 60.8 c 0.886406,0 1.6,-0.713589 1.6,-1.6 v -1.6 c 0,0.886411 -0.713594,1.6 -1.6,1.6 H 1.6 C 0.7135936,62.4 0,61.686411 0,60.8 Z"
     opacity="0.481"
     id="path12"
     style="stroke-width:1.6" />
  <path
     d="m 44.8,14.4 -25.6,8.534374 v 9.6 l 25.6,8.531252 v -9.6 L 33.6,27.734374 44.8,24 Z"
     fill="url(#c)"
     id="path13"
     style="fill:url(#c);stroke-width:1.6" />
</svg>
