<?xml version="1.0" encoding="UTF-8" standalone="no"?>
<svg
   version="1.1"
   width="70.237"
   height="64"
   id="svg4"
   sodipodi:docname="code_atom.svg"
   inkscape:version="1.4 (e7c3feb100, 2024-10-09)"
   xmlns:inkscape="http://www.inkscape.org/namespaces/inkscape"
   xmlns:sodipodi="http://sodipodi.sourceforge.net/DTD/sodipodi-0.dtd"
   xmlns="http://www.w3.org/2000/svg"
   xmlns:svg="http://www.w3.org/2000/svg">
  <defs
     id="defs4" />
  <sodipodi:namedview
     id="namedview4"
     pagecolor="#ffffff"
     bordercolor="#000000"
     borderopacity="0.25"
     inkscape:showpageshadow="2"
     inkscape:pageopacity="0.0"
     inkscape:pagecheckerboard="0"
     inkscape:deskcolor="#d1d1d1"
     inkscape:zoom="9.075"
     inkscape:cx="65.454545"
     inkscape:cy="60"
     inkscape:window-width="2560"
     inkscape:window-height="1300"
     inkscape:window-x="0"
     inkscape:window-y="0"
     inkscape:window-maximized="1"
     inkscape:current-layer="svg4" />
  <path
     d="M 55.719586,15.535127 C 56.853746,9.7626918 56.219492,5.381809 53.538692,3.6408773 52.645092,3.0605668 51.573752,2.8066258 50.36801,2.852401 43.857004,3.0995868 33.351244,12.064528 24.767694,25.282036 c -10.173096,15.665194 -13.788339,31.364825 -8.0693,35.07881 2.714745,1.762976 7.040669,0.513235 11.927801,-2.969368"
     style="fill:none;stroke:#66595c;stroke-width:2.68417;stroke-linecap:round"
     id="path1" />
  <path
     d="M 60.93695,41.152219 C 65.765442,39.2791 68.734499,36.715272 68.888818,33.770738 69.245706,26.960912 54.425819,20.656384 35.77281,19.678821 c -1.748719,-0.09165 -3.468269,-0.139869 -5.15026,-0.134208 -16.259246,0.05472 -28.9508507,4.514964 -29.2742804,10.68637 -0.1540136,2.938755 2.5233839,5.78836 7.1130629,8.153181"
     style="fill:none;stroke:#66595c;stroke-width:2.68417;stroke-linecap:round"
     id="path2" />
  <path
     d="M 30.505117,5.385591 C 27.201502,2.6445704 24.10312,1.1726267 21.613789,1.3593288 20.951007,1.4090381 20.338037,1.5723766 19.768418,1.8626116 13.692492,4.9584509 15.633518,20.969707 24.113426,37.612464 32.593334,54.255223 44.39274,65.234953 50.468667,62.139112 56.311795,59.161889 54.734714,44.242239 47.06312,28.301733"
     style="fill:none;stroke:#66595c;stroke-width:2.68417;stroke-linecap:round"
     id="path3" />
  <path
     d="m 39.362894,32.479103 a 4.0262621,4.0262621 0 0 1 -8.052524,0 4.0262621,4.0262621 0 1 1 8.052524,0 z"
     style="fill:#66595c;stroke-width:0.536835"
     id="path4" />
</svg>
