<?xml version="1.0" encoding="UTF-8" standalone="no"?>
<!-- Created with Inkscape (http://www.inkscape.org/) -->

<svg
   version="1.1"
   width="106.667"
   height="64"
   id="svg6976"
   sodipodi:docname="Calligra-logo.svg"
   inkscape:version="1.4 (e7c3feb100, 2024-10-09)"
   xmlns:inkscape="http://www.inkscape.org/namespaces/inkscape"
   xmlns:sodipodi="http://sodipodi.sourceforge.net/DTD/sodipodi-0.dtd"
   xmlns="http://www.w3.org/2000/svg"
   xmlns:svg="http://www.w3.org/2000/svg"
   xmlns:rdf="http://www.w3.org/1999/02/22-rdf-syntax-ns#"
   xmlns:cc="http://creativecommons.org/ns#"
   xmlns:dc="http://purl.org/dc/elements/1.1/">
  <sodipodi:namedview
     id="namedview1"
     pagecolor="#ffffff"
     bordercolor="#000000"
     borderopacity="0.25"
     inkscape:showpageshadow="2"
     inkscape:pageopacity="0.0"
     inkscape:pagecheckerboard="0"
     inkscape:deskcolor="#d1d1d1"
     inkscape:zoom="4.5275471"
     inkscape:cx="151.73779"
     inkscape:cy="94.642858"
     inkscape:window-width="2560"
     inkscape:window-height="1300"
     inkscape:window-x="0"
     inkscape:window-y="0"
     inkscape:window-maximized="1"
     inkscape:current-layer="svg6976" />
  <defs
     id="defs6978" />
  <metadata
     id="metadata6981">
    <rdf:RDF>
      <cc:Work
         rdf:about="">
        <dc:format>image/svg+xml</dc:format>
        <dc:type
           rdf:resource="http://purl.org/dc/dcmitype/StillImage" />
        <dc:title />
      </cc:Work>
    </rdf:RDF>
  </metadata>
  <g
     transform="matrix(0.37629641,0,0,0.37629641,43.687896,-88.60405)"
     id="layer1">
    <path
       d="m -20.517293,235.46345 c -41.313981,0 -74.792418,32.51134 -74.792418,72.6319 0,40.12058 33.478437,72.66317 74.792418,72.66317 28.802964,0 53.790034,-15.82861 66.296204,-39.00371 -8.67747,0.51626 -10.40483,-2.66656 -15.12583,3.46908 -11.65345,15.10464 -30.24322,24.87737 -51.170374,24.87737 -35.268035,0 -63.850326,-27.75664 -63.850326,-62.00591 0,-34.24926 28.582291,-62.00589 63.850326,-62.00589 1.831341,0 3.646678,0.10335 5.438866,0.25002 v 77.69489 c 0,7.08728 3.65641,7.09433 7.30546,7.09443 h 7.273268 c -3.88414,0 -7.273268,-3.61505 -7.273268,-10.62602 v -73.1632 c 3.782178,0.74237 7.434348,1.79635 10.942088,3.15655 v 73.53824 c 0,7.08728 3.6564,7.09443 7.30545,7.09443 h 7.27327 c -3.88413,0 -7.27327,-3.61505 -7.27327,-10.62602 v -66.63133 c 3.9334,2.1225 7.60591,4.61765 10.97428,7.46946 4.18808,4.40777 11.36445,2.46899 17.31425,2.46899 -13.6832,-17.23385 -35.13878,-28.34645 -59.280394,-28.34645 z m 42.320144,38.9412 c -0.21906,-0.002 -0.35051,0.022 -0.38619,0.0313 v 7.06317 c 0.28539,-0.0743 7.27329,0.0192 7.27328,3.56283 v -7.09442 c 10e-6,-3.10069 -5.35362,-3.54994 -6.88709,-3.56284 v -6e-5 z m -55.128831,0.0313 v 8.87584 c -4.579199,-3.34842 -10.270167,-5.34426 -16.445317,-5.34426 -15.119954,0 -27.355234,11.91308 -27.355234,26.59627 0,14.68321 12.23528,26.59629 27.355234,26.59629 6.17515,0 11.866118,-2.02489 16.445317,-5.37551 v -1.75017 c 0,7.08728 3.656414,7.09443 7.305456,7.09443 h 7.273277 c -3.884141,0 -7.273277,-3.61504 -7.273277,-10.62601 v -42.72282 c 0,-2.88427 -3.824799,-3.11374 -7.305456,-3.34406 z m 131.433841,0 c -3.48065,0.23032 -7.30546,0.49104 -7.30546,3.37532 v 42.69156 c 0,7.01097 -1.71878,10.62601 -3.66882,10.62601 h 3.66882 c 3.64905,0 7.30546,-0.007 7.30546,-7.09443 v -33.78446 c 4.027279,-4.35235 9.846699,-7.09442 16.348779,-7.09442 0.33305,0 0.66814,0.0172 0.99765,0.0313 -1.82294,-1.44124 -3.47023,-3.09249 -4.85957,-4.93797 -4.6359,0.63887 -8.90522,2.40075 -12.486859,5.00047 v -8.81333 -6e-5 z m 54.678279,0 v 8.84459 c -4.56939,-3.3234 -10.23136,-5.31301 -16.38095,-5.31301 -15.11996,0 -27.35523,11.91308 -27.35523,26.59627 0,14.68321 12.23527,26.59629 27.35523,26.59629 6.17515,0 11.86612,-2.02489 16.44531,-5.37551 v -0.21877 c 0.50759,5.54463 3.84655,5.56303 7.20891,5.56303 h 7.30546 c -3.88414,0 -7.30546,-3.61504 -7.30546,-10.62601 v -42.72282 c 0,-2.88427 -3.79261,-3.11374 -7.27327,-3.34406 z m -89.435509,3.53158 c -15.11996,0 -27.35523,11.91308 -27.35523,26.59627 0,14.68321 12.23527,26.59629 27.35523,26.59629 3.70319,0 7.21168,-0.75382 10.42717,-2.06269 -9.82062,41.75886 -48.32037,72.91318 -94.295094,72.91318 -48.334112,0 -88.410577,-34.42667 -95.582397,-79.4138 7.2125,46.94188 48.90482,82.94536 99.251217,82.94536 55.421204,0 100.345424,-43.62647 100.345424,-97.44675 l 0.0322,-1.78142 v -10.40724 c -3.48066,0.23032 -7.30546,0.45979 -7.30546,3.34407 v 7.06317 l -0.0322,1.78142 c 0,4.93861 -0.36976,9.79981 -1.12639,14.53264 -3.39396,2.07403 -7.41204,3.31282 -11.71447,3.31282 -12.16972,0 -22.01292,-9.55891 -22.01292,-21.37705 0,-11.81821 9.8432,-21.40827 22.01292,-21.40827 3.24046,0 6.33263,0.68171 9.10768,1.90642 0.41451,0.18295 0.82262,0.35601 1.22294,0.56256 0.37265,0.19172 0.77186,0.31253 1.22294,0.31253 1.47524,0 2.67115,-1.16137 2.67115,-2.594 0,-0.99772 -0.59774,-1.84752 -1.44821,-2.28146 -3.81577,-1.96569 -8.15546,-3.09405 -12.7765,-3.09405 z m -113.121928,5.188 c 6.531179,0 12.409803,2.77281 16.445317,7.15693 v 28.47145 c -4.035708,4.38823 -9.910617,7.15694 -16.445317,7.15694 -12.16972,0 -22.012915,-9.55891 -22.012915,-21.37705 0,-11.81821 9.843195,-21.40827 22.012915,-21.40827 z m 186.176487,0 c 6.49788,0 12.34734,2.74904 16.38095,7.09442 v 28.59647 c -4.0338,4.35019 -9.87888,7.09443 -16.38095,7.09443 -12.16972,0 -22.01292,-9.55891 -22.01292,-21.37705 0,-11.81821 9.8432,-21.40827 22.01292,-21.40827 z m -114.988529,5.43802 v 35.44086 c 0,7.08728 3.62424,7.09443 7.27328,7.09443 h 7.30546 c -3.88415,0 -7.30546,-3.61504 -7.30546,-10.62601 v -28.3777 c 10e-6,-3.54374 -3.62422,-3.53158 -7.27328,-3.53158 z"
       id="rect4362"
       style="fill:#000000;fill-opacity:1;stroke:none" />
  </g>
</svg>
