<?xml version="1.0" encoding="UTF-8" standalone="no"?>
<svg
   id="Layer_1"
   data-name="Layer 1"
   viewBox="0 0 98.337001 64"
   version="1.1"
   sodipodi:docname="mariadb.svg"
   width="98.336998"
   height="64"
   inkscape:version="1.4 (e7c3feb100, 2024-10-09)"
   xmlns:inkscape="http://www.inkscape.org/namespaces/inkscape"
   xmlns:sodipodi="http://sodipodi.sourceforge.net/DTD/sodipodi-0.dtd"
   xmlns="http://www.w3.org/2000/svg"
   xmlns:svg="http://www.w3.org/2000/svg">
  <sodipodi:namedview
     id="namedview8"
     pagecolor="#ffffff"
     bordercolor="#000000"
     borderopacity="0.25"
     inkscape:showpageshadow="2"
     inkscape:pageopacity="0.0"
     inkscape:pagecheckerboard="0"
     inkscape:deskcolor="#d1d1d1"
     inkscape:zoom="2.1622718"
     inkscape:cx="432.41556"
     inkscape:cy="109.3757"
     inkscape:window-width="2560"
     inkscape:window-height="1300"
     inkscape:window-x="0"
     inkscape:window-y="0"
     inkscape:window-maximized="1"
     inkscape:current-layer="Layer_1" />
  <defs
     id="defs1">
    <style
       id="style1">.cls-1{fill:#003545;}</style>
  </defs>
  <title
     id="title1">MDB-HLogo_RGB</title>
  <path
     class="cls-1"
     d="M 97.885734,0.32791993 A 1.4231382,1.4231382 0 0 0 96.930432,7.617167e-4 c -0.948759,0 -2.175602,0.6543164133 -2.83319,0.9814746133 C 93.982737,1.0443964 93.894404,1.0901985 93.832244,1.1163712 A 8.9379621,8.9379621 0 0 1 90.295664,2.025871 C 89.032833,2.06513 87.943396,2.1403764 86.533344,2.2875976 78.131922,3.16111 74.40559,9.5734106 70.803578,15.789416 c -1.962949,3.376273 -3.984787,6.870323 -6.76236,9.579193 a 17.967528,17.967528 0 0 1 -1.828814,1.550729 c -2.872449,2.139615 -6.481004,3.654358 -9.301108,4.73398 -2.702327,1.030548 -5.653294,1.96295 -8.506113,2.859363 -2.617266,0.821167 -5.074224,1.599804 -7.34143,2.4406 -1.024005,0.379504 -1.894246,0.654317 -2.659796,0.925858 -2.064369,0.687032 -3.55621,1.184313 -5.728541,2.672882 -0.847339,0.57907 -1.697951,1.207214 -2.290107,1.681594 a 24.033042,24.033042 0 0 0 -4.531141,4.783053 28.338443,28.338443 0 0 1 -3.795035,4.580214 c -0.458022,0.448207 -1.272646,0.654317 -2.492946,0.654317 -1.429681,0 -3.16362,-0.294443 -4.998977,-0.605243 C 8.6795071,51.318798 6.7231011,50.99164 5.0480511,50.99164 c -1.3642497,0 -2.4046128,0.219196 -3.1865209,0.673946 0,0 -1.30863284,0.76555 -1.8615302,1.753568 l 0.54308262,0.245368 a 11.355661,11.355661 0 0 1 2.32282328,1.658692 11.578129,11.578129 0 0 0 2.4111559,1.717581 2.1625157,2.1625157 0 0 1 0.7426491,0.494009 C 5.7907002,57.861962 5.4537272,58.303625 5.103668,58.764919 3.1668914,61.297123 2.0381956,62.896927 2.6859688,63.767167 a 1.9923935,1.9923935 0 0 0 0.9814746,0.232283 c 4.2203409,0 6.4842756,-1.099252 9.3534526,-2.486403 0.830982,-0.402404 1.688137,-0.817895 2.669611,-1.243201 1.67505,-0.726291 3.480964,-1.884431 5.391568,-3.114546 2.532204,-1.635791 5.14947,-3.307569 7.684946,-4.122193 a 20.938125,20.938125 0 0 1 6.448288,-0.906228 c 2.692512,0 5.506072,0.359874 8.228029,0.709933 2.031652,0.258455 4.132008,0.526725 6.193104,0.654316 0.801538,0.04907 1.544187,0.07197 2.263935,0.07197 a 25.256613,25.256613 0 0 0 2.888807,-0.153764 l 0.229011,-0.07852 c 1.446039,-0.88987 2.123257,-2.797203 2.780845,-4.639103 0.422034,-1.187585 0.775365,-2.254121 1.32499,-2.944424 a 0.91277138,0.91277138 0 0 1 0.111234,-0.0916 0.13086328,0.13086328 0 0 1 0.163579,0.02944 c 0,0 0,0.01636 0,0.04907 -0.346788,7.21711 -3.238866,11.794054 -6.176747,15.863902 l -1.962949,2.103627 c 0,0 2.744857,0 4.305402,-0.601971 5.699096,-1.704495 10.004498,-5.460271 13.135402,-11.450537 a 48.883979,48.883979 0 0 0 2.06764,-4.724165 c 0.05235,-0.134135 0.549625,-0.382775 0.500552,0.310801 0,0.206109 -0.02944,0.431848 -0.0458,0.654316 v 0 c 0,0.140678 -0.01963,0.284628 -0.02617,0.428577 -0.08179,0.981475 -0.327158,3.130904 -0.327158,3.130904 l 1.760111,-0.942215 c 4.253056,-2.689241 7.524639,-8.093894 9.997955,-16.511675 1.033819,-3.507137 1.789555,-6.991371 2.456958,-10.063387 0.798266,-3.673986 1.488569,-6.847421 2.290107,-8.074264 1.236658,-1.926962 3.124361,-3.229052 4.949904,-4.491882 l 0.74592,-0.51691 c 2.290103,-1.6128803 4.58021,-3.4744105 5.084034,-6.9422874 v -0.078518 c 0.39259,-2.535476 0.08179,-3.19633554 -0.26827,-3.50059267 z"
     id="path8"
     style="stroke-width:0.327158" />
</svg>
