<?xml version="1.0" encoding="UTF-8" standalone="no"?>
<svg
   id="Layer_1"
   viewBox="0 0 5.1190162 7.68"
   width="42.667"
   height="64"
   version="1.1"
   sodipodi:docname="graphics_figma.svg"
   inkscape:version="1.4 (e7c3feb100, 2024-10-09)"
   xmlns:inkscape="http://www.inkscape.org/namespaces/inkscape"
   xmlns:sodipodi="http://sodipodi.sourceforge.net/DTD/sodipodi-0.dtd"
   xmlns="http://www.w3.org/2000/svg"
   xmlns:svg="http://www.w3.org/2000/svg">
  <defs
     id="defs1" />
  <sodipodi:namedview
     id="namedview1"
     pagecolor="#ffffff"
     bordercolor="#000000"
     borderopacity="0.25"
     inkscape:showpageshadow="2"
     inkscape:pageopacity="0.0"
     inkscape:pagecheckerboard="0"
     inkscape:deskcolor="#d1d1d1"
     inkscape:zoom="0.4356"
     inkscape:cx="833.33333"
     inkscape:cy="1250"
     inkscape:window-width="2560"
     inkscape:window-height="1300"
     inkscape:window-x="0"
     inkscape:window-y="0"
     inkscape:window-maximized="1"
     inkscape:current-layer="Layer_1" />
  <style
     type="text/css"
     id="style1">.st0{fill:#0acf83}.st1{fill:#a259ff}.st2{fill:#f24e1e}.st3{fill:#ff7262}.st4{fill:#1abcfe}</style>
  <title
     id="title1">Figma.logo</title>
  <desc
     id="desc1">Created using Figma</desc>
  <path
     id="path0_fill"
     class="st0"
     d="m 1.26001,7.68006 c 0.7065655,0 1.28001,-0.5734445 1.28001,-1.28001 V 5.12004 H 1.26001 c -0.70656552,0 -1.28001,0.5734445 -1.28001,1.28001 0,0.7065655 0.57344448,1.28001 1.28001,1.28001 z"
     style="stroke-width:0.0256002" />
  <path
     id="path1_fill"
     class="st1"
     d="m -0.02,3.84003 c 0,-0.7065655 0.57344448,-1.28001 1.28001,-1.28001 H 2.54002 V 5.12004 H 1.26001 C 0.55344448,5.12004 -0.02,4.5465955 -0.02,3.84003 Z"
     style="stroke-width:0.0256002" />
  <path
     id="path1_fill_1_"
     class="st2"
     d="M -0.02,1.28001 C -0.02,0.57344448 0.55344448,0 1.26001,0 H 2.54002 V 2.56002 H 1.26001 C 0.55344448,2.56002 -0.02,1.9865755 -0.02,1.28001 Z"
     style="stroke-width:0.0256002" />
  <path
     id="path2_fill"
     class="st3"
     d="m 2.54002,0 h 1.28001 c 0.7065655,0 1.28001,0.57344448 1.28001,1.28001 0,0.7065655 -0.5734445,1.28001 -1.28001,1.28001 H 2.54002 Z"
     style="stroke-width:0.0256002" />
  <path
     id="path3_fill"
     class="st4"
     d="m 5.10004,3.84003 c 0,0.7065655 -0.5734445,1.28001 -1.28001,1.28001 -0.7065655,0 -1.28001,-0.5734445 -1.28001,-1.28001 0,-0.7065655 0.5734445,-1.28001 1.28001,-1.28001 0.7065655,0 1.28001,0.5734445 1.28001,1.28001 z"
     style="stroke-width:0.0256002" />
</svg>
