<?xml version="1.0" encoding="UTF-8" standalone="no"?>
<svg
   xml:space="preserve"
   viewBox="0 0 65.640999 64"
   version="1.1"
   id="svg2"
   sodipodi:docname="adobe_illustrator.svg"
   width="65.640999"
   height="64"
   inkscape:version="1.4 (e7c3feb100, 2024-10-09)"
   xmlns:inkscape="http://www.inkscape.org/namespaces/inkscape"
   xmlns:sodipodi="http://sodipodi.sourceforge.net/DTD/sodipodi-0.dtd"
   xmlns="http://www.w3.org/2000/svg"
   xmlns:svg="http://www.w3.org/2000/svg"><defs
   id="defs2" /><sodipodi:namedview
   id="namedview2"
   pagecolor="#ffffff"
   bordercolor="#000000"
   borderopacity="0.25"
   inkscape:showpageshadow="2"
   inkscape:pageopacity="0.0"
   inkscape:pagecheckerboard="0"
   inkscape:deskcolor="#d1d1d1"
   inkscape:zoom="4.6538462"
   inkscape:cx="119.90083"
   inkscape:cy="117"
   inkscape:window-width="2560"
   inkscape:window-height="1300"
   inkscape:window-x="0"
   inkscape:window-y="0"
   inkscape:window-maximized="1"
   inkscape:current-layer="svg2" />
  <path
   fill="#330000"
   d="m 11.623932,0 h 42.393162 c 6.42735,0 11.623932,5.1965812 11.623932,11.623932 V 52.376068 C 65.641026,58.803419 60.444444,64 54.017094,64 H 11.623932 C 5.1965812,64 0,58.803419 0,52.376068 V 11.623932 C 0,5.1965812 5.1965812,0 11.623932,0 Z"
   id="path1"
   style="stroke-width:0.273504" />
  <path
   fill="#ff9a00"
   d="M 31.726496,38.290598 H 21.552137 l -2.078633,6.427351 c -0.0547,0.246154 -0.273504,0.410256 -0.519658,0.382906 h -5.14188 c -0.300855,0 -0.382906,-0.164103 -0.300855,-0.492308 l 8.806838,-25.353846 c 0.08205,-0.273504 0.164102,-0.574359 0.273504,-0.902564 0.109402,-0.574359 0.164103,-1.176069 0.164103,-1.777778 -0.02735,-0.136752 0.08205,-0.273504 0.218803,-0.300855 h 7.083761 c 0.218803,0 0.328205,0.08205 0.355555,0.218804 l 9.982906,28.17094 c 0.08205,0.300855 0,0.437607 -0.273504,0.437607 H 34.406838 C 34.215385,45.128205 34.023932,44.991453 33.969231,44.8 Z m -8.588034,-5.552136 h 6.947008 c -0.164102,-0.574359 -0.382906,-1.25812 -0.62906,-1.969231 -0.246154,-0.738462 -0.492307,-1.531624 -0.738461,-2.352137 -0.273505,-0.847863 -0.519658,-1.668376 -0.793163,-2.516239 -0.273504,-0.847864 -0.519658,-1.641026 -0.738461,-2.434188 -0.218804,-0.765812 -0.410257,-1.476923 -0.60171,-2.133334 h -0.0547 C 26.283761,22.509402 25.982906,23.68547 25.6,24.861538 c -0.410256,1.312821 -0.820513,2.680342 -1.25812,4.047864 -0.382906,1.394872 -0.793162,2.680342 -1.203418,3.82906 z M 46.495726,21.059829 c -0.902564,0.02735 -1.777777,-0.328205 -2.434188,-0.957265 -0.629059,-0.683761 -0.957264,-1.586325 -0.929914,-2.516239 -0.02735,-0.929915 0.328205,-1.805128 0.984615,-2.434188 0.656411,-0.62906 1.531624,-0.957265 2.434188,-0.957265 1.066667,0 1.88718,0.328205 2.488889,0.957265 0.60171,0.65641 0.929915,1.531624 0.902564,2.434188 0.02735,0.929914 -0.300854,1.832478 -0.957265,2.516239 -0.629059,0.65641 -1.558974,1.011966 -2.488889,0.957265 z M 43.432479,44.8 V 23.740171 c 0,-0.273504 0.109401,-0.382906 0.355555,-0.382906 h 5.415385 c 0.246154,0 0.355555,0.136752 0.355555,0.382906 V 44.8 c 0,0.300855 -0.109401,0.437607 -0.355555,0.437607 h -5.360684 c -0.273504,0 -0.410256,-0.164103 -0.410256,-0.437607 z"
   id="path2"
   style="stroke-width:0.273504" />
</svg>
