<?xml version="1.0" encoding="UTF-8" standalone="no"?>
<svg
   width="70.723999"
   height="64"
   viewBox="0 0 70.723999 64"
   version="1.1"
   id="svg8"
   sodipodi:docname="sketch.svg"
   inkscape:version="1.4 (e7c3feb100, 2024-10-09)"
   xmlns:inkscape="http://www.inkscape.org/namespaces/inkscape"
   xmlns:sodipodi="http://sodipodi.sourceforge.net/DTD/sodipodi-0.dtd"
   xmlns="http://www.w3.org/2000/svg"
   xmlns:svg="http://www.w3.org/2000/svg">
  <defs
     id="defs8" />
  <sodipodi:namedview
     id="namedview8"
     pagecolor="#ffffff"
     bordercolor="#000000"
     borderopacity="0.25"
     inkscape:showpageshadow="2"
     inkscape:pageopacity="0.0"
     inkscape:pagecheckerboard="0"
     inkscape:deskcolor="#d1d1d1"
     inkscape:zoom="3.0589888"
     inkscape:cx="197.12397"
     inkscape:cy="178"
     inkscape:window-width="2560"
     inkscape:window-height="1300"
     inkscape:window-x="0"
     inkscape:window-y="0"
     inkscape:window-maximized="1"
     inkscape:current-layer="svg8" />
  <!-- Generator: Sketch 53.2 (72643) - https://sketchapp.com -->
  <title
     id="title1">sketch-symbol</title>
  <desc
     id="desc1">Created with Sketch.</desc>
  <g
     id="Page-1"
     stroke="none"
     stroke-width="1"
     fill="none"
     fill-rule="evenodd"
     transform="scale(0.17986467)">
    <g
       id="sketch-symbol"
       fill-rule="nonzero">
      <polygon
         id="Path"
         fill="#fdb300"
         points="393.20565,126.88108 196.60282,355.82301 0,126.88108 85.790323,11.715155 196.60282,0 307.41532,11.715155 " />
      <g
         id="Group"
         transform="translate(0,126.88108)">
        <polygon
           id="polygon1"
           fill="#ea6c00"
           points="79.634,0 196.603,228.942 0,0 " />
        <polygon
           id="polygon2"
           fill="#ea6c00"
           transform="matrix(-1,0,0,1,589.80794,0)"
           points="276.23647,0 393.20547,228.942 196.60247,0 " />
        <polygon
           id="polygon3"
           fill="#fdad00"
           points="79.634,0 313.572,0 196.603,228.942 " />
      </g>
      <g
         id="g8">
        <polygon
           id="polygon4"
           fill="#fdd231"
           points="196.603,0 85.79,11.715 79.634,126.881 " />
        <polygon
           id="polygon5"
           fill="#fdd231"
           transform="matrix(-1,0,0,1,510.17379,0)"
           points="313.5714,0 202.7584,11.715 196.6024,126.881 " />
        <polygon
           id="polygon6"
           fill="#fdad00"
           transform="matrix(-1,0,0,1,700.62094,0)"
           points="307.41497,126.881 393.20597,11.715 387.04897,126.881 " />
        <polygon
           id="polygon7"
           fill="#fdad00"
           points="0,126.881 85.79,11.715 79.634,126.881 " />
        <polygon
           id="polygon8"
           fill="#feeeb7"
           points="196.603,0 79.634,126.881 313.572,126.881 " />
      </g>
    </g>
  </g>
</svg>
