<?xml version="1.0" encoding="UTF-8" standalone="no"?>
<svg
   height="64"
   width="64"
   version="1.1"
   id="svg11"
   sodipodi:docname="others_sublime_merge.svg"
   inkscape:version="1.4 (e7c3feb100, 2024-10-09)"
   xmlns:inkscape="http://www.inkscape.org/namespaces/inkscape"
   xmlns:sodipodi="http://sodipodi.sourceforge.net/DTD/sodipodi-0.dtd"
   xmlns:xlink="http://www.w3.org/1999/xlink"
   xmlns="http://www.w3.org/2000/svg"
   xmlns:svg="http://www.w3.org/2000/svg">
  <defs
     id="defs11">
    <linearGradient
       inkscape:collect="always"
       xlink:href="#c"
       id="linearGradient11"
       gradientUnits="userSpaceOnUse"
       gradientTransform="matrix(3.2685864,-10.929364,9.2510939,3.7813006,33.950581,49.044499)"
       x1="24"
       y1="35"
       x2="24"
       y2="13" />
    <linearGradient
       inkscape:collect="always"
       xlink:href="#c"
       id="linearGradient12"
       gradientUnits="userSpaceOnUse"
       gradientTransform="matrix(3.2685864,-10.929364,9.2510939,3.7813006,33.950581,49.044499)"
       x1="24"
       y1="35"
       x2="24"
       y2="13" />
  </defs>
  <sodipodi:namedview
     id="namedview11"
     pagecolor="#ffffff"
     bordercolor="#000000"
     borderopacity="0.25"
     inkscape:showpageshadow="2"
     inkscape:pageopacity="0.0"
     inkscape:pagecheckerboard="0"
     inkscape:deskcolor="#d1d1d1"
     inkscape:zoom="22.6875"
     inkscape:cx="24.022039"
     inkscape:cy="24"
     inkscape:window-width="2560"
     inkscape:window-height="1300"
     inkscape:window-x="0"
     inkscape:window-y="0"
     inkscape:window-maximized="1"
     inkscape:current-layer="svg11" />
  <linearGradient
     id="a"
     gradientUnits="userSpaceOnUse"
     x1="23"
     x2="37"
     y1="20"
     y2="34"
     gradientTransform="matrix(1.6,0,0,1.6,-6.4,-6.4)">
    <stop
       offset="0"
       stop-color="#292c2f"
       id="stop1" />
    <stop
       offset="1"
       stop-opacity="0"
       id="stop2" />
  </linearGradient>
  <linearGradient
     id="b"
     gradientUnits="userSpaceOnUse"
     x1="44"
     x2="4"
     y1="44"
     y2="4"
     gradientTransform="matrix(1.6,0,0,1.6,-6.4,-6.4)">
    <stop
       offset="0"
       stop-color="#172525"
       id="stop3" />
    <stop
       offset="1"
       stop-color="#536161"
       id="stop4" />
  </linearGradient>
  <linearGradient
     id="c"
     gradientTransform="matrix(2.0428665,-6.8308524,5.7819337,2.3633129,25.219113,34.652812)"
     gradientUnits="userSpaceOnUse"
     x1="24"
     x2="24"
     y1="35"
     y2="13">
    <stop
       offset="0"
       stop-color="#23a2cd"
       id="stop5" />
    <stop
       offset=".53"
       stop-color="#00b8f5"
       id="stop6" />
    <stop
       offset="1"
       stop-color="#2ecbff"
       id="stop7" />
  </linearGradient>
  <rect
     fill="url(#b)"
     height="64"
     ry="1.6"
     width="64"
     x="0"
     y="0"
     id="rect7"
     style="fill:url(#b);stroke-width:1.6" />
  <path
     d="M 21.28,46.496403 37.183597,62.4 H 64 V 47.2 L 48.8,32 44.0528,36.7472 h -9.01001 z"
     fill="url(#a)"
     opacity="0.4"
     id="path7"
     style="fill:url(#a);stroke-width:1.6" />
  <path
     d="M 0,3.2 V 1.6 C 0,0.7135888 0.7135936,0 1.6,0 H 62.4 C 63.286406,0 64,0.7135888 64,1.6 V 3.2 C 64,2.3135888 63.286406,1.6 62.4,1.6 H 1.6 C 0.7135936,1.6 0,2.3135888 0,3.2 Z"
     fill="#ffffff"
     opacity="0.184"
     id="path8"
     style="stroke-width:1.6" />
  <path
     d="m 0,60.8 v 1.6 C 0,63.286411 0.7135936,64 1.6,64 h 60.8 c 0.886406,0 1.6,-0.713589 1.6,-1.6 v -1.6 c 0,0.886411 -0.713594,1.6 -1.6,1.6 H 1.6 C 0.7135936,62.4 0,61.686411 0,60.8 Z"
     opacity="0.481"
     id="path9"
     style="stroke-width:1.6" />
  <path
     d="M 31.475965,36.161902 16.16,25.313717 l 5.12,-7.809 15.315965,10.848185 z"
     fill="url(#c)"
     opacity="0.61157"
     id="path10"
     style="fill:url(#linearGradient12);stroke-width:1.6" />
  <path
     d="M 32.301544,27.2528 H 44.0528 L 48.8,32 44.0528,36.7472 H 35.04279 L 21.28,46.496403 16.16,38.687051 25.6,32 Z"
     fill="url(#c)"
     id="path11"
     style="fill:url(#linearGradient11);stroke-width:1.6" />
</svg>
