<?xml version="1.0" encoding="UTF-8" standalone="no"?>
<svg
   width="62.980999"
   height="64"
   viewBox="0 0 62.980999 64"
   version="1.1"
   id="svg10"
   sodipodi:docname="others_github_desktop.svg"
   inkscape:version="1.4 (e7c3feb100, 2024-10-09)"
   xmlns:inkscape="http://www.inkscape.org/namespaces/inkscape"
   xmlns:sodipodi="http://sodipodi.sourceforge.net/DTD/sodipodi-0.dtd"
   xmlns:xlink="http://www.w3.org/1999/xlink"
   xmlns="http://www.w3.org/2000/svg"
   xmlns:svg="http://www.w3.org/2000/svg">
  <sodipodi:namedview
     id="namedview10"
     pagecolor="#ffffff"
     bordercolor="#000000"
     borderopacity="0.25"
     inkscape:showpageshadow="2"
     inkscape:pageopacity="0.0"
     inkscape:pagecheckerboard="0"
     inkscape:deskcolor="#d1d1d1"
     inkscape:zoom="4.2539063"
     inkscape:cx="94.501377"
     inkscape:cy="99.790634"
     inkscape:window-width="2560"
     inkscape:window-height="1300"
     inkscape:window-x="0"
     inkscape:window-y="0"
     inkscape:window-maximized="1"
     inkscape:current-layer="svg10" />
  <defs
     id="defs5">
    <circle
       id="b"
       cx="64"
       cy="64"
       r="56" />
    <filter
       x="-0.051785714"
       y="-0.051785714"
       width="1.1035714"
       height="1.1214286"
       filterUnits="objectBoundingBox"
       id="a">
      <feMorphology
         radius="1"
         operator="dilate"
         in="SourceAlpha"
         result="shadowSpreadOuter1"
         id="feMorphology1" />
      <feOffset
         dy="2"
         in="shadowSpreadOuter1"
         result="shadowOffsetOuter1"
         id="feOffset1" />
      <feGaussianBlur
         stdDeviation="2"
         in="shadowOffsetOuter1"
         result="shadowBlurOuter1"
         id="feGaussianBlur1" />
      <feComposite
         in="shadowBlurOuter1"
         in2="SourceAlpha"
         operator="out"
         result="shadowBlurOuter1"
         id="feComposite1" />
      <feColorMatrix
         values="0 0 0 0 0 0 0 0 0 0 0 0 0 0 0 0 0 0 0.240942029 0"
         in="shadowBlurOuter1"
         id="feColorMatrix1" />
    </filter>
    <linearGradient
       x1="64"
       y1="8"
       x2="64"
       y2="120"
       id="c"
       gradientUnits="userSpaceOnUse"
       gradientTransform="matrix(0.50955412,0,0,0.50955412,-1.121019,-1.121019)">
      <stop
         stop-color="#FEFEFE"
         offset="0%"
         id="stop1" />
      <stop
         stop-color="#E0E0E0"
         offset="100%"
         id="stop2" />
    </linearGradient>
    <circle
       id="d"
       cx="64"
       cy="63"
       r="52" />
    <linearGradient
       x1="63.225571"
       y1="114.88854"
       x2="63.225571"
       y2="12.146984"
       id="g"
       gradientTransform="scale(1.0122487,0.98789956)"
       gradientUnits="userSpaceOnUse">
      <stop
         stop-color="#492779"
         offset="0%"
         id="stop3" />
      <stop
         stop-color="#892793"
         offset="100%"
         id="stop4" />
    </linearGradient>
    <path
       d="m 12,64.034 c 0,23.025 14.885,42.472 35.555,49.367 2.6,0.456 3.575,-1.105 3.575,-2.47 0,-1.237 -0.065,-5.334 -0.065,-9.692 C 38,103.644 34.62,98.05 33.58,95.124 c -0.585,-1.496 -3.12,-6.114 -5.33,-7.35 -1.82,-0.976 -4.42,-3.382 -0.065,-3.447 4.095,-0.065 7.02,3.772 7.995,5.333 4.68,7.87 12.155,5.66 15.145,4.293 0.455,-3.382 1.82,-5.66 3.315,-6.96 -11.57,-1.3 -23.66,-5.788 -23.66,-25.69 0,-5.66 2.015,-10.343 5.33,-13.985 -0.52,-1.3 -2.34,-6.634 0.52,-13.79 0,0 4.355,-1.365 14.3,5.334 4.16,-1.17 8.58,-1.756 13,-1.756 4.42,0 8.84,0.586 13,1.756 9.945,-6.764 14.3,-5.333 14.3,-5.333 2.86,7.154 1.04,12.487 0.52,13.788 3.315,3.642 5.33,8.26 5.33,13.984 0,19.968 -12.155,24.39 -23.725,25.692 1.885,1.626 3.51,4.748 3.51,9.626 0,6.96 -0.065,12.553 -0.065,14.31 0,1.365 0.975,2.99 3.575,2.47 C 101.115,106.507 116,86.995 116,64.035 116,35.284 92.73,12 64,12 35.27,12 12,35.285 12,64.034 Z"
       id="e" />
    <filter
       x="0"
       y="0"
       width="1"
       height="1.0098524"
       filterUnits="objectBoundingBox"
       id="f">
      <feOffset
         dy="1"
         in="SourceAlpha"
         result="shadowOffsetOuter1"
         id="feOffset4" />
      <feColorMatrix
         values="0 0 0 0 1 0 0 0 0 1 0 0 0 0 1 0 0 0 0.529296875 0"
         in="shadowOffsetOuter1"
         id="feColorMatrix4" />
    </filter>
    <filter
       x="-0.023076923"
       y="-0.023645708"
       width="1.0461538"
       height="1.0472914"
       filterUnits="objectBoundingBox"
       id="h">
      <feGaussianBlur
         stdDeviation="1"
         in="SourceAlpha"
         result="shadowBlurInner1"
         id="feGaussianBlur4" />
      <feOffset
         in="shadowBlurInner1"
         result="shadowOffsetInner1"
         id="feOffset5" />
      <feComposite
         in="shadowOffsetInner1"
         in2="SourceAlpha"
         operator="arithmetic"
         k2="-1"
         k3="1"
         result="shadowInnerInner1"
         id="feComposite5"
         k1="0"
         k4="0" />
      <feColorMatrix
         values="0 0 0 0 0.258823529 0 0 0 0 0.137254902 0 0 0 0 0.431372549 0 0 0 0.703549592 0"
         in="shadowInnerInner1"
         id="feColorMatrix5" />
    </filter>
  </defs>
  <use
     fill="#000000"
     filter="url(#a)"
     xlink:href="#b"
     id="use5"
     style="fill-rule:evenodd"
     transform="matrix(0.50955412,0,0,0.50955412,-1.121019,-1.121019)" />
  <use
     stroke-opacity="0.5"
     stroke="#bababa"
     stroke-width="2"
     fill-opacity="0"
     fill="#ffffff"
     xlink:href="#b"
     id="use6"
     style="fill-rule:evenodd"
     transform="matrix(0.50955412,0,0,0.50955412,-1.121019,-1.121019)" />
  <circle
     fill="url(#c)"
     cx="31.490446"
     cy="31.490448"
     r="28.53503"
     id="circle6"
     style="fill:url(#c);fill-rule:evenodd;stroke-width:0.509554" />
  <g
     id="g9"
     style="fill:none;fill-rule:evenodd"
     transform="matrix(0.50955412,0,0,0.50955412,-1.121019,-1.121019)">
    <use
       fill="#000000"
       filter="url(#f)"
       xlink:href="#e"
       id="use7" />
    <use
       fill="url(#g)"
       xlink:href="#e"
       id="use8"
       style="fill:url(#g)" />
    <use
       fill="#000000"
       filter="url(#h)"
       xlink:href="#e"
       id="use9" />
  </g>
</svg>
