<?xml version="1.0" encoding="UTF-8" standalone="no"?>
<svg
   viewBox="-2.1472187 -3.5527137e-15 1.4091396 1.836288"
   width="50.828999"
   height="64"
   version="1.1"
   id="svg3"
   sodipodi:docname="sourcetree.svg"
   inkscape:version="1.4 (e7c3feb100, 2024-10-09)"
   xmlns:inkscape="http://www.inkscape.org/namespaces/inkscape"
   xmlns:sodipodi="http://sodipodi.sourceforge.net/DTD/sodipodi-0.dtd"
   xmlns="http://www.w3.org/2000/svg"
   xmlns:svg="http://www.w3.org/2000/svg">
  <defs
     id="defs3" />
  <sodipodi:namedview
     id="namedview3"
     pagecolor="#ffffff"
     bordercolor="#000000"
     borderopacity="0.25"
     inkscape:showpageshadow="2"
     inkscape:pageopacity="0.0"
     inkscape:pagecheckerboard="0"
     inkscape:deskcolor="#d1d1d1"
     inkscape:zoom="0.4356"
     inkscape:cx="1104.2241"
     inkscape:cy="701.3315"
     inkscape:window-width="2560"
     inkscape:window-height="1300"
     inkscape:window-x="0"
     inkscape:window-y="0"
     inkscape:window-maximized="1"
     inkscape:current-layer="svg3" />
  <linearGradient
     id="a"
     gradientUnits="userSpaceOnUse"
     x1="42.66"
     x2="42.66"
     y1="50.349998"
     y2="20.139999"
     gradientTransform="matrix(0.02559975,0,0,0.02559975,-2.1708136,1.5460512e-6)">
    <stop
       offset=".18"
       stop-color="#0052cc"
       id="stop1" />
    <stop
       offset="1"
       stop-color="#2684ff"
       id="stop2" />
  </linearGradient>
  <path
     d="M -0.71470039,0.72805837 A 0.72805683,0.72805683 0 0 0 -1.4427571,1.5455132e-6 0.72780083,0.72780083 0 0 0 -1.6680349,1.4202756 v 0.3647963 a 0.05119949,0.05119949 0 0 0 0.051201,0.051199 h 0.3455966 a 0.05119949,0.05119949 0 0 0 0.0512,-0.051199 V 1.4207875 A 0.72831282,0.72831282 0 0 0 -0.71418739,0.72780237 Z M -1.4427571,0.97381594 a 0.24601358,0.24601358 0 1 1 0,-0.49202715 0.24614158,0.24614158 0 0 1 0,0.49228315 z"
     fill="#2684ff"
     id="path2"
     style="stroke-width:0.0255998" />
  <path
     d="M -1.4427571,1.5455132e-6 V 0.4820448 a 0.24614158,0.24614158 0 0 1 0,0.49228314 0.22527777,0.22527777 0 0 1 0.2252778,0.22527766 V 1.4207875 A 0.72805683,0.72805683 0 0 0 -1.4430131,1.5455132e-6 Z"
     fill="url(#a)"
     id="path3"
     style="fill:url(#a);stroke-width:0.0255998" />
</svg>
