<?xml version="1.0" encoding="UTF-8" standalone="no"?>
<!-- Generator: Adobe Illustrator 26.0.2, SVG Export Plug-In . SVG Version: 6.00 Build 0)  -->

<svg
   version="1.1"
   id="svg1"
   x="0px"
   y="0px"
   viewBox="0 0 74.847 64.000002"
   xml:space="preserve"
   sodipodi:docname="virtualbox.svg"
   width="74.847"
   height="64"
   inkscape:version="1.4 (e7c3feb100, 2024-10-09)"
   xmlns:inkscape="http://www.inkscape.org/namespaces/inkscape"
   xmlns:sodipodi="http://sodipodi.sourceforge.net/DTD/sodipodi-0.dtd"
   xmlns="http://www.w3.org/2000/svg"
   xmlns:svg="http://www.w3.org/2000/svg"><defs
   id="defs1" /><sodipodi:namedview
   id="namedview1"
   pagecolor="#ffffff"
   bordercolor="#000000"
   borderopacity="0.25"
   inkscape:showpageshadow="2"
   inkscape:pageopacity="0.0"
   inkscape:pagecheckerboard="0"
   inkscape:deskcolor="#d1d1d1"
   inkscape:zoom="2.4874373"
   inkscape:cx="256.08686"
   inkscape:cy="218.89999"
   inkscape:window-width="2560"
   inkscape:window-height="1300"
   inkscape:window-x="0"
   inkscape:window-y="0"
   inkscape:window-maximized="1"
   inkscape:current-layer="svg1" />
<style
   type="text/css"
   id="style1">
	.st0{fill:#F29111;}
	.st1{fill:#00758A;}
</style>
<g
   id="g1"
   transform="scale(0.14618547)">
	<path
   id="path19"
   class="st0"
   d="M 330.6,0 279.4,176.3 H 512 V 63.3 C 512,44.6 504,27.7 491.2,16.2 485.8,11.3 479.7,7.4 473.1,4.7 465.7,1.6 457,0 449,0 Z m 45,60 h 74.2 c 1.3,0 2.4,1.1 2.4,2.4 0,0 0,0 0,0 v 54 h -92.9 z" />
	<path
   id="path17"
   class="st1"
   d="m 0,0 110.6,389.9 c 2.8,9.7 5.3,14.8 9,20.2 1.3,2 2.8,3.8 4.3,5.6 3.7,4.4 7.9,8.1 12.6,11.2 5.2,3.5 10.4,6.1 16.3,8 6.9,2.2 13,2.9 21.2,2.9 h 92.3 l 40.9,-141.4 h 145 v 79 c 0,1.3 -1.1,2.4 -2.4,2.4 v 0 H 345.7 l -17.4,60 h 120.6 c 16.4,0 30.6,-5.8 41.6,-15.5 13.2,-11.6 21.5,-28 21.5,-47.7 V 236.4 H 262 L 221.1,377.8 H 169.4 L 79.3,60 h 62.3 l 33,116.3 h 62.2 L 186.8,0 Z" />
</g>
</svg>
