<?xml version="1.0" encoding="UTF-8" standalone="no"?>
<svg
   width="62.926998"
   height="64"
   version="1.0"
   id="svg20"
   sodipodi:docname="gnome_boxes.svg"
   inkscape:version="1.4 (e7c3feb100, 2024-10-09)"
   xmlns:inkscape="http://www.inkscape.org/namespaces/inkscape"
   xmlns:sodipodi="http://sodipodi.sourceforge.net/DTD/sodipodi-0.dtd"
   xmlns:xlink="http://www.w3.org/1999/xlink"
   xmlns="http://www.w3.org/2000/svg"
   xmlns:svg="http://www.w3.org/2000/svg">
  <sodipodi:namedview
     id="namedview20"
     pagecolor="#ffffff"
     bordercolor="#000000"
     borderopacity="0.25"
     inkscape:showpageshadow="2"
     inkscape:pageopacity="0.0"
     inkscape:pagecheckerboard="0"
     inkscape:deskcolor="#d1d1d1"
     inkscape:zoom="8.5078125"
     inkscape:cx="63.94123"
     inkscape:cy="64"
     inkscape:window-width="2560"
     inkscape:window-height="1300"
     inkscape:window-x="0"
     inkscape:window-y="0"
     inkscape:window-maximized="1"
     inkscape:current-layer="svg20" />
  <defs
     id="defs3">
    <linearGradient
       id="a">
      <stop
         offset="0"
         stop-color="#fff"
         id="stop1" />
      <stop
         offset=".4"
         stop-color="#fff"
         id="stop2" />
      <stop
         offset="1"
         stop-color="#f6f5f4"
         id="stop3" />
    </linearGradient>
    <radialGradient
       xlink:href="#a"
       id="i"
       gradientUnits="userSpaceOnUse"
       gradientTransform="matrix(4,0,0,4,-492.799,-641.952)"
       cx="134.2"
       cy="222.98801"
       fx="134.2"
       fy="222.98801"
       r="2" />
    <radialGradient
       xlink:href="#a"
       id="h"
       gradientUnits="userSpaceOnUse"
       gradientTransform="matrix(4,0,0,4,-492.799,-681.952)"
       cx="134.2"
       cy="222.98801"
       fx="134.2"
       fy="222.98801"
       r="2" />
    <radialGradient
       xlink:href="#a"
       id="g"
       gradientUnits="userSpaceOnUse"
       gradientTransform="matrix(6,0,0,6,-785.198,-1065.928)"
       cx="134.2"
       cy="222.98801"
       fx="134.2"
       fy="222.98801"
       r="2" />
    <radialGradient
       xlink:href="#a"
       id="f"
       cx="134.2"
       cy="222.98801"
       fx="134.2"
       fy="222.98801"
       r="2"
       gradientUnits="userSpaceOnUse"
       gradientTransform="matrix(6,0,0,6,-785.198,-1153.928)" />
    <radialGradient
       xlink:href="#a"
       id="e"
       gradientUnits="userSpaceOnUse"
       gradientTransform="matrix(4,0,0,4,-452.799,-681.952)"
       cx="134.2"
       cy="222.98801"
       fx="134.2"
       fy="222.98801"
       r="2" />
    <radialGradient
       xlink:href="#a"
       id="d"
       gradientUnits="userSpaceOnUse"
       gradientTransform="matrix(4,0,0,4,-452.799,-641.952)"
       cx="134.2"
       cy="222.98801"
       fx="134.2"
       fy="222.98801"
       r="2" />
    <radialGradient
       xlink:href="#a"
       id="c"
       gradientUnits="userSpaceOnUse"
       gradientTransform="matrix(6,0,0,6,-697.198,-1065.928)"
       cx="134.2"
       cy="222.98801"
       fx="134.2"
       fy="222.98801"
       r="2" />
    <radialGradient
       xlink:href="#a"
       id="b"
       gradientUnits="userSpaceOnUse"
       gradientTransform="matrix(6,0,0,6,-697.198,-1153.928)"
       cx="134.2"
       cy="222.98801"
       fx="134.2"
       fy="222.98801"
       r="2" />
  </defs>
  <g
     transform="matrix(0.56140351,0,0,0.56140351,-4.4418246,-99.929825)"
     id="g20">
    <path
       style="line-height:normal;font-variant-ligatures:normal;font-variant-position:normal;font-variant-caps:normal;font-variant-numeric:normal;font-variant-alternates:normal;font-feature-settings:normal;text-indent:0;text-align:start;text-decoration-line:none;text-decoration-style:solid;text-decoration-color:#000000;text-transform:none;text-orientation:mixed;white-space:normal;shape-padding:0;isolation:auto;mix-blend-mode:normal;solid-color:#000000;solid-opacity:1;marker:none"
       d="m 22.352,194.352 h 82.687 v 82.687 H 22.352 Z"
       color="#000000"
       font-weight="400"
       font-family="sans-serif"
       overflow="visible"
       fill="none"
       id="path3" />
    <g
       color="#000000"
       fill="none"
       stroke="#f6f5f4"
       stroke-width="8"
       id="g5">
      <path
         style="marker:none"
         d="m 84,256 24,24 M 84,216 108,192 M 44,256 20,280 M 44,216 20,192 m 24,24 h 40 v 40 H 44 Z"
         overflow="visible"
         id="path4" />
      <path
         style="marker:none"
         overflow="visible"
         d="m 20,192 h 88 v 88 H 20 Z"
         id="path5" />
    </g>
    <path
       style="marker:none"
       fill="#d5d3cf"
       d="m 98.5,194 v 2 h -69 v -2 z"
       id="path6" />
    <path
       style="marker:none"
       d="m 120,192 c 0,6.627 -5.373,12 -12,12 -1.85,0 -3.222,-0.095 -5.165,-1.166 -1.092,-1.726 -3.55,-4.584 -5.668,-5.666 C 96.096,195.224 96,193.85 96,192 c 0,-6.627 5.373,-12 12,-12 6.627,0 12,5.373 12,12 z"
       color="#000000"
       overflow="visible"
       fill="#d5d3cf"
       id="path7" />
    <path
       style="marker:none"
       fill="#d5d3cf"
       d="m 110,203 h 2 v 69 h -2 z"
       id="path8" />
    <circle
       style="marker:none"
       cx="108"
       cy="280"
       r="12"
       color="#000000"
       overflow="visible"
       fill="#d5d3cf"
       id="circle8" />
    <path
       style="marker:none"
       fill="#d5d3cf"
       d="m 79,258 v 2 H 49 v -2 z m 20.604,16.425 -1.414,1.415 -15,-15 1.415,-1.415 z m 3.454,-74.632 1.414,1.414 -15,15 -1.414,-1.414 z"
       id="path9" />
    <circle
       style="fill:url(#b);marker:none"
       cx="108"
       cy="190"
       r="12"
       color="#000000"
       overflow="visible"
       fill="url(#b)"
       id="circle9" />
    <path
       style="marker:none"
       fill="#d5d3cf"
       d="m 86,222 h 2 v 26 h -2 z m -7,-4 v 2 H 49 v -2 z"
       id="path10" />
    <circle
       style="marker:none"
       cx="84"
       cy="216"
       r="8"
       color="#000000"
       overflow="visible"
       fill="#d5d3cf"
       id="circle10" />
    <path
       style="marker:none"
       fill="#d5d3cf"
       d="m 98.5,282 v 2 h -69 v -2 z"
       id="path11" />
    <circle
       r="12"
       cy="278"
       cx="108"
       style="fill:url(#c);marker:none"
       color="#000000"
       overflow="visible"
       fill="url(#c)"
       id="circle11" />
    <path
       style="marker:none"
       d="m 92,256 c 0,0.666 0,1 -0.235,1.932 -1.165,0.59 -4.765,4.542 -5.787,5.822 C 85.476,264 84.683,264 84,264 a 8,8 0 1 1 8,-8 z"
       color="#000000"
       overflow="visible"
       fill="#d5d3cf"
       id="path12" />
    <circle
       style="fill:url(#d);marker:none"
       cx="84"
       cy="254"
       r="8"
       color="#000000"
       overflow="visible"
       fill="url(#d)"
       id="circle12" />
    <circle
       r="8"
       cy="214"
       cx="84"
       style="fill:url(#e);marker:none"
       color="#000000"
       overflow="visible"
       fill="url(#e)"
       id="circle13" />
    <path
       style="marker:none"
       fill="#d5d3cf"
       d="m 22,203 h 2 v 69 h -2 z"
       id="path13" />
    <circle
       r="12"
       cy="280"
       cx="20"
       style="marker:none"
       color="#000000"
       overflow="visible"
       fill="#d5d3cf"
       id="circle14" />
    <path
       style="marker:none"
       fill="#d5d3cf"
       d="m 46,222 h 2 v 26 h -2 z"
       id="path14" />
    <circle
       r="8"
       cy="216"
       cx="44"
       style="marker:none"
       color="#000000"
       overflow="visible"
       fill="#d5d3cf"
       id="circle15" />
    <path
       style="marker:none"
       fill="#d5d3cf"
       d="M 43.586,259.586 45,261 30,276 28.586,274.586 Z"
       id="path15" />
    <path
       d="m 7.912,192 c 0,6.627 5.372,12 12,12 1.849,0 3.222,-0.095 5.165,-1.166 1.092,-1.726 3.55,-4.584 5.668,-5.666 1.071,-1.944 1.167,-3.318 1.167,-5.168 0,-6.627 -5.373,-12 -12,-12 -6.628,0 -12,5.373 -12,12 z"
       style="marker:none"
       color="#000000"
       overflow="visible"
       fill="#d5d3cf"
       id="path16" />
    <path
       style="marker:none"
       fill="#d5d3cf"
       d="m 40.077,214.953 -1.414,1.415 -15,-15 1.415,-1.414 z"
       id="path17" />
    <circle
       r="12"
       cy="190"
       cx="20"
       style="fill:url(#f);marker:none"
       color="#000000"
       overflow="visible"
       fill="url(#f)"
       id="circle17" />
    <circle
       style="fill:url(#g);marker:none"
       cx="20"
       cy="278"
       r="12"
       color="#000000"
       overflow="visible"
       fill="url(#g)"
       id="circle18" />
    <circle
       style="fill:url(#h);marker:none"
       cx="44"
       cy="214"
       r="8"
       color="#000000"
       overflow="visible"
       fill="url(#h)"
       id="circle19" />
    <path
       d="m 36,256 c 0,0.666 0,1 0.235,1.932 1.165,0.59 4.765,4.542 5.787,5.822 C 42.524,264 43.317,264 44,264 a 8,8 0 1 0 -8,-8 z"
       style="marker:none"
       color="#000000"
       overflow="visible"
       fill="#d5d3cf"
       id="path19" />
    <circle
       r="8"
       cy="254"
       cx="44"
       style="fill:url(#i);marker:none"
       color="#000000"
       overflow="visible"
       fill="url(#i)"
       id="circle20" />
  </g>
</svg>
