<?xml version="1.0" encoding="UTF-8" standalone="no"?>
<svg
   version="1.1"
   viewBox="0 0 65.640999 64"
   xml:space="preserve"
   id="svg3"
   sodipodi:docname="adobe_indesign.svg"
   width="65.640999"
   height="64"
   inkscape:version="1.4 (e7c3feb100, 2024-10-09)"
   xmlns:inkscape="http://www.inkscape.org/namespaces/inkscape"
   xmlns:sodipodi="http://sodipodi.sourceforge.net/DTD/sodipodi-0.dtd"
   xmlns="http://www.w3.org/2000/svg"
   xmlns:svg="http://www.w3.org/2000/svg"><defs
   id="defs3" /><sodipodi:namedview
   id="namedview3"
   pagecolor="#ffffff"
   bordercolor="#000000"
   borderopacity="0.25"
   inkscape:showpageshadow="2"
   inkscape:pageopacity="0.0"
   inkscape:pagecheckerboard="0"
   inkscape:deskcolor="#d1d1d1"
   inkscape:zoom="4.6538462"
   inkscape:cx="119.90083"
   inkscape:cy="117"
   inkscape:window-width="2560"
   inkscape:window-height="1300"
   inkscape:window-x="0"
   inkscape:window-y="0"
   inkscape:window-maximized="1"
   inkscape:current-layer="svg3" />
<title
   id="title1">Adobe InDesign CC logo</title>
<style
   type="text/css"
   id="style1">
	.st0{fill:#49021F;}
	.st1{fill:#FF3366;}
</style>
	<path
   class="st0"
   d="m 11.623932,0 h 42.393162 c 6.42735,0 11.623932,5.1965812 11.623932,11.623932 V 52.376068 C 65.641026,58.803419 60.444444,64 54.017094,64 H 11.623932 C 5.1965812,64 0,58.803419 0,52.376068 V 11.623932 C 0,5.1965812 5.1965812,0 11.623932,0 Z"
   id="path1"
   style="stroke-width:0.273504" />
	<g
   id="vlpa"
   transform="scale(0.27350427)">
		<g
   id="vlpb">
			<path
   class="st1"
   d="m 87.2,61.2 v 103 c 0,1.1 -0.5,1.6 -1.4,1.6 H 66.2 c -0.9,0 -1.3,-0.5 -1.3,-1.6 v -103 c 0,-0.9 0.5,-1.3 1.4,-1.3 h 19.5 c 0.6,-0.1 1.2,0.3 1.3,1 0.1,0.1 0.1,0.2 0.1,0.3 z"
   id="path2" />
			<path
   class="st1"
   d="m 145,167 c -7.4,0.1 -14.8,-1.4 -21.5,-4.5 -6.3,-2.9 -11.5,-7.7 -15.1,-13.6 -3.7,-6.1 -5.5,-13.7 -5.5,-22.8 -0.1,-7.4 1.8,-14.7 5.5,-21.1 3.8,-6.5 9.3,-11.9 15.9,-15.5 7,-3.9 15.4,-5.8 25.3,-5.8 0.5,0 1.2,0 2.1,0.1 0.9,0.1 1.9,0.1 3.1,0.2 V 52.4 c 0,-0.7 0.3,-1.1 1,-1.1 h 20.3 c 0.5,-0.1 0.9,0.3 1,0.7 v 0.2 95.2 c 0,1.8 0.1,3.8 0.2,6 0.2,2.1 0.3,4.1 0.4,5.8 0,0.7 -0.3,1.3 -1,1.6 -5.2,2.2 -10.7,3.8 -16.3,4.8 -5,0.9 -10.2,1.4 -15.4,1.4 z m 9.8,-20 v -44 c -0.9,-0.2 -1.8,-0.4 -2.7,-0.5 -1.1,-0.1 -2.2,-0.2 -3.3,-0.2 -3.9,0 -7.8,0.8 -11.3,2.6 -3.4,1.7 -6.3,4.2 -8.5,7.4 -2.2,3.2 -3.3,7.5 -3.3,12.7 -0.1,3.5 0.5,7 1.7,10.3 1,2.7 2.5,5.1 4.5,7.1 1.9,1.8 4.2,3.2 6.8,4 2.7,0.9 5.5,1.3 8.3,1.3 1.5,0 2.9,-0.1 4.2,-0.2 1.3,0.1 2.5,-0.1 3.6,-0.5 z"
   id="path3" />
		</g>
	</g>

</svg>
