<?xml version="1.0" encoding="UTF-8" standalone="no"?>
<!-- Generator: Adobe Illustrator 23.0.1, SVG Export Plug-In . SVG Version: 6.00 Build 0)  -->

<svg
   version="1.1"
   id="Livello_1"
   x="0px"
   y="0px"
   viewBox="0 0 67.200996 64"
   enable-background="new 0 0 2112.25 2011.641"
   xml:space="preserve"
   sodipodi:docname="microsoft_visio.svg"
   width="67.200996"
   height="64"
   inkscape:version="1.4 (e7c3feb100, 2024-10-09)"
   xmlns:inkscape="http://www.inkscape.org/namespaces/inkscape"
   xmlns:sodipodi="http://sodipodi.sourceforge.net/DTD/sodipodi-0.dtd"
   xmlns="http://www.w3.org/2000/svg"
   xmlns:svg="http://www.w3.org/2000/svg"
   xmlns:ns="http://ns.adobe.com/SaveForWeb/1.0/"><defs
   id="defs11" /><sodipodi:namedview
   id="namedview11"
   pagecolor="#ffffff"
   bordercolor="#000000"
   borderopacity="0.25"
   inkscape:showpageshadow="2"
   inkscape:pageopacity="0.0"
   inkscape:pagecheckerboard="0"
   inkscape:deskcolor="#d1d1d1"
   inkscape:zoom="0.54134908"
   inkscape:cx="1056.6195"
   inkscape:cy="1005.8205"
   inkscape:window-width="2560"
   inkscape:window-height="1300"
   inkscape:window-x="0"
   inkscape:window-y="0"
   inkscape:window-maximized="1"
   inkscape:current-layer="Livello_1" />
<metadata
   id="metadata1">
	<ns:sfw>
		<ns:slices />
		<ns:sliceSourceBounds
   bottomLeftOrigin="true"
   height="2011.641"
   width="2112.25"
   x="-1082.417"
   y="-931.52" />
	</ns:sfw>
</metadata>
<path
   fill="#2b7cd3"
   d="M 36.528479,16.000329 H 64.27282 c 1.617116,0 2.928046,1.31093 2.928046,2.928046 v 26.144342 c 0,1.617116 -1.31093,2.928045 -2.928046,2.928045 H 36.528479 c -1.617116,0 -2.928046,-1.310929 -2.928046,-2.928045 V 18.928375 c 0,-1.617116 1.31093,-2.928046 2.928046,-2.928046 z"
   id="path1"
   style="stroke-width:0.0318148" />
<path
   fill="#41a5ee"
   d="m 51.200649,16.000329 c 0.0032,0.7766 -0.308508,1.521321 -0.864027,2.064019 l -11.936127,11.936159 -1.136012,1.136012 c -0.147176,0.141767 -0.302082,0.275325 -0.46402,0.400007 -0.478908,0.302464 -1.0336,0.46332 -1.600031,0.46402 -0.7766,0.0032 -1.521321,-0.308509 -2.064018,-0.864027 L 20.064243,18.064348 c -0.986674,-0.972866 -1.147529,-2.50774 -0.384005,-3.66405 0.114342,-0.165501 0.24281,-0.320757 0.384005,-0.464019 L 33.136414,0.86413934 c 1.12319,-1.13992521 2.957824,-1.15347832 4.097781,-0.0302877 0.01018,0.0100217 0.02027,0.020107 0.03029,0.0302877 L 50.336654,13.93631 c 0.555487,0.542698 0.86724,1.287419 0.863995,2.064019 z"
   id="path2"
   style="stroke-width:0.0318148" />
<path
   fill="#103f91"
   d="m 51.200649,48.000731 c -3.82e-4,8.836663 -7.164253,15.999898 -16.000917,15.999516 -5.715788,-2.54e-4 -10.997335,-3.049546 -13.855484,-7.999392 -0.307872,-0.511742 -0.575339,-1.046708 -0.800015,-1.600031 -0.235748,-0.520173 -0.438822,-1.054566 -0.608013,-1.600032 -2.651002,-8.429656 2.033508,-17.412285 10.463164,-20.063288 1.553518,-0.488548 3.172511,-0.737086 4.801048,-0.73699 0.544002,0 1.072001,0.03201 1.600031,0.08001 0.537862,0.04626 1.072256,0.126432 1.600032,0.240011 7.444955,1.530452 12.791182,8.079566 12.800154,15.680192 z"
   id="path3"
   style="stroke-width:0.0318148" />
<path
   opacity="0.1"
   enable-background="new    "
   d="m 38.400495,17.328343 v 34.144435 c -0.008,1.186438 -0.726937,2.252299 -1.82404,2.704037 -0.349327,0.14778 -0.724741,0.223945 -1.104006,0.224009 H 20.544265 c -0.235748,-0.520173 -0.438822,-1.054566 -0.608013,-1.600032 -2.651003,-8.429656 2.033508,-17.412285 10.463164,-20.063288 1.553518,-0.488548 3.172511,-0.737086 4.801016,-0.73699 -0.7766,0.0032 -1.521321,-0.308508 -2.064018,-0.864027 L 20.064243,18.064348 c -0.986674,-0.972866 -1.147529,-2.50774 -0.384005,-3.66405 h 15.792211 c 1.095257,0.0066 2.095293,0.623857 2.592049,1.600031 0.224867,0.406212 0.340642,0.863741 0.335997,1.328014 z"
   id="path4"
   style="stroke-width:0.0318148" />
<path
   opacity="0.2"
   enable-background="new    "
   d="m 36.800463,18.928375 v 34.144434 c -6.3e-5,0.379297 -0.07623,0.754712 -0.224008,1.104006 -0.451738,1.097103 -1.517599,1.816086 -2.704037,1.82404 H 21.34428 c -0.307872,-0.511742 -0.575339,-1.046708 -0.800015,-1.600031 -0.235748,-0.520173 -0.438822,-1.054566 -0.608013,-1.600032 -2.651003,-8.429656 2.033508,-17.412285 10.463164,-20.063288 1.553518,-0.488548 3.172511,-0.737086 4.801048,-0.73699 -0.7766,0.0032 -1.521321,-0.308508 -2.064019,-0.864027 L 20.064243,18.064348 C 19.508756,17.52165 19.197002,16.776929 19.200247,16.000329 H 33.87245 c 0.811437,-0.0028 1.585555,0.340546 2.12803,0.94401 0.511487,0.534107 0.797947,1.2445 0.799983,1.984036 z"
   id="path5"
   style="stroke-width:0.0318148" />
<path
   opacity="0.2"
   enable-background="new    "
   d="m 36.800463,18.928375 v 30.944404 c -0.01219,1.612025 -1.31602,2.91586 -2.928045,2.928045 H 19.936252 c -2.651003,-8.429656 2.033508,-17.412286 10.463164,-20.063288 1.553518,-0.488548 3.172511,-0.737086 4.801048,-0.73699 -0.7766,0.0032 -1.521321,-0.308509 -2.064019,-0.864027 L 20.064243,18.064348 C 19.508756,17.52165 19.197002,16.776929 19.200247,16.000329 H 33.87245 c 0.811437,-0.0028 1.585555,0.340546 2.12803,0.94401 0.511487,0.534107 0.797947,1.2445 0.799983,1.984036 z"
   id="path6"
   style="stroke-width:0.0318148" />
<path
   opacity="0.2"
   enable-background="new    "
   d="m 35.200464,18.928375 v 13.072171 c -0.7766,0.0032 -1.521321,-0.308509 -2.064019,-0.864027 L 20.064243,18.064348 C 19.508756,17.52165 19.197002,16.776929 19.200247,16.000329 h 13.072171 c 1.614571,0.0061 2.921906,1.313475 2.928046,2.928046 z"
   id="path7"
   style="stroke-width:0.0318148" />
<path
   opacity="0.2"
   enable-background="new    "
   d="m 35.200464,32.000546 v 17.872233 c -0.01218,1.612025 -1.315988,2.91586 -2.928046,2.928045 H 19.936252 c -2.651003,-8.429656 2.033508,-17.412286 10.463164,-20.063288 1.553518,-0.48858 3.172511,-0.737086 4.801048,-0.73699 z"
   id="path8"
   style="stroke-width:0.0318148" />
<linearGradient
   id="SVGID_1_"
   gradientUnits="userSpaceOnUse"
   x1="192.20689"
   y1="1683.361"
   x2="914.20972"
   y2="432.88199"
   gradientTransform="matrix(0.03181483,0,0,-0.03181483,0,67.264518)">
	<stop
   offset="0"
   style="stop-color:#2368C4"
   id="stop8" />
	<stop
   offset="0.5"
   style="stop-color:#1A5DBE"
   id="stop9" />
	<stop
   offset="1"
   style="stop-color:#1146AC"
   id="stop10" />
</linearGradient>
<path
   fill="url(#SVGID_1_)"
   d="M 2.9328497,16.000329 H 32.267614 c 1.619757,0 2.93285,1.313062 2.93285,2.93285 v 29.334764 c 0,1.619757 -1.313061,2.93285 -2.93285,2.93285 H 2.9328497 C 1.3130615,51.200793 0,49.8877 0,48.267943 V 18.933179 c 0,-1.619757 1.3130615,-2.93285 2.9328497,-2.93285 z"
   id="path10"
   style="fill:url(#SVGID_1_);stroke-width:0.0318148" />
<path
   fill="#ffffff"
   d="m 16.640204,36.685406 c 0.538688,1.58721 0.858682,2.588836 0.960012,3.004847 h 0.0656 c 0.09707,-0.416011 0.443213,-1.488552 1.038404,-3.217624 l 4.267259,-12.406574 h 3.923246 l -7.2401,19.067453 H 15.453002 L 8.3201178,24.066055 h 4.0352652 z"
   id="path11"
   style="stroke-width:0.0318148" />
</svg>
