<?xml version="1.0" encoding="UTF-8" standalone="no"?>
<svg
   version="1.1"
   id="svg44"
   width="64"
   height="64"
   viewBox="0 0 64 64"
   sodipodi:docname="chromium.svg"
   inkscape:version="1.4 (e7c3feb100, 2024-10-09)"
   xmlns:inkscape="http://www.inkscape.org/namespaces/inkscape"
   xmlns:sodipodi="http://sodipodi.sourceforge.net/DTD/sodipodi-0.dtd"
   xmlns:xlink="http://www.w3.org/1999/xlink"
   xmlns="http://www.w3.org/2000/svg"
   xmlns:svg="http://www.w3.org/2000/svg">
  <sodipodi:namedview
     id="namedview1"
     pagecolor="#ffffff"
     bordercolor="#000000"
     borderopacity="0.25"
     inkscape:showpageshadow="2"
     inkscape:pageopacity="0.0"
     inkscape:pagecheckerboard="0"
     inkscape:deskcolor="#d1d1d1"
     inkscape:zoom="2.1270159"
     inkscape:cx="255.75738"
     inkscape:cy="255.99245"
     inkscape:window-width="2560"
     inkscape:window-height="1300"
     inkscape:window-x="0"
     inkscape:window-y="0"
     inkscape:window-maximized="1"
     inkscape:current-layer="svg44" />
  <defs
     id="defs18">
    <linearGradient
       xlink:href="#linearGradient4975"
       id="linearGradient4633"
       gradientUnits="userSpaceOnUse"
       gradientTransform="matrix(28.954073,0,0,28.953945,13.889176,19.999794)"
       x2="0.5565635"
       x1="0.46521288"
       y1="-0.67390651"
       y2="0.81129867" />
    <linearGradient
       id="linearGradient4975">
      <stop
         style="stop-color:#1972e7"
         offset="0"
         id="stop4971" />
      <stop
         style="stop-color:#1969d5"
         offset="1"
         id="stop4973" />
    </linearGradient>
    <linearGradient
       xlink:href="#3"
       id="linearGradient1331"
       x1="101.74381"
       y1="33.726189"
       x2="101.59915"
       y2="135.466"
       gradientUnits="userSpaceOnUse"
       gradientTransform="matrix(0.47244188,0,0,0.47243978,1.8944934e-4,4.7234519e-4)" />
    <linearGradient
       id="3"
       x2="1"
       gradientTransform="matrix(61.286,0,0,61.286,29.399,42.333)"
       gradientUnits="userSpaceOnUse">
      <stop
         offset="0"
         id="stop1397"
         style="stop-color:#afccfb" />
      <stop
         offset="1"
         id="stop1399"
         style="stop-color:#8bb5f8" />
    </linearGradient>
    <linearGradient
       xlink:href="#1"
       id="linearGradient2962"
       gradientUnits="userSpaceOnUse"
       gradientTransform="matrix(11.866795,20.553965,-20.554057,11.866742,12.194859,21.701994)"
       x2="1.7695541"
       x1="0.018202547"
       y1="-0.51170158"
       y2="0.4994337" />
    <linearGradient
       id="1"
       x2="1"
       gradientTransform="matrix(25.118,43.506,-43.506,25.118,25.812,45.935)"
       gradientUnits="userSpaceOnUse">
      <stop
         offset="0"
         id="stop3122"
         style="stop-color:#659cf6" />
      <stop
         offset="1"
         id="stop3124"
         style="stop-color:#4285f4" />
    </linearGradient>
    <linearGradient
       xlink:href="#2"
       id="linearGradient2688"
       x1="67.452377"
       y1="40.320694"
       x2="67.733002"
       y2="95.25"
       gradientUnits="userSpaceOnUse"
       gradientTransform="matrix(0.47244188,0,0,0.47243978,1.8755929e-4,4.7234519e-4)" />
    <linearGradient
       id="2">
      <stop
         style="stop-color:#3680f0"
         offset="0"
         id="stop2682" />
      <stop
         style="stop-color:#2678ec"
         offset="1"
         id="stop2684" />
    </linearGradient>
  </defs>
  <path
     d="M 32.000093,32.000236 45.856813,40.00006 32.000093,64 C 49.6732,64 64,49.673263 64,32.000236 64,26.169857 62.433005,20.708452 59.70848,16.000118 H 31.999762 Z"
     id="path34-4"
     style="fill:url(#linearGradient1331);stroke-width:0.125004" />
  <path
     d="M 31.999762,0 C 20.155645,0 9.8223959,6.4393543 4.2891566,16.003897 L 18.143042,40.000059 31.999762,32.000236 V 16.000118 H 59.70848 C 54.174295,6.4379369 43.842464,0 31.999762,0 Z"
     id="path36-1"
     style="fill:url(#linearGradient4633);stroke-width:0.125004" />
  <path
     d="M 1.8897683e-4,32.000236 C 1.8897683e-4,49.673263 14.326517,64 32.000094,64 L 45.856813,40.000059 32.000094,32.000236 18.143374,40.000059 4.2894887,16.003897 C 1.5664755,20.71091 0,26.17033 0,31.999764"
     id="path38-7"
     style="fill:url(#linearGradient2962);stroke-width:0.125004" />
  <path
     d="m 48.000284,32.000236 c 0,8.836514 -7.163638,16.000118 -16.000191,16.000118 -8.836553,0 -16.000188,-7.163604 -16.000188,-16.000118 0,-8.836514 7.163635,-16.000118 16.000188,-16.000118 8.836553,0 16.000191,7.163604 16.000191,16.000118"
     fill="#ffffff"
     id="path40"
     style="stroke-width:0.125004" />
  <path
     d="m 45.000276,32.000236 c 0,7.179668 -5.820483,13.000126 -13.000183,13.000126 -7.179699,0 -13.000184,-5.820458 -13.000184,-13.000126 0,-7.179667 5.820485,-13.000125 13.000184,-13.000125 7.1797,0 13.000183,5.820458 13.000183,13.000125"
     id="path42-5"
     style="fill:url(#linearGradient2688);stroke-width:0.125004" />
</svg>
