<?xml version="1.0" encoding="UTF-8" standalone="no"?>
<svg
   viewBox="0 0 71.111 64"
   version="1.1"
   id="svg2"
   sodipodi:docname="nfs.svg"
   width="71.111"
   height="64"
   inkscape:version="1.4 (e7c3feb100, 2024-10-09)"
   xmlns:inkscape="http://www.inkscape.org/namespaces/inkscape"
   xmlns:sodipodi="http://sodipodi.sourceforge.net/DTD/sodipodi-0.dtd"
   xmlns="http://www.w3.org/2000/svg"
   xmlns:svg="http://www.w3.org/2000/svg">
  <defs
     id="defs2" />
  <sodipodi:namedview
     id="namedview2"
     pagecolor="#ffffff"
     bordercolor="#000000"
     borderopacity="0.25"
     inkscape:showpageshadow="2"
     inkscape:pageopacity="0.0"
     inkscape:pagecheckerboard="0"
     inkscape:deskcolor="#d1d1d1"
     inkscape:zoom="11.34375"
     inkscape:cx="48.749311"
     inkscape:cy="36.099174"
     inkscape:window-width="2560"
     inkscape:window-height="1300"
     inkscape:window-x="0"
     inkscape:window-y="0"
     inkscape:window-maximized="1"
     inkscape:current-layer="svg2" />
  <path
     d="M 49.777778,49.777778 H 39.111111 V 35.555556 H 32 V 49.777778 H 21.333333 v 3.555555 H 0 v 7.111111 H 21.333333 V 64 H 49.777778 V 60.444444 H 71.111111 V 53.333333 H 49.777778 Z"
     id="path1"
     style="stroke-width:3.55556" />
  <path
     d="M 56.888889,3.5555556 H 36.291876 L 33.257173,0.52060444 32.73632,0 H 14.222222 A 5.3394489,5.3394489 0 0 0 8.8888889,5.3333333 V 33.777778 a 5.3394489,5.3394489 0 0 0 5.3333331,5.333333 h 42.666667 a 5.3394489,5.3394489 0 0 0 5.333333,-5.333333 V 8.8888889 A 5.3394489,5.3394489 0 0 0 56.888889,3.5555556 Z M 55.111111,10.666667 V 32 H 16 V 7.1111111 h 13.485902 l 3.034702,3.0347379 0.520854,0.520818 z"
     id="path2"
     style="stroke-width:3.55556" />
</svg>
