<?xml version="1.0" encoding="UTF-8" standalone="no"?>
<svg
   id="Layer_1"
   viewBox="0 0 64 64"
   version="1.1"
   sodipodi:docname="languages_yarn.svg"
   width="64"
   height="64"
   inkscape:version="1.4.1 (93de688d07, 2025-03-30)"
   xmlns:inkscape="http://www.inkscape.org/namespaces/inkscape"
   xmlns:sodipodi="http://sodipodi.sourceforge.net/DTD/sodipodi-0.dtd"
   xmlns="http://www.w3.org/2000/svg"
   xmlns:svg="http://www.w3.org/2000/svg">
  <defs
     id="defs2" />
  <sodipodi:namedview
     id="namedview2"
     pagecolor="#ffffff"
     bordercolor="#000000"
     borderopacity="0.25"
     inkscape:showpageshadow="2"
     inkscape:pageopacity="0.0"
     inkscape:pagecheckerboard="0"
     inkscape:deskcolor="#d1d1d1"
     inkscape:zoom="2.3011583"
     inkscape:cx="259"
     inkscape:cy="259"
     inkscape:window-width="2560"
     inkscape:window-height="1403"
     inkscape:window-x="0"
     inkscape:window-y="0"
     inkscape:window-maximized="1"
     inkscape:current-layer="Layer_1" />
  <style
     id="style1">.st0{fill:#2c8ebb}.st1{fill:#fff}</style>
  <path
     class="st0"
     d="M 32,0 C 49.667954,0 64,14.332046 64,32 64,49.667954 49.667954,64 32,64 14.332046,64 0,49.667954 0,32 0,14.332046 14.332046,0 32,0 Z"
     id="path1"
     style="stroke-width:0.123552" />
  <path
     class="st1"
     d="m 53.769884,41.698842 c -0.222394,-1.75444 -1.705019,-2.965251 -3.607722,-2.940541 -2.841699,0.03707 -5.226255,1.507336 -6.807722,2.483398 -0.61776,0.383011 -1.149035,0.667181 -1.606177,0.87722 0.09884,-1.433205 0.01235,-3.311197 -0.728958,-5.374517 -0.90193,-2.471043 -2.112741,-3.990734 -2.977606,-4.867954 1.000772,-1.457915 2.372201,-3.583012 3.014672,-6.869498 0.555984,-2.804633 0.383011,-7.166023 -0.889576,-9.612355 -0.259459,-0.494209 -0.691892,-0.85251 -1.235521,-1.000773 -0.222394,-0.06178 -0.642471,-0.185328 -1.47027,0.04942 -1.247877,-2.582239 -1.680309,-2.854054 -2.0139,-3.076448 -0.691892,-0.444787 -1.507336,-0.543629 -2.273359,-0.259459 -1.025482,0.370656 -1.902703,1.359073 -2.730502,3.113513 -0.123552,0.25946 -0.234749,0.506564 -0.33359,0.753668 -1.569112,0.111197 -4.040155,0.679537 -6.128186,2.940541 -0.259459,0.28417 -0.766023,0.494208 -1.297297,0.691892 h 0.01235 c -1.087259,0.383011 -1.581467,1.272587 -2.186872,2.878764 -0.840155,2.248649 0.02471,4.460232 0.87722,5.893437 -1.16139,1.037837 -2.705792,2.693436 -3.521236,4.633204 -1.013127,2.396911 -1.124324,4.744402 -1.087259,6.016989 -0.864864,0.914285 -2.199227,2.63166 -2.34749,4.559073 -0.197683,2.693436 0.778378,4.522008 1.210811,5.189189 0.123552,0.197684 0.259459,0.358301 0.407722,0.518919 -0.04942,0.333591 -0.06178,0.691892 0.01235,1.062548 0.160618,0.864865 0.704247,1.569112 1.532046,2.0139 1.630888,0.864865 3.904247,1.235521 5.658688,0.358301 0.630115,0.667182 1.77915,1.309653 3.867181,1.309653 h 0.123552 c 0.531274,0 7.27722,-0.358302 9.241699,-0.840155 0.87722,-0.210038 1.482626,-0.580695 1.877992,-0.914286 1.260232,-0.395366 4.744402,-1.581467 8.030888,-3.706563 2.32278,-1.507336 3.125869,-1.828572 4.855599,-2.248649 1.680309,-0.407722 2.730502,-1.939768 2.520463,-3.632432 z m -2.94054,1.816216 c -1.976834,0.469498 -2.977607,0.90193 -5.423939,2.495753 -3.81776,2.471042 -7.993822,3.620077 -7.993822,3.620077 0,0 -0.345946,0.518919 -1.346718,0.753668 -1.72973,0.420077 -8.240927,0.778378 -8.833977,0.790734 -1.593822,0.01236 -2.569884,-0.407722 -2.841699,-1.062549 -0.827799,-1.976834 1.186101,-2.841699 1.186101,-2.841699 0,0 -0.444788,-0.271814 -0.704248,-0.518918 -0.234749,-0.234749 -0.481853,-0.704248 -0.555984,-0.531275 -0.30888,0.753668 -0.469498,2.594595 -1.297297,3.422394 -1.13668,1.149035 -3.286487,0.766023 -4.559074,0.09884 -1.396139,-0.741313 0.09884,-2.483398 0.09884,-2.483398 0,0 -0.753668,0.444788 -1.359073,-0.469498 -0.54363,-0.840154 -1.050193,-2.273359 -0.914286,-4.040154 0.148262,-2.0139 2.396911,-3.966023 2.396911,-3.966023 0,0 -0.395367,-2.977607 0.901931,-6.029344 1.173745,-2.779923 4.336679,-5.016216 4.336679,-5.016216 0,0 -2.656371,-2.940541 -1.667954,-5.584556 0.642471,-1.72973 0.901931,-1.717375 1.11197,-1.791506 0.741312,-0.28417 1.457915,-0.59305 1.989189,-1.173745 2.65637,-2.866409 6.041699,-2.32278 6.041699,-2.32278 0,0 1.606177,-4.880309 3.088803,-3.928958 0.457143,0.296525 2.100386,3.953668 2.100386,3.953668 0,0 1.75444,-1.025482 1.952123,-0.642471 1.062549,2.063321 1.186101,6.004633 0.716603,8.401545 -0.790734,3.953668 -2.767568,6.078764 -3.558302,7.413127 -0.185328,0.30888 2.125097,1.284942 3.583012,5.325097 1.346718,3.694208 0.148263,6.795366 0.358301,7.141312 0.03707,0.06178 0.04942,0.08649 0.04942,0.08649 0,0 1.544402,0.123552 4.64556,-1.791506 1.655598,-1.025483 3.620077,-2.174517 5.856371,-2.199228 2.162162,-0.03707 2.273359,2.495753 0.642471,2.89112 z"
     id="path2"
     style="stroke-width:0.123552" />
</svg>
