<?xml version="1.0" encoding="UTF-8" standalone="no"?>
<!-- Generator: Adobe Illustrator 13.0.0, SVG Export Plug-In . SVG Version: 6.00 Build 14948)  -->

<svg
   version="1.1"
   id="Layer_1"
   x="0px"
   y="0px"
   width="35.493"
   height="64"
   viewBox="0 0 35.492999 63.999998"
   enable-background="new 0 0 225.938 407.407"
   xml:space="preserve"
   sodipodi:docname="openjdk.svg"
   inkscape:version="1.4 (e7c3feb100, 2024-10-09)"
   xmlns:inkscape="http://www.inkscape.org/namespaces/inkscape"
   xmlns:sodipodi="http://sodipodi.sourceforge.net/DTD/sodipodi-0.dtd"
   xmlns="http://www.w3.org/2000/svg"
   xmlns:svg="http://www.w3.org/2000/svg"><defs
   id="defs15" /><sodipodi:namedview
   id="namedview15"
   pagecolor="#ffffff"
   bordercolor="#000000"
   borderopacity="0.25"
   inkscape:showpageshadow="2"
   inkscape:pageopacity="0.0"
   inkscape:pagecheckerboard="0"
   inkscape:deskcolor="#d1d1d1"
   inkscape:zoom="2.6730026"
   inkscape:cx="112.98156"
   inkscape:cy="203.70351"
   inkscape:window-width="2560"
   inkscape:window-height="1300"
   inkscape:window-x="0"
   inkscape:window-y="0"
   inkscape:window-maximized="1"
   inkscape:current-layer="Layer_1" />
<path
   fill-rule="evenodd"
   clip-rule="evenodd"
   d="M 7.6751158,6.8361958 C 8.9984602,9.6072807 8.10492,28.959632 6.5553629,35.745963 5.0058058,42.543603 3.4562485,51.184864 3.0943082,58.457548 c -0.1583489,3.099091 0.3166978,4.32063 2.3413017,4.32063 3.5741609,0 8.1097261,-7.532826 13.7989751,-7.363168 5.700562,0.169658 7.510263,8.641261 10.179573,8.584708 2.669311,-0.05655 4.818331,-0.984018 4.840953,-9.229409 C 34.334285,30.158393 13.703685,10.206582 7.6751158,6.8361958 Z"
   id="path1"
   style="stroke-width:0.157092" />
<path
   fill-rule="evenodd"
   clip-rule="evenodd"
   d="m 25.568542,26.505243 c 1.255481,2.115073 4.456391,0.486353 4.592118,-1.900173 0.135728,-2.386526 -0.214902,-5.395132 -1.764459,-5.508238 -1.549557,-0.113105 -2.657999,-1.662651 -4.207556,-1.775756 -1.549558,-0.113106 -3.212221,1.43644 -3.936102,-0.622081 -0.72388,-2.05852 1.94543,-2.929432 3.936102,-3.257438 C 22.412874,11.6658 21.372296,9.6977651 20.591862,7.6505554 19.811428,5.6033458 19.234585,3.7257944 21.417539,2.9227453 23.600491,2.1196962 23.419521,6.2480472 25.919172,8.1369091 25.18398,5.3545137 24.912525,4.2008375 24.969079,2.5834288 c 0.05655,-1.61740875 -0.05655,-2.85025876 2.239506,-2.53356335 2.296058,0.31669542 1.300723,5.08974775 3.087803,7.03516245 0.54291,-1.8436197 0.870919,-4.1849037 2.182953,-5.1463005 1.312034,-0.9613968 4.298041,-0.9840179 2.397855,2.9633643 -1.900188,3.9473821 0.554221,6.0850753 -0.02262,9.1954773 -0.576843,3.110401 -2.363923,2.544874 -3.133047,4.546841 -0.769123,2.001968 0.452425,6.560119 -0.995336,8.607329 -1.447762,2.04721 -1.707906,5.191543 -0.769123,7.702485 -2.884212,-2.691911 -4.388527,-8.448981 -4.388528,-8.448981 z"
   id="path2"
   style="stroke-width:0.157092" />
<path
   fill-rule="evenodd"
   clip-rule="evenodd"
   d="m 7.5959413,29.163222 c -1.1649955,7.985249 -5.2142032,8.935335 -5.4177946,12.249326 -0.2035915,3.313992 1.0745104,3.630687 0.995336,6.695846 -0.079175,3.065159 -2.80503777,4.30932 -3.13304621,5.971971 -0.32800845,1.662651 1.40251881,2.194247 2.40916541,2.194247 1.0066466,0 2.0132932,-4.411115 2.4204762,-7.216131 C 5.277261,46.253464 3.535423,44.602124 3.535423,42.67933 c 0,-1.922794 2.5222719,-5.440375 2.0585358,-2.352594 2.0924676,-3.302681 3.0879608,-7.510363 2.0019825,-11.163514 z"
   id="path3"
   style="stroke-width:0.157092" />
<path
   fill-rule="evenodd"
   clip-rule="evenodd"
   fill="#ffffff"
   d="m 9.1569662,32.205603 c -0.8822295,4.32063 -6.3905094,28.446035 -3.5854716,28.75142 2.8050377,0.305384 6.7976924,-7.464964 13.3352404,-7.408411 6.548857,0.05655 9.127683,8.709124 10.722482,8.652571 1.5948,-0.05655 2.646689,0.565528 2.816349,-9.184167 0.16966,-9.749694 -5.779735,-22.202611 -9.297343,-27.688228 -4.773245,0.305385 -9.908274,4.128508 -13.9912568,6.876815 z"
   id="path4"
   style="stroke-width:0.157092" />
<g
   id="g15"
   transform="matrix(0.15709217,0,0,0.15709098,-2.5038399e-4,-8.9481956e-5)">
	<path
   fill="none"
   d="m 139.162,172.181 c -1.95,-18.251 -19.12,-25.421 -35.661,-23.168 -13.889,1.893 -32.403,13.613 -34.107,28.64 -1.921,16.937 11.402,32.522 28.361,33.203 15.03,0.604 31.176,-6.668 37.93,-20.79 2.73,-5.704 3.797,-11.578 3.477,-17.885"
   id="path5" />
	<path
   d="m 147.082,171.533 c -1.662,-17.195 -14.407,-27.988 -30.895,-30.627 -15.924,-2.549 -33.26,4.998 -44.408,16.146 -12.538,12.538 -13.039,29.978 -4.26,44.833 8.661,14.657 27.847,19.501 43.563,15.835 21.506,-5.015 37.398,-23.824 36,-46.187"
   id="path6" />
	<radialGradient
   id="SVGID_1_"
   cx="86.629898"
   cy="167.06931"
   r="54.7155"
   gradientUnits="userSpaceOnUse">
		<stop
   offset="0"
   style="stop-color:#FFFFFF"
   id="stop6" />
		<stop
   offset="0.0604"
   style="stop-color:#FBC8B4"
   id="stop7" />
		<stop
   offset="0.0712"
   style="stop-color:#FBC3B0"
   id="stop8" />
		<stop
   offset="0.1829"
   style="stop-color:#F7978B"
   id="stop9" />
		<stop
   offset="0.2995"
   style="stop-color:#F4716B"
   id="stop10" />
		<stop
   offset="0.4199"
   style="stop-color:#F15251"
   id="stop11" />
		<stop
   offset="0.5453"
   style="stop-color:#EF3A3D"
   id="stop12" />
		<stop
   offset="0.6778"
   style="stop-color:#EE292F"
   id="stop13" />
		<stop
   offset="0.822"
   style="stop-color:#ED1F27"
   id="stop14" />
		<stop
   offset="1"
   style="stop-color:#ED1C24"
   id="stop15" />
	</radialGradient>
	<path
   fill="url(#SVGID_1_)"
   stroke="#000000"
   d="m 139.162,177.941 c -1.493,15.627 -13.947,28.182 -28.944,31.824 -15.87,3.854 -33.393,-2.257 -39.096,-18.576 -2.912,-8.332 -2.37,-16.879 2.637,-24.198 4.223,-6.171 11.033,-11 17.779,-14.066 13.924,-6.326 33.832,-7.029 43.531,7.077 3.675,5.346 4.318,11.639 4.093,17.939"
   id="path15"
   style="fill:url(#SVGID_1_)" />
</g>
</svg>
