<?xml version="1.0" encoding="UTF-8" standalone="no"?>
<!-- Uploaded to: SVG Repo, www.svgrepo.com, Generator: SVG Repo Mixer Tools -->

<svg
   width="47.895"
   height="64"
   viewBox="0 0 1.9158 2.56"
   version="1.1"
   id="svg50"
   sodipodi:docname="languages_maven.svg"
   inkscape:version="1.4.1 (93de688d07, 2025-03-30)"
   xmlns:inkscape="http://www.inkscape.org/namespaces/inkscape"
   xmlns:sodipodi="http://sodipodi.sourceforge.net/DTD/sodipodi-0.dtd"
   xmlns:xlink="http://www.w3.org/1999/xlink"
   xmlns="http://www.w3.org/2000/svg"
   xmlns:svg="http://www.w3.org/2000/svg">
  <sodipodi:namedview
     id="namedview50"
     pagecolor="#ffffff"
     bordercolor="#000000"
     borderopacity="0.25"
     inkscape:showpageshadow="2"
     inkscape:pageopacity="0.0"
     inkscape:pagecheckerboard="0"
     inkscape:deskcolor="#d1d1d1"
     inkscape:zoom="1.49"
     inkscape:cx="400"
     inkscape:cy="400"
     inkscape:window-width="2560"
     inkscape:window-height="1403"
     inkscape:window-x="0"
     inkscape:window-y="0"
     inkscape:window-maximized="1"
     inkscape:current-layer="svg50" />
  <defs
     id="defs11">
    <linearGradient
       id="a"
       x1="-7274.7998"
       y1="2082.5071"
       x2="-7243.8721"
       y2="2046.343"
       gradientTransform="matrix(-0.023,-0.116,-0.116,0.023,79.68,-889.484)"
       gradientUnits="userSpaceOnUse">
      <stop
         offset="0"
         stop-color="#f69923"
         id="stop1" />
      <stop
         offset="0.312"
         stop-color="#f79a23"
         id="stop2" />
      <stop
         offset="0.838"
         stop-color="#e97826"
         id="stop3" />
    </linearGradient>
    <linearGradient
       id="b"
       x1="-7503.689"
       y1="2086.595"
       x2="-7283.0361"
       y2="2086.595"
       gradientTransform="matrix(-0.023,-0.116,-0.116,0.023,79.68,-889.484)"
       gradientUnits="userSpaceOnUse">
      <stop
         offset="0.323"
         stop-color="#9e2064"
         id="stop4" />
      <stop
         offset="0.63"
         stop-color="#c92037"
         id="stop5" />
      <stop
         offset="0.751"
         stop-color="#cd2335"
         id="stop6" />
      <stop
         offset="1"
         stop-color="#e97826"
         id="stop7" />
    </linearGradient>
    <linearGradient
       id="c"
       x1="-7477.0532"
       y1="2064.4199"
       x2="-7345.5659"
       y2="2064.4199"
       gradientTransform="matrix(-0.023,-0.116,-0.116,0.023,79.68,-889.484)"
       gradientUnits="userSpaceOnUse">
      <stop
         offset="0"
         stop-color="#282662"
         id="stop8" />
      <stop
         offset="0.095"
         stop-color="#662e8d"
         id="stop9" />
      <stop
         offset="0.788"
         stop-color="#9f2064"
         id="stop10" />
      <stop
         offset="0.949"
         stop-color="#cd2032"
         id="stop11" />
    </linearGradient>
    <linearGradient
       id="d"
       x1="-7491.2959"
       y1="2088.6331"
       x2="-7270.6431"
       y2="2088.6331"
       xlink:href="#b"
       gradientTransform="matrix(0.09142905,0,0,0.09142905,-0.505968,-0.18285027)" />
    <linearGradient
       id="e"
       x1="-7475.2031"
       y1="2085.6101"
       x2="-7359.2441"
       y2="2085.6101"
       xlink:href="#c"
       gradientTransform="matrix(0.09142905,0,0,0.09142905,-0.505968,-0.18285027)" />
    <linearGradient
       id="f"
       x1="-7491.2959"
       y1="2065.7991"
       x2="-7270.6431"
       y2="2065.7991"
       xlink:href="#b"
       gradientTransform="matrix(0.09142905,0,0,0.09142905,-0.505968,-0.18285027)" />
    <linearGradient
       id="g"
       x1="-7504.9839"
       y1="2066.905"
       x2="-7284.3311"
       y2="2066.905"
       xlink:href="#b"
       gradientTransform="matrix(0.09142905,0,0,0.09142905,-0.505968,-0.18285027)" />
    <linearGradient
       id="h"
       x1="-7491.2959"
       y1="2058.959"
       x2="-7270.6431"
       y2="2058.959"
       xlink:href="#b"
       gradientTransform="matrix(0.09142905,0,0,0.09142905,-0.505968,-0.18285027)" />
    <linearGradient
       id="i"
       x1="-7491.2959"
       y1="2059.762"
       x2="-7270.6431"
       y2="2059.762"
       xlink:href="#b"
       gradientTransform="matrix(0.09142905,0,0,0.09142905,-0.505968,-0.18285027)" />
    <linearGradient
       id="j"
       x1="-8307.6318"
       y1="2040.0081"
       x2="-8276.7041"
       y2="2003.844"
       gradientTransform="matrix(0.00676575,-0.01024005,-0.01024004,-0.00676575,78.496263,-71.086992)"
       xlink:href="#a" />
    <linearGradient
       id="k"
       x1="-8536.5215"
       y1="2044.0959"
       x2="-8315.8682"
       y2="2044.0959"
       gradientTransform="matrix(0.00676575,-0.01024005,-0.01024004,-0.00676575,78.496263,-71.086992)"
       xlink:href="#b" />
    <linearGradient
       id="l"
       x1="-8509.8848"
       y1="2021.921"
       x2="-8378.3975"
       y2="2021.921"
       gradientTransform="matrix(0.00676575,-0.01024005,-0.01024004,-0.00676575,78.496263,-71.086992)"
       xlink:href="#c" />
    <linearGradient
       id="m"
       x1="-8524.1279"
       y1="2046.134"
       x2="-8303.4746"
       y2="2046.134"
       gradientTransform="matrix(0.00676575,-0.01024005,-0.01024004,-0.00676575,78.496263,-71.086992)"
       xlink:href="#b" />
    <linearGradient
       id="n"
       x1="-8508.0352"
       y1="2043.111"
       x2="-8392.0762"
       y2="2043.111"
       gradientTransform="matrix(0.00676575,-0.01024005,-0.01024004,-0.00676575,78.496263,-71.086992)"
       xlink:href="#c" />
    <linearGradient
       id="o"
       x1="-8524.1279"
       y1="2023.3"
       x2="-8303.4746"
       y2="2023.3"
       gradientTransform="matrix(0.00676575,-0.01024005,-0.01024004,-0.00676575,78.496263,-71.086992)"
       xlink:href="#b" />
    <linearGradient
       id="p"
       x1="-8537.8164"
       y1="2024.407"
       x2="-8317.1631"
       y2="2024.407"
       gradientTransform="matrix(0.00676575,-0.01024005,-0.01024004,-0.00676575,78.496263,-71.086992)"
       xlink:href="#b" />
    <linearGradient
       id="q"
       x1="-8524.1279"
       y1="2016.46"
       x2="-8303.4746"
       y2="2016.46"
       gradientTransform="matrix(0.00676575,-0.01024005,-0.01024004,-0.00676575,78.496263,-71.086992)"
       xlink:href="#b" />
    <linearGradient
       id="r"
       x1="-8524.1279"
       y1="2017.2629"
       x2="-8303.4746"
       y2="2017.2629"
       gradientTransform="matrix(0.00676575,-0.01024005,-0.01024004,-0.00676575,78.496263,-71.086992)"
       xlink:href="#b" />
    <linearGradient
       inkscape:collect="always"
       xlink:href="#c"
       id="linearGradient50"
       gradientUnits="userSpaceOnUse"
       gradientTransform="matrix(-0.00210287,-0.01060577,-0.01060576,0.00210287,6.7790935,-81.507526)"
       x1="-7477.0532"
       y1="2064.4199"
       x2="-7345.5659"
       y2="2064.4199" />
    <linearGradient
       inkscape:collect="always"
       xlink:href="#b"
       id="linearGradient51"
       gradientUnits="userSpaceOnUse"
       gradientTransform="matrix(-0.00210287,-0.01060577,-0.01060576,0.00210287,6.7790935,-81.507526)"
       x1="-7503.689"
       y1="2086.595"
       x2="-7283.0361"
       y2="2086.595" />
    <linearGradient
       inkscape:collect="always"
       xlink:href="#a"
       id="linearGradient52"
       gradientUnits="userSpaceOnUse"
       gradientTransform="matrix(-0.00210287,-0.01060577,-0.01060576,0.00210287,6.7790935,-81.507526)"
       x1="-7274.7998"
       y1="2082.5071"
       x2="-7243.8721"
       y2="2046.343" />
  </defs>
  <title
     id="title11">file_type_maven</title>
  <path
     d="M 0.04041153,0.04873952 A 0.87214113,0.87214174 0 0 0 0.00383992,0.29148365 l 0.13046918,0.0631775 a 1.6391389,1.6391401 0 0 1 0.009143,-0.23232123 c 4.5714e-4,-0.005303 0.001006,-0.008411 0.001006,-0.008411 0,0.002834 -8.2287e-4,0.005577 -0.001006,0.008411 A 1.4572867,1.4572877 0 0 0 0.14317772,0.35155254 2.5408116,2.5408134 0 0 0 0.3364586,0.16869444 0.27803556,0.27803575 0 0 0 0.19081221,0.01317361 c 0,0 -0.11556623,-0.04662882 -0.15040068,0.03556591 z"
     style="fill:url(#linearGradient52);stroke-width:0.0914291"
     id="path11" />
  <path
     d="m 0.37979593,0.70602298 a 0.00164572,0.00164572 0 0 0 0.001097,-0.001189 l -0.007314,0.006491 c 0,6.4e-4 -8.2287e-4,0.001189 -9.1429e-4,0.001737 z"
     style="fill:none;stroke-width:0.0914291"
     id="path12" />
  <path
     d="m 0.45970487,0.93166993 c -0.003474,0.004206 -0.007589,0.00832 -0.0117029,0.0124343 0.004023,-0.004023 0.008137,-0.008229 0.0117029,-0.0124343 z"
     style="fill:none;stroke-width:0.0914291"
     id="path13" />
  <path
     d="m 0.38464166,1.6252508 c 0,-0.00192 -0.00128,-0.00402 -0.001646,-0.00594 C 0.3718416,1.5786219 0.36105298,1.5392159 0.35053866,1.50045 0.33911003,1.4571127 0.32822998,1.4145982 0.31771564,1.3732723 0.30692702,1.3300263 0.29659555,1.2876032 0.28699551,1.2467344 0.27675542,1.20358 0.26733824,1.1621627 0.25856107,1.1218424 c -0.00704,-0.032823 -0.0138972,-0.064641 -0.0202058,-0.095726 -0.002194,-0.010514 -0.004114,-0.020571 -0.006034,-0.0307202 -0.00384,-0.0202973 -0.007863,-0.039863 -0.0115201,-0.0591546 -0.003657,-0.0192916 -0.006674,-0.0352917 -0.009966,-0.0525717 -0.001006,-0.005851 -0.002011,-0.0117029 -0.003109,-0.0170058 l -5.4857e-4,-0.0032 -0.006309,0.005669 -0.0129829,-0.0064 c 0,0.001371 4.5714e-4,0.002926 9.1429e-4,0.004297 0.004297,0.0260573 0.009143,0.0523889 0.0138972,0.0789034 0.002743,0.0149943 0.00576,0.0303544 0.008503,0.0457146 0.008046,0.0425145 0.0165486,0.0846633 0.025783,0.1273606 0.009234,0.042697 0.0182857,0.085944 0.0281601,0.1280007 0.009874,0.042057 0.0195658,0.083566 0.0296229,0.125075 0.0100572,0.041508 0.0202973,0.082287 0.030903,0.1230635 0.0108801,0.042606 0.021943,0.084572 0.0333716,0.1256235 0.002377,0.00914 0.005029,0.018834 0.007771,0.027429 0.009143,0.033463 0.0182858,0.065921 0.0274287,0.098103 l 0.0209373,0.010514 0.006949,-0.00622 a 0.0063086,0.0063086 0 0 0 -8.2285e-4,-0.00265 c -0.0136229,-0.041143 -0.0253258,-0.082561 -0.036663,-0.1226977 z"
     style="fill:none;stroke-width:0.0914291"
     id="path14" />
  <path
     d="m 0.49280216,1.0509849 c -0.006126,0.00667 -0.0124343,0.012983 -0.0188344,0.019291 v 0 c 0.003291,-0.00302 0.006674,-0.00658 0.009783,-0.00987 a 0.11081194,0.11081202 0 0 0 0.009051,-0.00942 z"
     style="fill:#be202e;stroke-width:0.0914291"
     id="path15" />
  <path
     d="m 0.49280216,1.0509849 c -0.006126,0.00667 -0.0124343,0.012983 -0.0188344,0.019291 v 0 c 0.003291,-0.00302 0.006674,-0.00658 0.009783,-0.00987 a 0.11081194,0.11081202 0 0 0 0.009051,-0.00942 z"
     style="opacity:0.35;isolation:isolate;fill:#be202e;stroke-width:0.0914291"
     id="path16" />
  <path
     d="m 0.44489337,0.94684714 v 0 c 0.001097,-8.2285e-4 0.00192,-0.00192 0.002926,-0.002743 0.004114,-0.004114 0.008229,-0.008229 0.0117029,-0.0124343 -0.004571,0.005029 -0.009783,0.009874 -0.01472,0.0151772 z"
     style="fill:#be202e;stroke-width:0.0914291"
     id="path17" />
  <path
     d="m 0.44489337,0.94684714 v 0 c 0.001097,-8.2285e-4 0.00192,-0.00192 0.002926,-0.002743 0.004114,-0.004114 0.008229,-0.008229 0.0117029,-0.0124343 -0.004571,0.005029 -0.009783,0.009874 -0.01472,0.0151772 z"
     style="opacity:0.35;isolation:isolate;fill:#be202e;stroke-width:0.0914291"
     id="path18" />
  <path
     d="m 0.16877782,0.73985174 q -0.009143,-0.0650975 -0.0164572,-0.12800068 c -0.005029,-0.0436117 -0.009143,-0.0864004 -0.0119772,-0.12873211 0,-0.00256 -4.5714e-4,-0.00512 0,-0.007406 -0.003383,-0.0413259 -0.005394,-0.0816462 -0.006309,-0.1211435 L 0.00374849,0.29175794 c 0,0.007863 -9.143e-4,0.0160001 -0.00118858,0.0245944 -0.00128,0.0311773 -0.002285723,0.0640003 -0.00256001,0.0992005 0,0.0393145 0,0.0802747 7.3143152e-4,0.12315494 9.1428848e-4,0.0394973 0.002560018,0.0806405 0.004662888,0.12251493 0.00210285,0.0358402 0.00448001,0.0720461 0.00740574,0.10898343 0,0.001554 0,0.00256 0,0.004206 l 0.17426365,0.088229 c -0.00576,-0.0412345 -0.0121601,-0.0821947 -0.0182858,-0.1227894 z"
     style="fill:url(#linearGradient51);stroke-width:0.0914291"
     id="path19" />
  <path
     d="m 0.42660757,1.7702572 c 0.009143,0.032548 0.019383,0.066103 0.0299888,0.1001148 0,0 0,0.00101 0,0.00137 0.001463,0.00494 0.002651,0.0096 0.00448,0.014354 0.006949,0.022948 0.0136229,0.043337 0.0280687,0.089966 A 0.17618366,0.17618379 0 0 1 0.58916839,2.000016 0.14290351,0.14290361 0 0 0 0.49399079,1.948268 0.30619569,0.30619591 0 0 0 0.66103155,1.6760837 c -0.001097,-0.00969 -0.002377,-0.019748 -0.004297,-0.029806 A 0.12315485,0.12315494 0 0 1 0.58669995,1.751604 v 0 0 a 0.34432157,0.34432181 0 0 0 0.0557717,-0.2169612 c -0.001371,-0.017646 -0.003657,-0.036571 -0.006857,-0.056594 A 0.27940699,0.27940719 0 0 1 0.47360207,1.7031483 l -0.0528459,0.04864 c 0.00192,0.00613 0.003566,0.01216 0.005851,0.018469 z"
     style="fill:url(#linearGradient50);stroke-width:0.0914291"
     id="path20" />
  <path
     d="m 0.35831011,1.6215021 c -0.0110629,-0.041326 -0.0221258,-0.083292 -0.0333716,-0.1256235 -0.0106058,-0.040594 -0.0207544,-0.081555 -0.030903,-0.1230635 -0.0101486,-0.041509 -0.0199315,-0.083292 -0.029623,-0.125075 -0.009691,-0.041783 -0.0192001,-0.085395 -0.0281601,-0.1280007 -0.00896,-0.042605 -0.0173715,-0.085121 -0.025783,-0.12736059 -0.003017,-0.0153601 -0.00576,-0.0303544 -0.008503,-0.0457145 -0.004846,-0.0261487 -0.009143,-0.0524803 -0.0138972,-0.0789033 0,-0.001371 -4.5715e-4,-0.002926 -9.143e-4,-0.004297 l -0.1732578,-0.0884121 a 0.06208029,0.06208033 0 0 1 6.4e-4,0.00832 c 0.0034743,0.039223 0.0068572,0.0790862 0.01152005,0.11885777 0.0046628,0.0397716 0.0096915,0.0813719 0.01572579,0.12260642 0.00512,0.034743 0.01060576,0.069211 0.01636579,0.1040462 0.0011886,0.00686 0.00256,0.01408 0.0037486,0.020846 0.0079544,0.043063 0.01654864,0.084664 0.02578297,0.1235206 0.01033148,0.044069 0.02148582,0.085395 0.03264015,0.1239779 0.007497,0.025234 0.0149029,0.049554 0.0224915,0.072595 0.006583,0.019383 0.0137143,0.038857 0.0205716,0.058058 0.0165486,0.045074 0.0349259,0.088778 0.0548574,0.131475 l 0.17508651,0.088686 c -0.009143,-0.032183 -0.0182857,-0.064914 -0.0274287,-0.098104 -0.00256,-0.0096 -0.004937,-0.018834 -0.007589,-0.028435 z"
     style="fill:url(#d);stroke-width:0.0914291"
     id="path21" />
  <path
     d="m 0.22061806,1.6647481 a 1.3586348,1.3586357 0 0 0 0.080549,0.148755 c 0.001006,0.00146 0.002011,0.00347 0.003017,0.00494 A 0.35328162,0.35328186 0 0 0 0.17069783,1.8081088 0.49097367,0.49097402 0 0 1 0.38583024,1.933458 0.22564675,0.2256469 0 0 1 0.28416121,1.9844755 0.22491532,0.22491547 0 0 0 0.39570457,1.9746012 0.27428697,0.27428716 0 0 0 0.32786427,2.106899 0.281967,0.2819672 0 0 1 0.4380362,1.9902355 c 0.0525716,0.1742638 0.11584052,0.3631562 0.18596656,0.5613744 a 0.05275453,0.05275456 0 0 0 0.008229,-0.049463 C 0.61933989,2.4665809 0.53586522,2.2307853 0.44068765,1.9107837 c -0.002743,-0.00914 -0.00512,-0.018286 -0.008137,-0.027429 -8.2286e-4,-0.00265 -0.001463,-0.00494 -0.002286,-0.00768 Q 0.4156361,1.8253889 0.40045888,1.7721772 c -0.002194,-0.00823 -0.004571,-0.015909 -0.006766,-0.024228 v 0 L 0.21860661,1.6592624 a 0.03264015,0.03264017 0 0 0 0.002011,0.00549 z"
     style="fill:url(#e);stroke-width:0.0914291"
     id="path22" />
  <path
     d="m 0.20772657,0.86638954 c 0.001006,0.005851 0.002103,0.0110629 0.003109,0.0170058 0.003383,0.0173716 0.0064,0.034926 0.009966,0.0525717 0.003657,0.0192916 0.00768,0.0389488 0.0115201,0.0591546 0.00192,0.0101486 0.00384,0.0202973 0.006034,0.0307202 0.006309,0.031086 0.0131658,0.062903 0.0202058,0.095726 0.009143,0.04032 0.0182857,0.081738 0.0284344,0.1248921 0.009143,0.040777 0.0199316,0.083292 0.0307202,0.1265378 0.0105144,0.041234 0.0211201,0.083475 0.032823,0.1271778 0.0102401,0.038674 0.021303,0.078446 0.0324573,0.1188577 0,0.00192 0.00128,0.00402 0.001646,0.00594 0.0112458,0.040137 0.0230401,0.081555 0.0352916,0.1237035 a 0.0063086,0.0063086 0 0 0 8.2285e-4,0.00265 l 0.0528459,-0.04864 c -0.001371,0 -0.002377,0.00119 -0.004114,0.00192 A 0.5071566,0.50715696 0 0 0 0.59821977,1.4199011 0.68297455,0.68297503 0 0 0 0.59657406,1.2610888 1.0902907,1.0902915 0 0 0 0.5711568,1.1252252 C 0.56073391,1.0833508 0.5479338,1.0389165 0.53229947,0.99210453 a 0.26432122,0.2643214 0 0 1 -0.0403201,0.0582403 l -0.009143,0.010057 c -0.003017,0.00338 -0.0064,0.00631 -0.009783,0.00987 v 0 A 0.3087557,0.30875592 0 0 0 0.5110877,0.84105924 0.29037847,0.29037867 0 0 1 0.45879026,0.9316655 c -0.003474,0.004206 -0.007589,0.00832 -0.0117029,0.0124343 -0.001097,8.2287e-4 -0.00192,0.00192 -0.003291,0.003017 v 0 a 0.32183004,0.32183027 0 0 0 0.0339202,-0.0744233 0.13796634,0.13796644 0 0 0 0.003931,-0.0155429 c 0.001829,-0.007954 0.003109,-0.0160001 0.004297,-0.0240458 4.5714e-4,-0.005303 0.00128,-0.0102401 0.001737,-0.0156343 a 0.22500675,0.2250069 0 0 0 0,-0.0377602 c 0,-0.004206 0,-0.007954 -0.001006,-0.0118858 -0.001006,-0.005851 -0.001737,-0.0113372 -0.002834,-0.01664 -0.004206,-0.0244116 -0.009143,-0.0457145 -0.0136229,-0.0640003 -0.002377,-0.009143 -0.004571,-0.0175543 -0.006949,-0.025143 -0.001097,-0.003017 -0.001646,-0.005943 -0.002743,-0.009143 -0.002834,-0.00832 -0.00512,-0.016 -0.00768,-0.0224001 a 0.22418388,0.22418404 0 0 0 -0.0096,-0.0221258 v 0 a 0.04864023,0.04864026 0 0 1 -0.00384,0.0105144 0.34276728,0.34276752 0 0 1 -0.0594288,0.0853947 l 0.0487316,-0.044526 -0.0490059,0.0442517 a 0.00164572,0.00164572 0 0 0 -8.2287e-4,0.001189 0.09892617,0.09892624 0 0 0 -0.007131,0.007954 c 0,-6.4e-4 8.2287e-4,-0.001189 9.143e-4,-0.001737 L 0.20626291,0.86364233 c 0.001371,0.001189 0.001554,0.002103 0.001463,0.002743 z"
     style="fill:url(#f);stroke-width:0.0914291"
     id="path23" />
  <path
     d="m 0.14317771,0.35155254 c 0.002011,0.0365716 0.005211,0.0775318 0.009143,0.12288065 a 0.04434306,0.04434309 0 0 0 8.2287e-4,0.007131 c 0.003749,0.0395887 0.008594,0.0822862 0.0148115,0.12882354 0.005303,0.0401373 0.0111543,0.0822862 0.0182859,0.12800066 0.005943,0.0395887 0.0132572,0.0810062 0.0207544,0.12498353 L 0.37339591,0.71096015 a 0.27309839,0.27309858 0 0 0 0.041783,-0.15058365 c 0,-0.0130743 -0.001006,-0.0267887 -0.002011,-0.0408687 A 1.3096288,1.3096297 0 0 0 0.39872174,0.3885813 1.1392052,1.139206 0 0 0 0.37394448,0.27091211 0.62400285,0.62400329 0 0 0 0.35483583,0.21120894 C 0.34889278,0.19630602 0.34267573,0.1826831 0.33654998,0.1697002 A 2.6331549,2.6331568 0 0 1 0.14317771,0.35155254 Z"
     style="fill:url(#g);stroke-width:0.0914291"
     id="path24" />
  <path
     d="m 0.48393355,1.0605849 c -0.003017,0.00338 -0.0064,0.00631 -0.009783,0.00987 v 0 a 0.12717772,0.12717781 0 0 1 0.009783,-0.00987 z"
     style="fill:#be202e;stroke-width:0.0914291"
     id="path25" />
  <path
     d="m 0.48393355,1.0605849 c -0.003017,0.00338 -0.0064,0.00631 -0.009783,0.00987 v 0 a 0.12717772,0.12717781 0 0 1 0.009783,-0.00987 z"
     style="opacity:0.35;isolation:isolate;fill:#be202e;stroke-width:0.0914291"
     id="path26" />
  <path
     d="m 0.48393355,1.0605849 c -0.003017,0.00338 -0.0064,0.00631 -0.009783,0.00987 v 0 a 0.12717772,0.12717781 0 0 1 0.009783,-0.00987 z"
     style="fill:url(#h);stroke-width:0.0914291"
     id="path27" />
  <path
     d="m 0.44489337,0.94712144 c 0.001097,-8.2287e-4 0.00192,-0.00192 0.003291,-0.003017 -0.001097,8.2287e-4 -0.00192,0.00192 -0.003291,0.003017 z"
     style="fill:#be202e;stroke-width:0.0914291"
     id="path28" />
  <path
     d="m 0.44489337,0.94712144 c 0.001097,-8.2287e-4 0.00192,-0.00192 0.003291,-0.003017 -0.001097,8.2287e-4 -0.00192,0.00192 -0.003291,0.003017 z"
     style="opacity:0.35;isolation:isolate;fill:#be202e;stroke-width:0.0914291"
     id="path29" />
  <path
     d="m 0.44489337,0.94712144 c 0.001097,-8.2287e-4 0.00192,-0.00192 0.003291,-0.003017 -0.001097,8.2287e-4 -0.00192,0.00192 -0.003291,0.003017 z"
     style="fill:url(#i);stroke-width:0.0914291"
     id="path30" />
  <path
     d="M 1.7456537,0.08147112 A 0.98642733,0.98642806 0 0 0 1.5237554,0.24805485 l 0.054858,0.1545151 A 1.8539971,1.8539984 0 0 1 1.7706137,0.22291186 c 0.00466,-0.00384 0.0075,-0.006034 0.0075,-0.006034 -0.00238,0.002194 -0.00512,0.00384 -0.0075,0.006034 a 1.6482818,1.648283 0 0 0 -0.1828579,0.18404669 2.873796,2.873798 0 0 0 0.3006185,0.006583 0.31451573,0.31451595 0 0 0 0.00649,-0.24128127 c 0,0 -0.055954,-0.12928068 -0.149212,-0.09078905 z"
     style="fill:url(#j);stroke-width:0.0914291"
     id="path31" />
  <path
     d="m 1.4963267,0.88019533 a 0.00182858,0.00182859 0 0 0 0.00155,0 l -0.011063,-6.4001e-4 c -5.486e-4,0 -0.00155,0 -0.0021,7.3144e-4 z"
     style="fill:none;stroke-width:0.0914291"
     id="path32" />
  <path
     d="m 1.3815833,1.1253167 c -0.00622,6.4e-4 -0.0128,6.4e-4 -0.019383,7.314e-4 0.00667,-9.14e-5 0.013257,-9.14e-5 0.019383,-7.314e-4 z"
     style="fill:none;stroke-width:0.0914291"
     id="path33" />
  <path
     d="m 0.77019772,1.6240622 c 0.00128,-0.00183 0.002103,-0.00421 0.003383,-0.00613 0.0233144,-0.041691 0.0457145,-0.082287 0.0685718,-0.1216921 0.0252344,-0.043977 0.0502859,-0.086858 0.074606,-0.1280007 0.0256001,-0.043337 0.0511088,-0.085761 0.0757946,-0.1262634 0.0260573,-0.042788 0.0512917,-0.083658 0.0763432,-0.1230636 0.020388,-0.032 0.040137,-0.062995 0.059794,-0.093075 0.00658,-0.010149 0.013074,-0.01984 0.019566,-0.0295316 0.012983,-0.019383 0.025417,-0.0383088 0.03776,-0.0567775 0.011611,-0.0170058 0.022674,-0.0336459 0.033737,-0.050286 0.00384,-0.005486 0.00768,-0.0110629 0.010971,-0.0160915 l 0.00192,-0.002743 h -0.00914 l -0.0053,-0.0154515 c -7.314e-4,0.001371 -0.00192,0.002743 -0.00265,0.004206 -0.01728,0.0243201 -0.03456,0.0491888 -0.051474,0.0745147 -0.00969,0.0142629 -0.019474,0.0290744 -0.029714,0.0437946 -0.027428,0.0405945 -0.054034,0.0812804 -0.080366,0.1230635 -0.026331,0.041783 -0.053395,0.083932 -0.079269,0.1257149 -0.0258743,0.041783 -0.0506516,0.082744 -0.0755203,0.1242521 -0.0248687,0.041508 -0.0490974,0.082287 -0.0731432,0.1236121 -0.0250515,0.042971 -0.0495545,0.085486 -0.0731432,0.1280007 -0.005394,0.00914 -0.0108801,0.0192 -0.0158172,0.028617 -0.0192001,0.034194 -0.0377602,0.067475 -0.0558632,0.100572 l 0.008503,0.025051 0.0106058,5.486e-4 a 0.00713146,0.00713147 0 0 0 0.001463,-0.00283 c 0.0221258,-0.04608 0.0456231,-0.088778 0.0683889,-0.130012 z"
     style="fill:none;stroke-width:0.0914291"
     id="path34" />
  <path
     d="m 1.3134688,1.2476487 c -0.01024,5.486e-4 -0.020388,5.486e-4 -0.030537,5.486e-4 v 0 c 0.00503,0 0.010606,0 0.015726,0 a 0.12534915,0.12534924 0 0 0 0.014811,-5.486e-4 z"
     style="fill:#be202e;stroke-width:0.0914291"
     id="path35" />
  <path
     d="m 1.3134688,1.2476487 c -0.01024,5.486e-4 -0.020388,5.486e-4 -0.030537,5.486e-4 v 0 c 0.00503,0 0.010606,0 0.015726,0 a 0.12534915,0.12534924 0 0 0 0.014811,-5.486e-4 z"
     style="opacity:0.35;isolation:isolate;fill:#be202e;stroke-width:0.0914291"
     id="path36" />
  <path
     d="m 1.3577204,1.1258652 v 0 c 0.00146,0 0.00302,0 0.00457,0 0.00658,0 0.013166,0 0.019383,-7.314e-4 -0.00768,0 -0.015726,0 -0.023863,5.486e-4 z"
     style="fill:#be202e;stroke-width:0.0914291"
     id="path37" />
  <path
     d="m 1.3577204,1.1258652 v 0 c 0.00146,0 0.00302,0 0.00457,0 0.00658,0 0.013166,0 0.019383,-7.314e-4 -0.00768,0 -0.015726,0 -0.023863,5.486e-4 z"
     style="opacity:0.35;isolation:isolate;fill:#be202e;stroke-width:0.0914291"
     id="path38" />
  <path
     d="m 1.2998459,0.73976031 q 0.044434,-0.0596118 0.088503,-0.11629777 c 0.030537,-0.0391316 0.061441,-0.0766175 0.092618,-0.11309773 0.00183,-0.002286 0.00375,-0.00448 0.00549,-0.006309 0.030537,-0.0355659 0.060892,-0.0695775 0.091429,-0.10212626 L 1.523024,0.24787199 c -0.00649,0.006126 -0.01344,0.0122515 -0.02048,0.018743 C 1.47667,0.29066079 1.449607,0.31662669 1.42172,0.34442109 1.390269,0.37578129 1.357719,0.40906139 1.324439,0.44417019 1.293811,0.47671899 1.26245,0.51109629 1.230907,0.5464793 1.204119,0.5770167 1.177238,0.608011 1.150266,0.6401027 l -0.00311,0.003566 0.070127,0.20946396 C 1.245169,0.81537246 1.272506,0.77715516 1.299844,0.73976064 Z"
     style="fill:url(#k);stroke-width:0.0914291"
     id="path39" />
  <path
     d="m 0.68836877,1.7737315 c -0.0182858,0.033829 -0.0365716,0.068572 -0.0553146,0.104412 0,4.572e-4 -6.4e-4,9.143e-4 -7.3143e-4,0.00137 -0.002743,0.00521 -0.005486,0.00987 -0.007771,0.015086 -0.0126172,0.023954 -0.0234058,0.045714 -0.0488231,0.094721 a 0.1993152,0.19931533 0 0 1 0.0615317,0.098744 0.16164646,0.16164657 0 0 0 -0.0354744,-0.117212 c 0.14244636,0.027428 0.27181838,0.00914 0.35072163,-0.086401 0.006857,-0.00859 0.0137143,-0.017737 0.0202058,-0.027429 a 0.13933777,0.13933787 0 0 1 -0.14006916,0.029074 v 0 A 0.38948749,0.38948777 0 0 0 1.049879,1.7554457 c 0.012891,-0.01536 0.025966,-0.032183 0.039406,-0.051018 a 0.31597859,0.31597881 0 0 1 -0.30930429,0.052481 l -0.081189,-0.00283 c -0.003474,0.00695 -0.00704,0.013074 -0.0104229,0.019657 z"
     style="fill:url(#l);stroke-width:0.0914291"
     id="path40" />
  <path
     d="m 0.75191192,1.6000164 c 0.0239544,-0.042149 0.0483659,-0.084664 0.0731432,-0.1280008 0.0237715,-0.041143 0.0480002,-0.082286 0.0731432,-0.123612 0.025143,-0.041326 0.0501945,-0.082835 0.0755203,-0.1242522 0.0253258,-0.041417 0.0523888,-0.084024 0.0792689,-0.1257149 0.02688,-0.041691 0.053668,-0.082286 0.080366,-0.12306349 0.00978,-0.0148115 0.019474,-0.0290744 0.029714,-0.0437946 0.016823,-0.0248687 0.034194,-0.0497374 0.051475,-0.0745147 7.314e-4,-0.001371 0.00192,-0.002743 0.00265,-0.004206 l -0.06921,-0.2088236 a 0.07021747,0.07021752 0 0 1 -0.00613,0.007223 c -0.028343,0.0343773 -0.057234,0.0691204 -0.085395,0.10505198 -0.02816,0.0359316 -0.0568689,0.0731432 -0.0847547,0.11126916 -0.0234973,0.0320002 -0.046446,0.0640003 -0.0694861,0.096732 -0.00448,0.0064 -0.009143,0.0133486 -0.0135315,0.0198401 -0.0274287,0.0410516 -0.0540346,0.0812803 -0.0774404,0.11995495 -0.0266973,0.043703 -0.0506516,0.085852 -0.0721375,0.125715 -0.0139886,0.026331 -0.0274287,0.051748 -0.0395887,0.076344 -0.0101486,0.020846 -0.0198401,0.042148 -0.0295315,0.063085 -0.0224915,0.049371 -0.0424231,0.099201 -0.0604346,0.1493037 l 0.0704918,0.2102868 c 0.0182858,-0.033371 0.0371202,-0.066561 0.0558631,-0.1005719 0.005029,-0.00905 0.0106972,-0.018377 0.016,-0.028251 z"
     style="fill:url(#m);stroke-width:0.0914291"
     id="path41" />
  <path
     d="m 0.60672268,1.525593 a 1.5367384,1.5367395 0 0 0 -0.0533031,0.1837725 c 0,0.00201 -0.001189,0.00439 -0.001463,0.0064 A 0.39954469,0.39954497 0 0 0 0.4526647,1.6013878 0.55533968,0.55534008 0 0 1 0.52626501,1.8732063 0.25526973,0.25526992 0 0 1 0.4038416,1.833435 0.25435544,0.25435562 0 0 0 0.5014877,1.914167 0.31085856,0.31085878 0 0 0 0.34176125,1.966738 0.31890431,0.31890454 0 0 1 0.52315637,1.960428 C 0.42660757,2.1423735 0.32786427,2.344706 0.22683522,2.5600214 a 0.0596117,0.05961175 0 0 0 0.0457145,-0.03328 c 0.0182857,-0.038948 0.13805777,-0.2949502 0.3157043,-0.6283005 0.004937,-0.00914 0.0103315,-0.018743 0.01536,-0.028709 0.001463,-0.00283 0.002743,-0.00521 0.004206,-0.00795 q 0.0281599,-0.052118 0.05824,-0.1069757 c 0.004754,-0.00841 0.009143,-0.016457 0.0138058,-0.024868 V 1.7294798 L 0.60937413,1.519193 a 0.0365716,0.03657163 0 0 0 -0.002651,0.0064 z"
     style="fill:url(#n);stroke-width:0.0914291"
     id="path42" />
  <path
     d="m 1.2306342,0.87260671 c -0.00384,0.005486 -0.00713,0.0106058 -0.010971,0.0160915 -0.011063,0.01664 -0.022583,0.0331888 -0.033737,0.050286 -0.011154,0.0170972 -0.024777,0.0373945 -0.03776,0.0567775 -0.00649,0.009691 -0.012983,0.019383 -0.019566,0.0295316 -0.019657,0.03008 -0.039405,0.061165 -0.059794,0.093075 C 1.0437552,1.1577743 1.0185202,1.1986433 0.992463,1.2414318 0.9677773,1.2819348 0.9422686,1.3242668 0.9166684,1.3676953 0.8923483,1.4092033 0.8673882,1.4517193 0.8420624,1.495696 0.8195709,1.53501 0.7968965,1.575697 0.7734906,1.617388 0.7722106,1.619218 0.7713876,1.621598 0.7701076,1.623518 0.7473418,1.664752 0.7238445,1.70745 0.7001644,1.7515187 a 0.00713146,0.00713147 0 0 0 -0.001463,0.00283 l 0.081189,0.00283 c -0.001371,-7.314e-4 -0.002926,-9.143e-4 -0.004846,-0.00174 a 0.57362548,0.57362589 0 0 0 0.3297833,-0.126988 0.77248353,0.77248408 0 0 0 0.125075,-0.1290064 1.2331027,1.2331037 0 0 0 0.087406,-0.129555 c 0.024868,-0.041966 0.04992,-0.087955 0.074515,-0.1380578 a 0.29888136,0.29888157 0 0 1 -0.078721,0.014811 l -0.01536,8.229e-4 c -0.00512,0 -0.010148,0 -0.015726,0 v 0 A 0.34925874,0.34925899 0 0 0 1.4946803,1.0931332 0.32841293,0.32841316 0 0 1 1.3805769,1.1245845 c -0.00622,6.4e-4 -0.0128,6.4e-4 -0.019383,7.315e-4 -0.00146,0 -0.00302,0 -0.00503,0 v 0 a 0.36397881,0.36397906 0 0 0 0.086401,-0.032914 0.15606928,0.15606939 0 0 0 0.015543,-0.00914 c 0.00786,-0.00494 0.015177,-0.010423 0.022583,-0.015909 0.00466,-0.00384 0.00914,-0.00731 0.013805,-0.011154 a 0.2545383,0.25453848 0 0 0 0.029806,-0.030628 c 0.00311,-0.00357 0.00603,-0.00667 0.00859,-0.010423 0.00384,-0.00549 0.00759,-0.010514 0.01088,-0.0156345 0.016,-0.0229487 0.029257,-0.043886 0.040137,-0.0625375 0.00539,-0.009143 0.01024,-0.0177373 0.014446,-0.025783 0.00146,-0.003291 0.00338,-0.006126 0.00494,-0.009143 0.00439,-0.009143 0.00859,-0.0170058 0.011611,-0.0241373 a 0.25353259,0.25353277 0 0 0 0.00978,-0.0254173 v 0 a 0.0548574,0.05485743 0 0 1 -0.011428,0.005394 0.38765892,0.38765919 0 0 1 -0.1156578,0.0215773 l 0.074607,0.002834 -0.074607,-0.002834 a 0.00182858,0.00182859 0 0 0 -0.00155,0 0.11190908,0.11190916 0 0 0 -0.011703,0 c 5.486e-4,0 0.00155,0 0.0021,-7.3143e-4 l -0.2550826,-0.009145 c 4.572e-4,0.001646 -1.828e-4,0.00256 -7.312e-4,0.003017 z"
     style="fill:url(#o);stroke-width:0.0914291"
     id="path43" />
  <path
     d="m 1.5877558,0.40704998 c -0.027429,0.0309945 -0.057418,0.0665604 -0.090149,0.10642342 a 0.05010309,0.05010312 0 0 0 -0.00503,0.0064 c -0.028434,0.0348345 -0.058331,0.0731432 -0.090424,0.11547489 -0.027429,0.0365716 -0.056686,0.0753375 -0.087223,0.11794349 -0.026697,0.0365716 -0.053668,0.0757946 -0.082287,0.11712062 l 0.2550869,0.009143 A 0.30893855,0.30893877 0 0 0 1.6410561,0.7916007 c 0.010149,-0.0106972 0.02048,-0.0223087 0.030903,-0.0344688 a 1.4811497,1.4811507 0 0 0 0.092069,-0.11712062 1.2885088,1.2885097 0 0 0 0.073144,-0.11437774 0.7058318,0.70583229 0 0 0 0.032091,-0.0631775 c 0.00704,-0.0167315 0.012891,-0.0325488 0.018286,-0.0480003 a 2.9787565,2.9787586 0 0 1 -0.2997956,-0.007406 z"
     style="fill:url(#p);stroke-width:0.0914291"
     id="path44" />
  <path
     d="m 1.2986572,1.2484716 c -0.00512,0 -0.010148,0 -0.015726,0 v 0 a 0.1438178,0.1438179 0 0 1 0.015726,0 z"
     style="fill:#be202e;stroke-width:0.0914291"
     id="path45" />
  <path
     d="m 1.2986572,1.2484716 c -0.00512,0 -0.010148,0 -0.015726,0 v 0 a 0.1438178,0.1438179 0 0 1 0.015726,0 z"
     style="opacity:0.35;isolation:isolate;fill:#be202e;stroke-width:0.0914291"
     id="path46" />
  <path
     d="m 1.2986572,1.2484716 c -0.00512,0 -0.010148,0 -0.015726,0 v 0 a 0.1438178,0.1438179 0 0 1 0.015726,0 z"
     style="fill:url(#q);stroke-width:0.0914291"
     id="path47" />
  <path
     d="m 1.3571718,1.1257738 c 0.00146,0 0.00302,0 0.00503,0 -0.00146,0 -0.00302,0 -0.00503,0 z"
     style="fill:#be202e;stroke-width:0.0914291"
     id="path48" />
  <path
     d="m 1.3571718,1.1257738 c 0.00146,0 0.00302,0 0.00503,0 -0.00146,0 -0.00302,0 -0.00503,0 z"
     style="opacity:0.35;isolation:isolate;fill:#be202e;stroke-width:0.0914291"
     id="path49" />
  <path
     d="m 1.3571718,1.1257738 c 0.00146,0 0.00302,0 0.00503,0 -0.00146,0 -0.00302,0 -0.00503,0 z"
     style="fill:url(#r);stroke-width:0.0914291"
     id="path50" />
</svg>
