<?xml version="1.0" encoding="UTF-8" standalone="no"?>
<svg
   xml:space="preserve"
   width="34.410999"
   height="64"
   x="0px"
   y="0px"
   viewBox="0 0 34.410999 64.000001"
   version="1.1"
   id="svg7"
   sodipodi:docname="oracle_java.svg"
   inkscape:version="1.4 (e7c3feb100, 2024-10-09)"
   xmlns:inkscape="http://www.inkscape.org/namespaces/inkscape"
   xmlns:sodipodi="http://sodipodi.sourceforge.net/DTD/sodipodi-0.dtd"
   xmlns="http://www.w3.org/2000/svg"
   xmlns:svg="http://www.w3.org/2000/svg"><defs
     id="defs7" /><sodipodi:namedview
     id="namedview7"
     pagecolor="#ffffff"
     bordercolor="#000000"
     borderopacity="0.25"
     inkscape:showpageshadow="2"
     inkscape:pageopacity="0.0"
     inkscape:pagecheckerboard="0"
     inkscape:deskcolor="#d1d1d1"
     inkscape:zoom="0.58552068"
     inkscape:cx="500.40931"
     inkscape:cy="929.94153"
     inkscape:window-width="2560"
     inkscape:window-height="1300"
     inkscape:window-x="0"
     inkscape:window-y="0"
     inkscape:window-maximized="1"
     inkscape:current-layer="svg7" /><path
     d="m 32.961213,50.468895 h -0.241116 v -0.134856 h 0.64909 v 0.13489 h -0.239499 v 0.673006 h -0.168475 z m 1.294671,0.03517 h -0.0038 l -0.23888,0.637976 h -0.109323 l -0.237365,-0.637976 h -0.003 v 0.637976 H 33.5048 v -0.807896 h 0.233649 l 0.220091,0.572079 0.219369,-0.572079 h 0.232858 v 0.807896 h -0.154986 v -0.637976 z"
     style="fill:#e11f21;fill-opacity:1;stroke-width:0.11832"
     id="path1" /><path
     d="m 11.376957,33.948974 c 0,0 -1.6775254,0.975545 1.193847,1.305648 3.478584,0.396859 5.256485,0.339944 9.089948,-0.385607 0,0 1.007822,0.631954 2.41536,1.179291 C 15.482539,39.731394 4.627147,35.83496 11.376957,33.948974 m -1.050114,-4.806152 c 0,0 -1.8815118,1.392742 0.991994,1.689948 3.71595,0.383336 6.650569,0.414718 11.728462,-0.563064 0,0 0.702358,0.712028 1.806772,1.10142 -10.390159,3.03823 -21.9629128,0.239602 -14.527193,-2.228304"
     style="fill:#0b6fb6;fill-opacity:1;stroke-width:0.11832"
     id="path2" /><path
     d="m 19.179426,20.989983 c 2.117466,2.437865 -0.556319,4.631586 -0.556319,4.631586 0,0 5.376579,-2.775573 2.907366,-6.251198 -2.30621,-3.241253 -4.074717,-4.851711 5.499391,-10.404336 0,0 -15.028214,3.75332 -7.850438,12.023913"
     style="fill:#e11f21;fill-opacity:1;stroke-width:0.11832"
     id="path3" /><path
     d="m 30.54513,37.503882 c 0,0 1.241403,1.022894 -1.367174,1.814204 C 24.217644,40.82077 8.5325281,41.27451 4.1752648,39.377961 2.6089555,38.696559 5.5462586,37.750951 6.4702221,37.552539 7.4337923,37.343562 7.9844678,37.382481 7.9844678,37.382481 6.2425948,36.155393 -3.2744941,39.791957 3.1502713,40.833433 20.671545,43.674868 35.089932,39.553903 30.54513,37.503882 M 12.183648,24.163068 c 0,0 -7.9784458,1.895001 -2.8253647,2.583182 2.1757927,0.291287 6.5131667,0.225391 10.5533007,-0.113142 3.30185,-0.278521 6.617293,-0.870696 6.617293,-0.870696 0,0 -1.164254,0.498612 -2.006595,1.073754 -8.101946,2.130817 -23.75340783,1.139546 -19.2475932,-1.040032 3.8106483,-1.842008 6.9089592,-1.633066 6.9089592,-1.633066 m 14.312333,8.000091 c 8.23601,-4.279736 4.428012,-8.392545 1.77009,-7.838429 -0.6515,0.135579 -0.941961,0.253057 -0.941961,0.253057 0,0 0.241839,-0.378863 0.703769,-0.542864 5.258241,-1.848616 9.302194,5.452317 -1.697414,8.343922 0,1.04e-4 0.127423,-0.113796 0.165516,-0.215686"
     style="fill:#0b6fb6;fill-opacity:1;stroke-width:0.11832"
     id="path4" /><path
     d="m 21.530473,0 c 0,0 4.561216,4.5627644 -4.326156,11.579051 -7.12678,5.628225 -1.625118,8.837304 -0.003,12.503806 C 13.041336,20.329502 9.9884477,17.025415 12.036576,13.950262 15.042667,9.4362925 23.37076,7.2477333 21.530438,0"
     style="fill:#e11f21;fill-opacity:1;stroke-width:0.11832"
     id="path5" /><path
     d="m 12.992955,43.76031 c 7.905529,0.506044 20.045407,-0.280792 20.332943,-4.021483 0,0 -0.552671,1.418067 -6.533503,2.544263 -6.747573,1.269792 -15.069714,1.12155 -20.0056627,0.307735 1.032e-4,0 1.0104377,0.836285 6.2062227,1.169485"
     style="fill:#0b6fb6;fill-opacity:1;stroke-width:0.11832"
     id="path6" /><path
     d="m 11.697355,58.053579 c -0.745784,0.646853 -1.533447,1.00999 -2.2402784,1.00999 -1.0089237,0 -1.5539902,-0.604941 -1.5539902,-1.575325 0,-1.049597 0.5840195,-1.817026 2.9270826,-1.817026 h 0.867049 v 2.382361 m 2.05797,2.321797 v -7.186998 c 0,-1.835952 -1.04712,-3.047418 -3.571838,-3.047418 -1.4739505,0 -2.7650425,0.363929 -3.8144332,0.828096 l 0.3029179,1.272166 c 0.8262025,-0.303228 1.8956892,-0.585534 2.9454584,-0.585534 1.4543709,0 2.0800619,0.585568 2.0800619,1.796208 v 0.908341 H 10.97146 c -3.5336416,0 -5.1276515,1.371682 -5.1276515,3.430581 0,1.7768 1.0504574,2.786756 3.0282851,2.786756 1.2713744,0 2.2203894,-0.524833 3.1075674,-1.292985 l 0.161042,1.090925 h 1.614485 z m 6.867735,3.5e-5 H 18.056362 L 14.967514,50.322925 h 2.24131 l 1.91668,6.176285 0.42604,1.857493 c 0.969626,-2.685623 1.655433,-5.410267 1.99844,-8.033778 h 2.180266 c -0.584123,3.310247 -1.635303,6.943611 -3.107293,10.052451 m 9.845712,-2.321797 c -0.747161,0.646853 -1.536234,1.00999 -2.243066,1.00999 -1.007168,0 -1.553646,-0.604941 -1.553646,-1.575325 0,-1.049597 0.585431,-1.817026 2.928288,-1.817026 h 0.868459 v 2.382361 m 2.057591,2.321797 v -7.186998 c 0,-1.835952 -1.049734,-3.047418 -3.571493,-3.047418 -1.474983,0 -2.766557,0.363929 -3.815466,0.828096 l 0.302436,1.272166 c 0.826547,-0.303228 1.898098,-0.585534 2.946973,-0.585534 1.453339,0 2.079959,0.585568 2.079959,1.796208 v 0.908341 h -0.7271 c -3.534674,0 -5.127961,1.371682 -5.127961,3.430581 0,1.7768 1.049597,2.786756 3.027115,2.786756 1.272028,0 2.220733,-0.524833 3.109426,-1.292985 l 0.161627,1.090925 h 1.614484 z M 3.5874601,62.082529 C 3.0008253,62.939013 2.0533249,63.61663 1.0160123,64 L 0,62.804364 C 0.78955504,62.399246 1.4666901,61.744925 1.7813077,61.135441 2.0534281,60.593472 2.1660889,59.894899 2.1660889,58.224325 V 46.747887 h 2.1863225 v 11.319181 c -1.032e-4,2.23343 -0.1786607,3.135612 -0.7649513,4.015426"
     style="fill:#e11f21;fill-opacity:1;stroke-width:0.11832"
     id="path7" /></svg>
