<?xml version="1.0" encoding="UTF-8" standalone="no"?>
<svg
   width="47.201"
   height="64"
   viewBox="0 0 6.5315979 8.8576"
   preserveAspectRatio="xMinYMin"
   version="1.1"
   id="svg5"
   sodipodi:docname="java.svg"
   inkscape:version="1.4 (e7c3feb100, 2024-10-09)"
   xmlns:inkscape="http://www.inkscape.org/namespaces/inkscape"
   xmlns:sodipodi="http://sodipodi.sourceforge.net/DTD/sodipodi-0.dtd"
   xmlns="http://www.w3.org/2000/svg"
   xmlns:svg="http://www.w3.org/2000/svg">
  <defs
     id="defs5" />
  <sodipodi:namedview
     id="namedview5"
     pagecolor="#ffffff"
     bordercolor="#000000"
     borderopacity="0.25"
     inkscape:showpageshadow="2"
     inkscape:pageopacity="0.0"
     inkscape:pagecheckerboard="0"
     inkscape:deskcolor="#d1d1d1"
     inkscape:zoom="0.4356"
     inkscape:cx="925.1607"
     inkscape:cy="1250"
     inkscape:window-width="2560"
     inkscape:window-height="1300"
     inkscape:window-x="0"
     inkscape:window-y="0"
     inkscape:window-maximized="1"
     inkscape:current-layer="svg5" />
  <path
     d="m 2.103917,6.8500937 c 0,0 -0.3384744,0.1968322 0.2408918,0.2634345 0.7019023,0.080067 1.0606114,0.068603 1.834117,-0.07781 0,0 0.2033719,0.1275114 0.4873488,0.2379682 C 2.9323305,8.0168277 0.74196651,7.2306274 2.103917,6.8500937 M 1.8920307,5.8803201 c 0,0 -0.3796361,0.2810276 0.2001661,0.3409877 0.7497832,0.077348 1.3418955,0.083683 2.3665,-0.1136113 0,0 0.1417192,0.1436683 0.3645563,0.2222473 C 2.7267787,6.9429831 0.39169492,6.3782863 1.8920307,5.8803201"
     fill="#5382a1"
     id="path1"
     style="stroke-width:0.0256459" />
  <path
     d="m 3.6782668,4.2352902 c 0.4272605,0.4918881 -0.1122521,0.9345362 -0.1122521,0.9345362 0,0 1.0848467,-0.5600293 0.5866241,-1.2613417 -0.465319,-0.6539702 -0.8221816,-0.9789549 1.1096463,-2.0993212 0,0 -3.0323186,0.7573231 -1.5840183,2.4261011"
     fill="#e76f00"
     id="path2"
     style="stroke-width:0.0256459" />
  <path
     d="m 5.9715734,7.5673835 c 0,0 0.2504834,0.2063725 -0.2758728,0.3660438 C 4.6948441,8.2366386 1.5299877,8.3281944 0.65079531,7.9455065 0.33476105,7.8080445 0.92743751,7.6172391 1.1138575,7.5771803 1.308279,7.5350184 1.4194026,7.5428917 1.4194026,7.5428917 1.0679257,7.2952807 -0.85238711,8.0290608 0.44398689,8.2391776 3.9793495,8.812517 6.8885934,7.9810261 5.9715734,7.5673835 M 2.2666658,4.8755398 c 0,0 -1.60981799,0.3823802 -0.5700568,0.5212014 0.4390063,0.05878 1.3141722,0.045496 2.1293781,-0.022825 C 4.492216,5.3177522 5.161189,5.1982418 5.161189,5.1982418 c 0,0 -0.2349164,0.1006088 -0.4048717,0.2166565 C 3.1215458,5.8448518 -0.03654012,5.6448395 0.87263231,5.2050382 1.6415216,4.833378 2.2666914,4.8755398 2.2666914,4.8755398 M 5.1545467,6.4897433 C 6.8164002,5.626195 6.0480238,4.7963453 5.511717,4.9081614 c -0.1314609,0.027338 -0.1900617,0.051035 -0.1900617,0.051035 0,0 0.048804,-0.076425 0.1420013,-0.1095079 1.0609704,-0.3730195 1.8769456,1.1001316 -0.3425009,1.6835756 0,2.56e-5 0.025723,-0.022953 0.033391,-0.043521"
     fill="#5382a1"
     id="path3"
     style="stroke-width:0.0256459" />
  <path
     d="m 4.1526388,2.565e-5 c 0,0 0.920354,0.92068735 -0.8729091,2.33636605 C 1.8417391,3.4720429 2.9518213,4.1195503 3.2791398,4.8593573 2.4397499,4.1020342 1.8237357,3.4353437 2.2370192,2.814867 2.8435701,1.904002 4.5239656,1.4624055 4.1526388,0"
     fill="#e76f00"
     id="path4"
     style="stroke-width:0.0256459" />
  <path
     d="m 2.4299788,8.8297511 c 1.5951486,0.1021219 4.0446643,-0.056652 4.1026753,-0.8114359 0,0 -0.1115083,0.2861568 -1.3183012,0.5133794 -1.3614889,0.2562024 -3.0406791,0.2262993 -4.0366372,0.062089 2.57e-5,0 0.2038849,0.1687499 1.2522888,0.2359678"
     fill="#5382a1"
     id="path5"
     style="stroke-width:0.0256459" />
</svg>
