<?xml version="1.0" encoding="UTF-8" standalone="no"?>
<svg
   viewBox="0 0 64.000003 64.000003"
   version="1.1"
   id="svg4"
   sodipodi:docname="systems_budgie.svg"
   width="64"
   height="64"
   inkscape:version="1.4 (e7c3feb100, 2024-10-09)"
   xmlns:inkscape="http://www.inkscape.org/namespaces/inkscape"
   xmlns:sodipodi="http://sodipodi.sourceforge.net/DTD/sodipodi-0.dtd"
   xmlns="http://www.w3.org/2000/svg"
   xmlns:svg="http://www.w3.org/2000/svg">
  <defs
     id="defs4" />
  <sodipodi:namedview
     id="namedview4"
     pagecolor="#ffffff"
     bordercolor="#000000"
     borderopacity="0.25"
     inkscape:showpageshadow="2"
     inkscape:pageopacity="0.0"
     inkscape:pagecheckerboard="0"
     inkscape:deskcolor="#d1d1d1"
     inkscape:zoom="6.2174571"
     inkscape:cx="87.656415"
     inkscape:cy="87.575996"
     inkscape:window-width="2560"
     inkscape:window-height="1300"
     inkscape:window-x="0"
     inkscape:window-y="0"
     inkscape:window-maximized="1"
     inkscape:current-layer="svg4" />
  <path
     d="m 30.667763,0 h 3.01087 C 40.796565,0.4373801 47.781493,3.2001462 53.119942,7.9543254 59.663835,13.626016 63.650681,22.06705 64,30.710149 v 2.968119 C 63.56262,40.783776 60.810085,47.755184 56.068695,53.09071 50.445967,59.602083 42.089705,63.569197 33.512012,64 H 30.582991 C 23.301361,63.644103 16.150178,60.793642 10.723303,55.908651 4.3167991,50.282635 0.41801407,41.991779 0,33.488992 V 30.580068 C 0.39499406,22.054261 4.3007217,13.734174 10.723303,8.0950032 16.16991,3.1902804 23.356901,0.32995341 30.667763,0 Z"
     style="fill:#404552;stroke-width:0.365397"
     id="path1" />
  <path
     d="m 31.477482,19.059468 c 2.772267,-2.004567 6.387138,-2.354252 9.701288,-2.04403 3.520234,0.395359 7.095643,1.756828 9.472915,4.476843 1.612862,1.769983 2.445602,4.097926 2.772267,6.439024 0.117292,0.881703 0.231661,1.766694 0.287202,2.654974 0.287202,4.672696 -1.430164,9.312506 -4.271125,12.979629 -3.085777,3.278342 -7.19028,5.541245 -11.542888,6.634878 -6.364118,1.586918 -13.384489,0.613866 -18.964831,-2.87677 -3.523157,-2.194209 -6.409792,-5.456107 -7.990134,-9.309217 -1.3910661,-3.771627 -1.3749886,-7.905363 -0.636887,-11.814013 0.617521,2.367772 2.432813,4.395359 4.783776,5.12323 2.161689,0.679638 4.845529,0.437745 6.452179,-1.30264 3.644104,-3.353613 5.835389,-8.081849 9.936238,-10.961908 z"
     style="fill:#ffffff;stroke-width:0.365397"
     id="path2" />
  <path
     d="m 42.344752,24.979629 c 0.600713,-1.254042 2.259249,-1.303005 3.25861,-0.502786 -0.205719,0.06212 -0.617156,0.189276 -0.822874,0.254682 0.01644,0.244816 0.04239,0.738101 0.05846,0.982917 0.444323,0.04568 0.882068,-0.04567 1.306294,-0.176486 -0.09135,0.9208 -0.43738,1.978989 -1.456106,2.217228 -1.593496,0.617155 -3.180415,-1.303005 -2.344387,-2.775555 z"
     style="fill:#404552;stroke-width:0.365397"
     id="path3" />
  <path
     d="m 53.423952,27.931305 c 1.022015,0.352974 2.050607,0.68585 3.075911,1.022381 -0.937243,0.532018 -1.871198,1.06769 -2.788709,1.632593 -0.05554,-0.88828 -0.16991,-1.773271 -0.287202,-2.654974 z m -28.382205,4.924089 c 0.679272,-1.208002 1.959258,-1.949392 3.310861,-2.138668 2.49493,-0.274048 4.933955,2.027953 4.597789,4.555038 -0.437745,1.596784 -1.453183,3.245821 -3.147894,3.693067 -4.323376,0.989494 -8.604001,-0.590847 -12.731525,-1.72102 3.040103,-0.427514 6.321732,-1.619074 7.970769,-4.388417 z"
     style="fill:#6bca81;fill-opacity:1;stroke-width:0.365397"
     id="path4" />
  <circle
     style="fill:#404552;fill-opacity:1;stroke:#404552;stroke-width:0.261225;stroke-opacity:1"
     cx="44.158215"
     cy="25.906277"
     r="1.9234493"
     id="circle4" />
  <ellipse
     style="fill:#ffffff;fill-opacity:1;stroke:#ffffff;stroke-width:0.261225;stroke-opacity:1"
     cx="45.206905"
     cy="25.001186"
     rx="0.56344205"
     ry="0.55138391"
     id="ellipse4" />
</svg>
