<?xml version="1.0" encoding="UTF-8" standalone="no"?>
<svg
   width="61.896999"
   height="64"
   version="1.1"
   id="svg17"
   sodipodi:docname="pantheon.svg"
   inkscape:version="1.4 (e7c3feb100, 2024-10-09)"
   xmlns:inkscape="http://www.inkscape.org/namespaces/inkscape"
   xmlns:sodipodi="http://sodipodi.sourceforge.net/DTD/sodipodi-0.dtd"
   xmlns:xlink="http://www.w3.org/1999/xlink"
   xmlns="http://www.w3.org/2000/svg"
   xmlns:svg="http://www.w3.org/2000/svg">
  <sodipodi:namedview
     id="namedview17"
     pagecolor="#ffffff"
     bordercolor="#000000"
     borderopacity="0.25"
     inkscape:showpageshadow="2"
     inkscape:pageopacity="0.0"
     inkscape:pagecheckerboard="0"
     inkscape:deskcolor="#d1d1d1"
     inkscape:zoom="8.5078125"
     inkscape:cx="63.94123"
     inkscape:cy="64"
     inkscape:window-width="2560"
     inkscape:window-height="1300"
     inkscape:window-x="0"
     inkscape:window-y="0"
     inkscape:window-maximized="1"
     inkscape:current-layer="svg17" />
  <defs
     id="defs11">
    <linearGradient
       id="b">
      <stop
         offset="0"
         stop-color="#3d3d3d"
         id="stop1" />
      <stop
         offset=".5"
         stop-color="#686868"
         stop-opacity=".498"
         id="stop2" />
      <stop
         offset="1"
         stop-color="#686868"
         stop-opacity="0"
         id="stop3" />
    </linearGradient>
    <linearGradient
       id="c">
      <stop
         offset="0"
         stop-color="#90dbec"
         id="stop4" />
      <stop
         offset=".262"
         stop-color="#42baea"
         id="stop5" />
      <stop
         offset=".705"
         stop-color="#3689e6"
         id="stop6" />
      <stop
         offset="1"
         stop-color="#2b63a0"
         id="stop7" />
    </linearGradient>
    <linearGradient
       id="a">
      <stop
         offset="0"
         stop-color="#fff"
         id="stop8" />
      <stop
         offset=".424"
         stop-color="#fff"
         stop-opacity=".235"
         id="stop9" />
      <stop
         offset=".821"
         stop-color="#fff"
         stop-opacity=".157"
         id="stop10" />
      <stop
         offset="1"
         stop-color="#fff"
         stop-opacity=".392"
         id="stop11" />
    </linearGradient>
    <linearGradient
       xlink:href="#a"
       id="f"
       gradientUnits="userSpaceOnUse"
       gradientTransform="matrix(2.4546007,0,0,2.4546007,-146.21506,-37.453193)"
       x1="71.204002"
       y1="15.369"
       x2="71.204002"
       y2="40.495998" />
    <radialGradient
       xlink:href="#b"
       id="d"
       gradientUnits="userSpaceOnUse"
       gradientTransform="matrix(0.40495004,0,0,0.12651815,-9.4449437,32.466625)"
       cx="99.156998"
       cy="186.17101"
       fx="99.156998"
       fy="186.17101"
       r="62.769001" />
    <radialGradient
       cx="1.198"
       cy="8.4499998"
       r="20"
       fx="1.198"
       fy="8.4499998"
       id="e"
       xlink:href="#c"
       gradientUnits="userSpaceOnUse"
       gradientTransform="matrix(0,7.4765672,-7.909318,0,97.780692,-31.83881)" />
  </defs>
  <path
     d="m 56.127323,56.020624 a 25.418582,7.9411332 0 1 1 -50.8365747,0 25.418582,7.9411332 0 1 1 50.8365747,0 z"
     fill="url(#d)"
     id="path11"
     style="fill:url(#d);stroke-width:0.589498" />
  <path
     style="fill:url(#e);stroke-width:0.589498;marker:none"
     d="m 30.948667,0.29474921 c -16.913889,0 -30.65391779,13.74002879 -30.65391779,30.65391779 0,16.913889 13.74002879,30.653918 30.65391779,30.653918 16.913889,0 30.653918,-13.740029 30.653918,-30.653918 0,-16.913889 -13.740029,-30.65391779 -30.653918,-30.65391779 z"
     color="#000000"
     overflow="visible"
     fill="url(#e)"
     id="path12" />
  <path
     style="isolation:auto;mix-blend-mode:normal;solid-color:#000000;solid-opacity:1;stroke-width:0.589498;marker:none"
     d="m 30.948667,0.29474921 c -16.913889,0 -30.65391779,13.74002879 -30.65391779,30.65391779 0,16.913889 13.74002879,30.653918 30.65391779,30.653918 16.913889,0 30.653918,-13.740029 30.653918,-30.653918 0,-16.913889 -13.740029,-30.65391779 -30.653918,-30.65391779 z"
     opacity="0.5"
     color="#000000"
     fill-opacity="0"
     stroke="#00537d"
     stroke-linecap="round"
     stroke-linejoin="round"
     overflow="visible"
     id="path13" />
  <path
     style="stroke:url(#f);stroke-width:0.589498;marker:none"
     d="m 61.013086,30.948667 c 0,16.604402 -13.460607,30.064419 -30.064419,30.064419 -16.604402,0 -30.06441937,-13.460017 -30.06441937,-30.064419 0,-16.603812 13.46001737,-30.06441937 30.06441937,-30.06441937 16.603812,0 30.064419,13.46060737 30.064419,30.06441937 z"
     opacity="0.5"
     color="#000000"
     fill="none"
     stroke="url(#f)"
     stroke-linecap="round"
     stroke-linejoin="round"
     overflow="visible"
     id="path14" />
  <path
     style="isolation:auto;mix-blend-mode:normal;solid-color:#000000;solid-opacity:1;stroke-width:0.589498;marker:none"
     d="m 30.948667,8.5453691 c -12.691901,0 -22.9939753,10.3020739 -22.9939753,22.9939749 0,12.691901 10.3014853,22.993976 22.9939753,22.993976 12.691901,0 22.993975,-10.301485 22.993975,-22.993976 0,-12.691901 -10.301485,-22.9939749 -22.993975,-22.9939749 z m 0,3.0524229 c 9.060591,0 16.685163,6.044717 19.117434,14.310074 -2.053223,4.161269 -4.935871,7.915785 -8.443386,10.952881 -1.713672,1.484357 -3.571771,2.794222 -5.604362,3.710892 -2.030822,0.915491 -4.253231,1.428944 -6.440859,1.303381 -1.273317,-0.0731 -2.507137,-0.427976 -3.677291,-0.925512 3.660785,-2.133985 6.990272,-4.841551 9.744408,-8.067876 1.980126,-2.318497 3.745673,-4.985388 4.433029,-8.051369 0.344267,-1.535054 0.404985,-3.15028 0.0784,-4.71245 -0.326582,-1.565119 -1.049307,-3.061855 -2.159922,-4.242621 -1.084678,-1.153648 -2.495347,-1.96244 -4.005642,-2.378626 -1.507937,-0.416186 -3.099583,-0.445071 -4.61931,-0.167417 -3.038275,0.555307 -5.705755,2.30376 -7.830307,4.444818 -3.746852,3.775148 -6.070065,9.09596 -5.6415,14.44448 0.213988,2.673375 1.108846,5.301359 2.651564,7.510209 0.169186,0.242284 0.367257,0.459809 0.551181,0.689714 a 32.942351,32.942351 0 0 1 -5.307844,1.248557 c -1.758474,-2.971072 -2.787149,-6.422585 -2.787149,-10.127583 0,-11.020083 8.92147,-19.941552 19.941553,-19.941552 z m 0.1291,4.149479 c 1.324014,0.0018 2.655691,0.406754 3.692029,1.189608 0.934355,0.70563 1.641163,1.724283 2.041433,2.849046 0.400859,1.1283 0.508147,2.368605 0.368436,3.581203 -0.279422,2.428733 -1.519727,4.711271 -3.057728,6.733251 -2.727609,3.58474 -6.363046,6.464439 -10.410542,8.480524 -0.281191,0.140301 -0.569456,0.26999 -0.856541,0.402038 -0.732157,-0.687945 -1.403007,-1.444271 -1.894059,-2.314371 -1.153059,-2.041433 -1.545075,-4.498462 -1.317529,-6.87473 0.228136,-2.380395 1.050486,-4.700071 2.168175,-6.86412 1.29395,-2.505368 3.040044,-4.83035 5.417491,-6.141395 1.186071,-0.654343 2.520695,-1.043412 3.848835,-1.041054 z m 19.750555,14.871277 c 0.01415,0.308308 0.0619,0.608362 0.0619,0.920796 0,11.020084 -8.92147,19.941553 -19.941553,19.941553 -5.841929,0 -11.033052,-2.565497 -14.67969,-6.564065 1.908207,-0.491052 3.781633,-1.111794 5.588445,-1.894648 0.91726,0.660238 1.89229,1.246789 2.952208,1.652954 3.380184,1.295717 7.175375,1.102362 10.547896,-0.06543 3.366036,-1.165438 6.321191,-3.244009 8.883741,-5.639731 2.602046,-2.43227 4.764916,-5.291338 6.587055,-8.352014 z"
     color="#000000"
     overflow="visible"
     opacity="0.05"
     id="path15" />
  <path
     style="isolation:auto;mix-blend-mode:normal;solid-color:#000000;solid-opacity:1;stroke-width:0.589498;marker:none"
     d="m 30.948667,9.1384045 c -12.371803,0 -22.4009399,10.0291365 -22.4009399,22.4009395 0,12.371804 10.0291369,22.40094 22.4009399,22.40094 12.371803,0 22.40094,-10.029136 22.40094,-22.40094 0,-12.371803 -10.029137,-22.4009395 -22.40094,-22.4009395 z m 0,1.8669415 c 9.406037,0 17.33479,6.324139 19.766471,14.952627 a 35.628105,35.628105 0 0 1 -8.703944,11.351971 c -1.743147,1.509706 -3.646637,2.855531 -5.749378,3.803444 -2.102741,0.947914 -4.415343,1.485536 -6.717924,1.353489 a 11.62314,11.62314 0 0 1 -4.953555,-1.420692 c 4.014484,-2.175838 7.637542,-5.07676 10.602719,-8.550085 1.946523,-2.28018 3.649584,-4.871025 4.305107,-7.796116 0.32835,-1.461956 0.383174,-2.994652 0.07722,-4.461324 -0.306539,-1.467851 -0.984463,-2.865552 -2.011369,-3.957893 -1.002737,-1.066992 -2.319676,-1.822139 -3.731525,-2.211798 -1.411259,-0.389069 -2.913301,-0.419723 -4.354035,-0.156217 -2.880879,0.526422 -5.45286,2.200598 -7.516105,4.279759 -3.636026,3.663732 -5.883784,8.833634 -5.471724,13.979365 0.206324,2.572571 1.068171,5.10093 2.546043,7.217229 0.33012,0.472189 0.692072,0.921976 1.079962,1.348773 a 33.591978,33.591978 0 0 1 -6.6407,1.591645 20.434963,20.434963 0 0 1 -3.061265,-10.790179 c 0,-11.34077 9.193227,-20.533998 20.533998,-20.533998 z m 0.130869,4.14889 c 1.443092,0.0018 2.896795,0.438587 4.048085,1.308686 1.037518,0.784033 1.806813,1.899364 2.242452,3.124342 0.436229,1.225567 0.548234,2.556065 0.399091,3.848246 -0.297108,2.583771 -1.601078,4.953555 -3.175628,7.023284 -2.788328,3.665501 -6.495094,6.598845 -10.616867,8.652658 -0.422081,0.209861 -0.850646,0.409701 -1.281569,0.601877 a 10.60154,10.60154 0 0 1 -2.251884,-2.752957 c -1.224389,-2.168765 -1.628195,-4.743694 -1.390627,-7.222535 0.237568,-2.478251 1.088214,-4.867488 2.231251,-7.079876 1.324603,-2.564318 3.130237,-4.99423 5.658596,-6.388394 1.263884,-0.697377 2.693418,-1.117689 4.1371,-1.115331 z m 20.218616,13.636277 c 0.120258,0.898985 0.183924,1.816834 0.183924,2.748831 0,11.340771 -9.193228,20.533999 -20.533999,20.533999 -6.36894,0 -12.061137,-2.899153 -15.828032,-7.450671 a 36.966267,36.966267 0 0 0 6.776874,-2.251884 12.635309,12.635309 0 0 0 3.124341,1.750811 c 3.222199,1.234999 6.880036,1.056381 10.141142,-0.07251 3.260515,-1.128889 6.152595,-3.155585 8.67329,-5.51181 a 37.334703,37.334703 0 0 0 7.46246,-9.746766 z"
     color="#000000"
     overflow="visible"
     opacity="0.15"
     id="path16" />
  <path
     style="stroke-width:0.589498;marker:none"
     d="m 30.948667,8.5489061 c -12.371803,0 -22.4009399,10.0291369 -22.4009399,22.4009399 0,12.371803 10.0291369,22.40094 22.4009399,22.40094 12.371803,0 22.40094,-10.029137 22.40094,-22.40094 0,-12.371803 -10.029137,-22.4009399 -22.40094,-22.4009399 z m 0,1.8669419 c 9.406037,0 17.33479,6.324139 19.766471,14.952627 a 35.628105,35.628105 0 0 1 -8.703944,11.351971 c -1.743147,1.509705 -3.646637,2.85553 -5.749378,3.803444 -2.102741,0.947913 -4.415343,1.485536 -6.717924,1.353488 a 11.62314,11.62314 0 0 1 -4.953555,-1.420691 c 4.014484,-2.175839 7.637542,-5.07676 10.602719,-8.550085 1.946523,-2.28018 3.649584,-4.871026 4.305107,-7.796117 0.327761,-1.461956 0.383174,-2.994652 0.07722,-4.461324 -0.306539,-1.467851 -0.984463,-2.865552 -2.011369,-3.957892 -1.002737,-1.066992 -2.319676,-1.82214 -3.731525,-2.211798 -1.411259,-0.389069 -2.913301,-0.419723 -4.354035,-0.156217 -2.880879,0.526422 -5.45286,2.200597 -7.516105,4.279758 -3.636026,3.663733 -5.883784,8.833634 -5.471724,13.979366 0.206324,2.572571 1.068171,5.10093 2.546043,7.217229 0.33012,0.472188 0.692072,0.921975 1.079962,1.348772 a 33.591978,33.591978 0 0 1 -6.6407,1.591646 20.434963,20.434963 0 0 1 -3.061265,-10.790179 c 0,-11.340771 9.193227,-20.533998 20.533998,-20.533998 z m 0.130869,4.148889 c 1.443092,0.0018 2.896795,0.438587 4.048085,1.308687 1.037518,0.784033 1.806813,1.899364 2.242452,3.124342 0.436229,1.225567 0.548234,2.556065 0.399091,3.848245 -0.297108,2.583772 -1.601078,4.953555 -3.175628,7.023284 -2.788328,3.665502 -6.495094,6.598846 -10.616867,8.652658 -0.422081,0.209862 -0.850646,0.409702 -1.281569,0.601878 a 10.60154,10.60154 0 0 1 -2.251884,-2.752958 c -1.224389,-2.168764 -1.628195,-4.743693 -1.390627,-7.222534 0.237568,-2.478252 1.088214,-4.867489 2.231251,-7.079876 1.324603,-2.564318 3.130237,-4.994231 5.658596,-6.388395 1.263884,-0.697376 2.693418,-1.117689 4.1371,-1.115331 z m 20.218616,13.636278 c 0.120258,0.898985 0.183924,1.816834 0.183924,2.748831 0,11.340771 -9.193228,20.533998 -20.533999,20.533998 -6.36894,0 -12.061137,-2.899153 -15.828032,-7.45067 a 36.966267,36.966267 0 0 0 6.776874,-2.251884 12.635309,12.635309 0 0 0 3.124341,1.75081 c 3.222199,1.234999 6.880036,1.056381 10.141142,-0.07251 3.260515,-1.12889 6.152595,-3.155585 8.67329,-5.51181 a 37.334703,37.334703 0 0 0 7.46246,-9.746767 z"
     color="#000000"
     overflow="visible"
     fill="#ffffff"
     id="path17" />
</svg>
