<?xml version="1.0" encoding="UTF-8" standalone="no"?>
<svg
   id="svg8"
   xml:space="preserve"
   enable-background="new 0 0 23 23"
   viewBox="0 0 64 64"
   height="64"
   width="64"
   y="0px"
   x="0px"
   version="1.1"
   sodipodi:docname="cinnamon.svg"
   inkscape:version="1.4 (e7c3feb100, 2024-10-09)"
   xmlns:inkscape="http://www.inkscape.org/namespaces/inkscape"
   xmlns:sodipodi="http://sodipodi.sourceforge.net/DTD/sodipodi-0.dtd"
   xmlns="http://www.w3.org/2000/svg"
   xmlns:svg="http://www.w3.org/2000/svg"
   xmlns:rdf="http://www.w3.org/1999/02/22-rdf-syntax-ns#"
   xmlns:cc="http://creativecommons.org/ns#"
   xmlns:dc="http://purl.org/dc/elements/1.1/"><sodipodi:namedview
     id="namedview1"
     pagecolor="#ffffff"
     bordercolor="#000000"
     borderopacity="0.25"
     inkscape:showpageshadow="2"
     inkscape:pageopacity="0.0"
     inkscape:pagecheckerboard="0"
     inkscape:deskcolor="#d1d1d1"
     inkscape:zoom="47.347826"
     inkscape:cx="11.51056"
     inkscape:cy="11.5"
     inkscape:window-width="2560"
     inkscape:window-height="1300"
     inkscape:window-x="0"
     inkscape:window-y="0"
     inkscape:window-maximized="1"
     inkscape:current-layer="svg8" /><metadata
     id="metadata14"><rdf:RDF><cc:Work
         rdf:about=""><dc:format>image/svg+xml</dc:format><dc:type
           rdf:resource="http://purl.org/dc/dcmitype/StillImage" /><dc:title /></cc:Work></rdf:RDF></metadata><defs
     id="defs12" /><path
     id="XMLID_9_"
     d="M 32,0 C 14.327652,0 0,14.327652 0,32 0,49.67513 14.327652,64 32,64 49.67513,64 64,49.67513 64,32 64,14.327652 49.67513,0 32,0 Z m 0,5.4565217 c 14.661565,0 26.543477,11.8819133 26.543477,26.5434783 0,2.255015 -0.30762,4.431082 -0.836956,6.521739 L 45.081522,24.48913 28.940218,42.853262 36.728262,27.271739 32.836956,20.315217 9.8913043,46.684783 C 7.0920339,42.478361 5.4565217,37.430742 5.4565217,32 5.4565217,17.338435 17.338435,5.4565217 32,5.4565217 Z"
     style="fill:#dc682e;stroke-width:2.78261" /></svg>
