<?xml version="1.0" encoding="UTF-8" standalone="no"?>
<svg
   version="1.0"
   width="65.564003"
   height="64"
   id="svg2"
   sodipodi:docname="systems_lxde.svg"
   inkscape:version="1.4 (e7c3feb100, 2024-10-09)"
   xmlns:inkscape="http://www.inkscape.org/namespaces/inkscape"
   xmlns:sodipodi="http://sodipodi.sourceforge.net/DTD/sodipodi-0.dtd"
   xmlns:xlink="http://www.w3.org/1999/xlink"
   xmlns="http://www.w3.org/2000/svg"
   xmlns:svg="http://www.w3.org/2000/svg">
  <sodipodi:namedview
     id="namedview1"
     pagecolor="#ffffff"
     bordercolor="#000000"
     borderopacity="0.25"
     inkscape:showpageshadow="2"
     inkscape:pageopacity="0.0"
     inkscape:pagecheckerboard="0"
     inkscape:deskcolor="#d1d1d1"
     inkscape:zoom="1.4441275"
     inkscape:cx="351.07703"
     inkscape:cy="343.11375"
     inkscape:window-width="2560"
     inkscape:window-height="1300"
     inkscape:window-x="0"
     inkscape:window-y="0"
     inkscape:window-maximized="1"
     inkscape:current-layer="svg2" />
  <defs
     id="defs4">
    <linearGradient
       id="linearGradient4835">
      <stop
         id="stop4837"
         style="stop-color:#ffffff;stop-opacity:0"
         offset="0" />
      <stop
         id="stop4839"
         style="stop-color:#ffffff;stop-opacity:0.63529414"
         offset="1" />
    </linearGradient>
    <linearGradient
       id="linearGradient4793">
      <stop
         id="stop4795"
         style="stop-color:#000000;stop-opacity:0"
         offset="0" />
      <stop
         id="stop4797"
         style="stop-color:#000000;stop-opacity:0.2"
         offset="1" />
    </linearGradient>
    <linearGradient
       id="linearGradient4777">
      <stop
         id="stop4779"
         style="stop-color:#000000;stop-opacity:0.1451"
         offset="0" />
      <stop
         id="stop4781"
         style="stop-color:#000000;stop-opacity:0"
         offset="1" />
    </linearGradient>
    <filter
       id="filter3326"
       x="-0.01182883"
       y="-0.012176197"
       width="1.0236577"
       height="1.0243524">
      <feGaussianBlur
         inkscape:collect="always"
         stdDeviation="2.6472166"
         id="feGaussianBlur3328" />
    </filter>
    <linearGradient
       id="linearGradient3486">
      <stop
         id="stop3488"
         style="stop-color:#000000;stop-opacity:0.502"
         offset="0" />
      <stop
         id="stop3490"
         style="stop-color:#ffffff;stop-opacity:1"
         offset="1" />
    </linearGradient>
    <filter
       id="filter4517"
       x="-0.005870285"
       y="-0.0069754877"
       width="1.0117406"
       height="1.013951">
      <feGaussianBlur
         inkscape:collect="always"
         stdDeviation="1.3154426"
         id="feGaussianBlur4519" />
    </filter>
    <filter
       id="filter4638"
       x="-0.0066677331"
       y="-0.0054538317"
       width="1.0133355"
       height="1.0109077">
      <feGaussianBlur
         id="feGaussianBlur4640"
         stdDeviation="1.1397656"
         inkscape:collect="always" />
    </filter>
    <radialGradient
       cx="244.97728"
       cy="276.31491"
       r="217.6875"
       fx="244.97728"
       fy="276.31491"
       id="radialGradient4712"
       xlink:href="#linearGradient3486"
       gradientUnits="userSpaceOnUse"
       gradientTransform="matrix(1.197615,0,0,1.2337965,-51.478889,-71.315223)" />
    <filter
       id="filter4773"
       x="-0.013674367"
       y="-0.011050325"
       width="1.0273487"
       height="1.0221006">
      <feGaussianBlur
         id="feGaussianBlur4775"
         stdDeviation="1.5496228"
         inkscape:collect="always" />
    </filter>
    <linearGradient
       x1="352.8949"
       y1="175.32442"
       x2="324.35019"
       y2="158.35384"
       id="linearGradient4783"
       xlink:href="#linearGradient4777"
       gradientUnits="userSpaceOnUse"
       gradientTransform="translate(-2.0928499,-5.6083124)" />
    <radialGradient
       cx="390.52817"
       cy="105.77066"
       r="118.78125"
       fx="390.52817"
       fy="105.77066"
       id="radialGradient4832"
       xlink:href="#linearGradient4793"
       gradientUnits="userSpaceOnUse"
       gradientTransform="matrix(-0.03290079,0.02802993,-0.04994989,-0.05862988,66.28968,5.6918665)" />
    <radialGradient
       cx="235.58434"
       cy="137.56808"
       r="268.90195"
       fx="235.58434"
       fy="137.56808"
       id="radialGradient4841"
       xlink:href="#linearGradient4835"
       gradientUnits="userSpaceOnUse"
       gradientTransform="matrix(0.238287,-0.271638,0.08478983,0.07437954,220.25794,256.88427)" />
    <filter
       id="filter4871"
       x="-0.044783792"
       y="-0.051713909"
       width="1.0895676"
       height="1.1034278">
      <feGaussianBlur
         id="feGaussianBlur4873"
         stdDeviation="8.1240593"
         inkscape:collect="always" />
    </filter>
  </defs>
  <path
     d="M 48.656885,25.219884 C 44.750556,20.809934 41.230294,17.961618 36.019213,25.388148 32.918388,29.807267 14.310148,55.122753 10.895625,59.15515 9.9037783,60.326472 9.3227451,61.140512 8.5612132,61.612352 8.5624199,60.009506 21.415031,39.655834 25.011888,33.757405 c 4.320501,-7.085121 4.183324,-6.671366 3.666296,-6.669491 -0.731944,0.0027 -2.22067,1.082345 -4.484357,3.496586 C 20.060194,34.993056 7.8177771,51.400874 6.9737573,51.147805 7.2669736,49.955916 16.843745,35.270232 21.192013,29.195205 24.940408,23.958271 23.507579,23.559116 21.359093,24.070362 12.2049,26.25362 1.2564535,31.531813 0.9023771,31.341384 1.0347788,31.068079 37.775296,5.2322596 42.683382,4.7383469 c 0.571365,-0.057497 1.7769,-1.0765295 3.925154,-1.9252883 2.332104,-0.921396 3.901643,-1.6708491 4.289919,-1.4339053 -1.701886,2.385736 -2.597995,2.865854 -2.613138,3.6354164 -0.0248,1.2601457 -0.473296,3.2987551 -0.964432,3.9496652 9.494195,6.3247991 13.198392,27.8902821 15.910697,45.2359461 0.647276,4.117062 1.247124,7.208843 1.400105,9.045974 C 63.830332,61.184223 56.23916,33.779701 48.656885,25.219884 Z"
     id="path3317"
     style="fill-opacity:0.333333;stroke-width:0.118653" />
  <path
     d="m 411.5757,212.55084 c -32.92218,-37.16666 -62.59063,-61.172 -106.50912,1.41811 -26.13347,37.24392 -182.96198,250.60048 -211.739265,284.58514 -8.359192,9.8718 -13.256086,16.73245 -19.674206,20.70907 0.01017,-13.50863 108.330781,-185.04748 138.644751,-234.75889 36.41279,-59.71274 35.25668,-56.22565 30.89921,-56.20985 -6.16877,0.0224 -18.71561,9.1219 -37.79375,29.4689 -34.83788,37.1549 -138.015821,175.43845 -145.129141,173.30561 2.4712,-10.04513 83.183331,-133.8147 119.830131,-185.01446 31.59113,-44.13639 19.51538,-47.50043 1.40813,-43.1917 C 104.36177,221.26307 12.08928,265.74719 9.1051501,264.14227 10.22102,261.83888 319.86667,44.096994 361.23156,39.934344 c 4.81542,-0.48458 14.97556,-9.07289 33.08084,-16.22615 19.65476,-7.76544 32.88269,-14.0817604 36.15504,-12.08482 -14.34335,20.10676 -21.89566,24.15315 -22.02329,30.63895 -0.20897,10.62039 -3.98889,27.8016 -8.12815,33.28741 80.0162,53.304816 111.23482,235.056706 134.09388,381.244346 5.45519,34.6982 10.51065,60.75544 11.79995,76.23861 C 539.45609,515.65492 475.4784,284.69218 411.5757,212.55084 Z"
     id="path3293"
     style="fill-opacity:0.627451;filter:url(#filter3326)"
     transform="scale(0.11865343)" />
  <path
     d="M 48.330548,24.003685 C 44.424219,19.593734 40.903957,16.745418 35.692876,24.171949 32.59205,28.591068 13.98381,53.906553 10.569287,57.93895 9.5774414,59.110272 8.9964082,59.924312 8.2348763,60.396152 8.236083,58.793306 21.088693,38.439635 24.685551,32.541206 c 4.320501,-7.085121 4.183323,-6.671366 3.666296,-6.669491 -0.731945,0.0027 -2.22067,1.082345 -4.484357,3.496586 C 19.733856,33.776857 7.4914402,50.184673 6.6474204,49.931604 6.9406367,48.739716 16.517408,34.054033 20.865676,27.979006 24.614071,22.742072 23.181241,22.342917 21.032755,22.854163 11.878563,25.037421 0.93011661,30.315615 0.57604019,30.125185 0.70844187,29.85188 37.448959,4.0160602 42.357045,3.5221475 42.928409,3.4646504 44.133945,2.445618 46.282198,1.5968592 48.614303,0.67546313 50.183842,-0.07398985 50.572118,0.16295392 48.870231,2.5486899 47.974123,3.0288079 47.95898,3.7983703 47.934184,5.058516 47.485683,7.0971254 46.994547,7.7480355 56.488742,14.072834 60.19294,35.638318 62.905244,52.983981 c 0.647277,4.117061 1.247125,7.208841 1.400106,9.045973 C 63.503994,59.968022 55.912822,32.563503 48.330548,24.003685 Z"
     id="path3287"
     style="fill:#ffffff;stroke:#6e6e6e;stroke-width:0.17798" />
  <path
     d="m 367.58909,38.115898 c -8.62411,0.84525 -13.87931,1.1176 -19.74075,3.48457 -28.90699,11.67322 -54.8667,30.13118 -81.68296,46.32897 C 202.381,128.03976 139.90874,170.16523 78.018672,213.14683 113.99686,199.15204 150.56741,185.71099 188.70617,179.30308 c 11.59378,0.10725 21.10173,13.52401 15.84375,24.3125 -6.95064,23.78165 -25.54358,41.23517 -38.07947,61.91327 -9.6428,13.81423 -19.10916,27.76671 -28.48303,41.77423 24.8568,-31.05314 49.43716,-62.74855 79.08315,-89.29351 7.18605,-5.66397 15.82806,-12.42042 25.47935,-10.89399 7.4589,1.93798 10.99057,11.74381 6.03125,17.78125 -10.19008,19.34247 -22.74153,37.52193 -33.76459,56.42702 -27.54131,44.62756 -55.31053,88.97785 -82.42291,133.82298 58.31625,-76.66837 81.02078,-100.96809 137.42001,-179.05066 13.06885,-16.48161 67.06234,-84.35427 89.20499,-81.63684 24.86312,3.4436 42.62656,23.67591 57.63497,41.92879 39.6373,49.04976 60.70361,109.4662 83.45878,167.53996 4.5654,12.33697 8.95162,24.73452 13.28125,37.15625 C 498.99463,314.05975 478.04388,230.36439 441.72073,149.4915 417.41562,124.65041 409.67738,114.75466 381.87697,97.449658 378.25095,93.970113 339.34385,125.04072 339.34385,125.04072 Z"
     id="path3431"
     style="fill:url(#radialGradient4712);filter:url(#filter4871)"
     transform="scale(0.11865343)" />
  <path
     d="M 46.682814,7.8664776 C 37.262757,14.181786 28.67429,20.263683 28.610414,20.395538 c 0.354076,0.190429 11.3024,-5.087972 20.456592,-7.27123 0.454005,-0.108033 0.875643,-0.173444 1.223614,-0.163149 C 49.3545,11.766898 48.34967,10.742387 47.264957,9.924373 46.912243,9.7605767 46.587675,9.5772724 46.300898,9.3644771 Z m 4.486583,6.2997554 c -0.174868,0.80864 -0.847975,2.096741 -2.269247,4.08242 -0.613702,0.857411 -1.352413,1.921204 -2.135762,3.062741 0.687658,0.642614 1.319478,1.354939 1.928118,2.080143 1.276204,-1.557355 2.407034,-2.894916 3.211059,-3.752415 0.559372,-0.596575 1.071474,-1.109938 1.535078,-1.546202 -0.704049,-1.42869 -1.458532,-2.743056 -2.269246,-3.926687 z m 3.199934,5.951211 c -0.478019,0.77937 -0.927813,1.511314 -1.650024,2.695658 -0.48806,0.800361 -1.202993,1.958923 -1.987445,3.22589 0.740954,1.096281 1.421811,2.229847 2.057895,3.389038 1.164249,-1.577386 2.29016,-3.105212 3.377915,-4.586696 -0.557463,-1.655207 -1.155424,-3.236888 -1.798341,-4.72389 z"
     id="path4752"
     style="fill:url(#radialGradient4832);stroke-width:0.118653" />
  <path
     d="M 356.2468,32.052035 C 309.44163,43.600469 13.03215,249.64169 13.03215,249.64169 c 0,0 52.96875,-24.4375 52.96875,-24.4375 77.00719,-53.34297 154.43404,-106.50191 234.84375,-154.750002 20.83207,-11.523767 40.77455,-25.63294 64,-31.5 14.082,-6.242861 27.22228,-15.15497 42.0625,-19.8125 0,0 7.30154,-6.701861 13.03125,-11.9687504 1.07609,-1.39811 2.17923,-2.8519548 3.34375,-4.4375 C 400.82241,10.509996 360.95147,30.891233 356.2468,32.052035 Z M 196.78215,200.23544 c 3.98369,11.98392 -53.17476,77.04509 -135.09375,212.59375 -0.612419,1.08253 -1.026913,1.85872 -1.46875,2.6875 7.227323,-9.10904 54.625,-68.84375 54.625,-68.84375 24.2019,-37.62841 49.64454,-74.34107 75,-111.1875 5.30644,-9.08203 13.15917,-18.17118 12.8125,-29.1875 0.57691,-4.0675 -3.55312,-4.16175 -5.875,-6.0625 z m 49.1875,27.09375 c -3.40763,0.85409 -6.59405,2.5178 -9.84375,3.875 -55.275,91.50517 -112.99659,179.58202 -163.1875,273.09375 5.946759,-7.87069 38.96875,-51.5625 38.96875,-51.5625 39.85446,-68.06854 82.69611,-134.5257 123.8125,-201.96875 3.7599,-7.78083 10.08279,-14.30054 12.625,-22.59375 -0.58594,-0.72021 -1.4309,-0.92513 -2.375,-0.84375 z"
     id="path3279"
     style="fill:#ffffff;filter:url(#filter4638)"
     transform="scale(0.11865343)" />
  <path
     d="m 20.256471,18.222697 c -4.170226,2.794958 -8.303202,5.643213 -12.4252381,8.498552 0,0 -2.5690034,1.209463 -4.7167548,2.217457 l -0.8046185,0.567311 c 3.455412,-1.410194 11.5945244,-4.952341 18.7215664,-6.652128 2.148486,-0.511246 3.58154,-0.112589 -0.166856,5.124344 -0.699748,0.977629 -1.544566,2.191033 -2.454643,3.522524 0.607043,0.585109 1.213565,1.245108 1.831713,1.94295 0.02561,0.02891 0.05225,0.05965 0.07787,0.08899 1.419282,-1.740044 2.668473,-3.233121 3.544771,-4.167702 0.93733,-0.999669 1.740979,-1.764546 2.413856,-2.324865 -1.677848,-3.701402 -3.653753,-6.760392 -6.021662,-8.817433 z m 6.75583,10.51566 c -0.57648,0.940408 -1.310062,2.130376 -2.328574,3.800618 -0.560968,0.919923 -1.393786,2.266374 -2.321157,3.763538 0.664497,1.033019 1.326283,2.182917 1.976321,3.414994 1.555192,-2.104894 3.036287,-4.116001 4.453211,-6.047617 -0.551003,-1.723319 -1.142114,-3.373738 -1.779801,-4.931533 z"
     id="path3522"
     style="fill-opacity:0.2;stroke-width:0.118653" />
  <path
     d="m 54.657062,225.73222 c 2.20549,-0.90252 3.39165,1.05365 5.6875,0.125 33.95251,-13.73349 76.770088,-26.53957 116.156248,-35.875 5.00268,-1.18575 9.73236,-1.93001 14.59375,-0.96875 2.43069,0.48063 5.02293,1.51171 7.15625,3.53125 2.13332,2.01954 3.98136,-1.0729 4.375,1.78125 0.78728,5.7083 -1.05898,11.26836 -4.59375,18.46875 -3.53477,7.20039 -9.08644,16.00401 -17.25,27.15625 -18.48226,25.24861 -48.1052,69.46453 -73.3125,108.46875 -2.51539,3.89216 -4.08676,6.54621 -6.5,10.3125 3.45584,-4.31935 6.20114,-2.34679 9.78125,-6.84375 31.19405,-39.18264 65.65706,-83.11413 83.6875,-102.34375 9.67316,-10.31651 18.00147,-18.35051 24.96875,-24 6.96728,-5.64949 11.712,-9.62993 18.96875,-9.65625 0.17178,-6.2e-4 0.58043,-0.13495 2.15625,0.0312 0.78791,0.0831 3.60516,-2.60749 3.625,-0.71875 0.0688,6.55194 3.38627,-0.72559 3.6875,0.9375 0.60246,3.32618 -0.30759,4.42404 -0.875,5.75 -0.56741,1.32596 -1.30448,2.67443 -2.3125,4.46875 -4.0321,7.1773 -12.83783,21.25866 -31.03125,51.09375 -15.22203,24.96236 -50.07181,80.64821 -81.15625,131.8125 -10.02832,16.50639 -19.22136,31.83789 -27.65625,46.1875 98.47265,-125.45022 150.65536,-191.62004 172.19253,-226.0478 12.04733,-19.25799 26.62022,-43.94725 41.98039,-66.02389 13.20426,-18.978 33.89172,-22.30979 44.76593,-19.17278 21.74843,6.27403 38.05846,27.14429 52.03125,44.28125 34.57092,42.39957 68.08512,127.73568 105.99865,245.21322 -10.55985,-66.36256 -23.41563,-143.3538 -43.15625,-210.6562 -20.42008,-69.61889 -55.03337,-107.80633 -92.91265,-132.986209 0,0 10.35015,-26.232543 10.35015,-26.232543 81.24692,54.008102 112.25207,240.064242 133.78125,375.812502 9.03413,56.96317 12.04716,70.08905 10.875,76.78125 C 491.63382,359.45821 449.94778,252.2833 409.09727,203.85451 383.12032,173.0585 348.08262,132.09011 299.43831,205.04472 274.47495,242.48368 116.5906,454.99756 87.813312,488.98222 c -8.359183,9.8718 -13.39438,17.33588 -19.8125,21.3125 7.042947,-9.99226 108.990628,-179.75581 139.304608,-229.46722 36.41278,-59.71273 35.92785,-63.95483 31.57039,-63.93903 -6.16876,0.0224 -19.76561,11.0905 -38.84375,31.4375 C 165.19418,285.48087 66.959103,418.12142 59.845783,415.98858 64.778456,406.64673 137.07245,294.23433 174.42253,240.39727 205.3615,195.80131 196.73685,186.50199 178.62581,190.79472 101.17499,209.15235 6.1411846,255.49339 3.1570621,253.88847 M 234.09456,216.16972 c 0.0324,0.0231 0.0476,0.10751 0,0.21875 -0.0136,0.0318 -0.10777,0.18037 -0.125,0.21875 0.009,-0.047 -0.0106,-0.24651 0,-0.28125 0.043,-0.14114 0.0926,-0.17935 0.125,-0.15625 z"
     id="path3461"
     style="fill:url(#radialGradient4841);filter:url(#filter4517)"
     transform="scale(0.11865343)" />
  <path
     d="m 246.15027,278.23623 c 34.81133,-45.39256 -0.7308,-3.22509 63.83243,-89.91243 12.70425,-15.77478 28.04613,-34.20568 49.48695,-30.55711 25.1887,4.93895 42.13937,26.18806 58.12439,44.56174 34.52407,44.04064 54.29351,97.3743 75.2094,148.93345 8.95694,23.45972 17.38063,47.07477 25.32246,70.87981 C 502.97668,329.62537 486.9067,240.83816 449.22561,154.39306 435.3331,127.23817 416.758,107.79926 387.40714,85.581924 c 0,0 -100.4997,98.274576 -141.25687,192.654306 z"
     id="path4714"
     style="fill:url(#linearGradient4783);filter:url(#filter4773)"
     transform="scale(0.11865343)" />
  <path
     d="m 50.372194,0.20962373 c -0.07443,-5.0428e-4 -0.17413,0.008565 -0.289218,0.0333713 -0.230176,0.0496116 -0.532908,0.14972359 -0.897316,0.28550981 -0.728817,0.27157242 -1.702555,0.68823426 -2.86993,1.14945506 -1.068098,0.4219974 -1.903155,0.8894368 -2.543633,1.2569847 -0.640478,0.367548 -1.073711,0.6414732 -1.405301,0.6748414 -0.580563,0.058423 -1.6951,0.5117544 -3.166564,1.2644006 -1.471464,0.7526462 -3.309188,1.8043339 -5.376483,3.0516177 -4.134591,2.4945677 -9.19056,5.7777427 -14.09751,9.0547397 -4.906951,3.276998 -9.66461,6.545999 -13.2039017,9.013953 -1.7696461,1.233976 -3.2376356,2.270137 -4.2641075,3.003414 -0.513236,0.366638 -0.9170035,0.656333 -1.1939501,0.860238 -0.047373,0.03488 -0.0676647,0.0519 -0.10752967,0.08157 0.065581,-0.02248 0.11099777,-0.03637 0.19281177,-0.06674 0.3488755,-0.129525 0.8404634,-0.327471 1.4497966,-0.578435 0.00952,-0.0039 0.02379,-0.01088 0.033371,-0.01483 C 9.8053108,24.155245 38.396823,4.368427 42.693092,3.9360829 43.264456,3.878586 44.471526,2.8604315 46.619779,2.0116727 48.146859,1.4083361 49.33541,0.88539639 50.090392,0.65828199 50.19589,0.51776976 50.304059,0.37306705 50.416689,0.21703957 c -0.01792,-0.001823 -0.02283,-0.007269 -0.04449,-0.007416 z M 23.256178,23.298839 c 0.06405,0.37741 -0.05509,0.89885 -0.400455,1.635193 -0.363023,0.773983 -0.978022,1.784262 -1.916995,3.096112 -2.172378,3.03506 -5.654499,8.224505 -8.628328,12.803447 -1.486915,2.28947 -2.8461855,4.427907 -3.8525287,6.066156 -0.5031717,0.819125 -0.9186953,1.513483 -1.2161977,2.039356 -0.1487511,0.262937 -0.2697503,0.483986 -0.3559602,0.656301 -0.041424,0.0828 -0.048686,0.111174 -0.074158,0.170565 0.023302,-0.01602 0.03935,-0.02304 0.066743,-0.04449 0.1313497,-0.102893 0.3087736,-0.267007 0.5191088,-0.48203 0.1165549,-0.119153 0.2446117,-0.258394 0.3819157,-0.407871 2.4108861,-4.128002 9.7610711,-15.322384 13.4226691,-20.438053 2.327921,-3.252369 2.653542,-4.63361 2.054187,-5.094681 z m 5.598959,2.984875 c -0.04479,-0.0023 -0.102229,0.0035 -0.166857,0.0037 -0.03588,1.19e-4 -0.07799,0.0055 -0.118653,0.01112 -0.04161,0.08264 -0.09292,0.175009 -0.159441,0.292926 -0.444106,0.787227 -1.488525,2.453445 -3.648593,5.995706 -1.79927,2.950595 -5.911396,9.51457 -9.573848,15.53989 -1.831226,3.012661 -3.548741,5.888747 -4.809171,8.112928 -0.6302156,1.11209 -1.1481351,2.062089 -1.5054158,2.78094 -0.1786403,0.359425 -0.3179964,0.662511 -0.411579,0.897317 -0.047893,0.120166 -0.047398,0.162132 -0.07045,0.244722 C 8.6123441,60.000378 8.8249618,59.804651 9.0437225,59.577112 11.38035,54.759643 21.832983,38.186191 25.021148,32.957969 c 3.780439,-6.19948 4.147545,-6.657839 3.833989,-6.674255 z"
     id="path3523"
     style="fill:#c2c2c2;stroke-width:0.118653" />
</svg>
