<?xml version="1.0" encoding="UTF-8" standalone="no"?>
<svg
   height="64"
   viewBox="0 0 64 64"
   width="64"
   version="1.1"
   id="svg4"
   sodipodi:docname="systems_openmediavault.svg"
   inkscape:version="1.4 (e7c3feb100, 2024-10-09)"
   xmlns:inkscape="http://www.inkscape.org/namespaces/inkscape"
   xmlns:sodipodi="http://sodipodi.sourceforge.net/DTD/sodipodi-0.dtd"
   xmlns="http://www.w3.org/2000/svg"
   xmlns:svg="http://www.w3.org/2000/svg">
  <defs
     id="defs4" />
  <sodipodi:namedview
     id="namedview4"
     pagecolor="#ffffff"
     bordercolor="#000000"
     borderopacity="0.25"
     inkscape:showpageshadow="2"
     inkscape:pageopacity="0.0"
     inkscape:pagecheckerboard="0"
     inkscape:deskcolor="#d1d1d1"
     inkscape:zoom="3.007966"
     inkscape:cx="111.03849"
     inkscape:cy="54.688119"
     inkscape:window-width="2560"
     inkscape:window-height="1300"
     inkscape:window-x="0"
     inkscape:window-y="0"
     inkscape:window-maximized="1"
     inkscape:current-layer="svg4" />
  <path
     d="m 3.4e-4,-1.8e-4 h 64 v 64 h -64 z"
     fill="#5dacdf"
     id="path1"
     style="stroke-width:0.5" />
  <rect
     fill="none"
     height="46.905499"
     rx="0.9285"
     stroke="#ffffff"
     stroke-width="4.78585"
     width="51.606998"
     x="6.1968403"
     y="8.5473204"
     id="rect1" />
  <g
     fill="#ffffff"
     transform="matrix(1.1747631,0,0,1.1747631,-179.65605,-791.51898)"
     id="g4">
    <path
       d="m 163.94765,686.42298 c -0.38058,0 -0.68819,0.2853 -0.68819,0.6388 v 7.0865 c 0,0.3535 0.30762,0.6392 0.68819,0.6392 h 32.44367 c 0.37849,0 0.68778,-0.2877 0.68778,-0.6392 v -7.0865 c 0,-0.3535 -0.3072,-0.6388 -0.68778,-0.6388 z m 3.93921,1.6958 a 2.4863311,2.4863311 0 0 1 2.48647,2.4865 2.4863311,2.4863311 0 0 1 -2.48647,2.4864 2.4863311,2.4863311 0 0 1 -2.48605,-2.4864 2.4863311,2.4863311 0 0 1 2.48605,-2.4865 z m 0,1.1881 a 1.29858,1.29858 0 0 0 -1.29836,1.2984 1.29858,1.29858 0 0 0 1.29836,1.2987 1.29858,1.29858 0 0 0 1.29878,-1.2987 1.29858,1.29858 0 0 0 -1.29878,-1.2984 z"
       id="path2" />
    <path
       d="m 163.94765,696.82628 c -0.38058,0 -0.68819,0.2853 -0.68819,0.6388 v 7.0865 c 0,0.3534 0.30762,0.6392 0.68819,0.6392 h 32.44367 c 0.37849,0 0.68778,-0.2877 0.68778,-0.6392 v -7.0865 c 0,-0.3535 -0.3072,-0.6388 -0.68778,-0.6388 z m 3.93921,1.6958 a 2.4863311,2.4863311 0 0 1 2.48647,2.4864 2.4863311,2.4863311 0 0 1 -2.48647,2.4865 2.4863311,2.4863311 0 0 1 -2.48605,-2.4865 2.4863311,2.4863311 0 0 1 2.48605,-2.4864 z m 0,1.1881 a 1.29858,1.29858 0 0 0 -1.29836,1.2983 1.29858,1.29858 0 0 0 1.29836,1.2988 1.29858,1.29858 0 0 0 1.29878,-1.2988 1.29858,1.29858 0 0 0 -1.29878,-1.2983 z"
       id="path3" />
    <path
       d="m 163.94765,707.22958 c -0.38058,0 -0.68819,0.2853 -0.68819,0.6388 v 7.0865 c 0,0.3534 0.30762,0.6391 0.68819,0.6391 h 32.44367 c 0.37849,0 0.68778,-0.2876 0.68778,-0.6391 v -7.0865 c 0,-0.3535 -0.3072,-0.6388 -0.68778,-0.6388 z m 3.93921,1.6957 a 2.4863311,2.4863311 0 0 1 2.48647,2.4865 2.4863311,2.4863311 0 0 1 -2.48647,2.4865 2.4863311,2.4863311 0 0 1 -2.48605,-2.4865 2.4863311,2.4863311 0 0 1 2.48605,-2.4865 z m 0,1.1881 a 1.29858,1.29858 0 0 0 -1.29836,1.2984 1.29858,1.29858 0 0 0 1.29836,1.2988 1.29858,1.29858 0 0 0 1.29878,-1.2988 1.29858,1.29858 0 0 0 -1.29878,-1.2984 z"
       id="path4" />
  </g>
</svg>
