<?xml version="1.0" encoding="UTF-8" standalone="no"?>
<!-- Created with Inkscape (http://www.inkscape.org/) -->

<svg
   width="64.584"
   height="64"
   viewBox="0 0 64.583999 64.000003"
   version="1.1"
   id="svg2199"
   inkscape:version="1.4 (e7c3feb100, 2024-10-09)"
   sodipodi:docname="systems_fedora_silverblue.svg"
   inkscape:export-filename="/home/jimmac/gfx/logos/silverblue/silverblue-logo.png"
   inkscape:export-xdpi="96"
   inkscape:export-ydpi="96"
   xmlns:inkscape="http://www.inkscape.org/namespaces/inkscape"
   xmlns:sodipodi="http://sodipodi.sourceforge.net/DTD/sodipodi-0.dtd"
   xmlns="http://www.w3.org/2000/svg"
   xmlns:svg="http://www.w3.org/2000/svg"
   xmlns:rdf="http://www.w3.org/1999/02/22-rdf-syntax-ns#"
   xmlns:cc="http://creativecommons.org/ns#"
   xmlns:dc="http://purl.org/dc/elements/1.1/">
  <defs
     id="defs2193">
    <clipPath
       clipPathUnits="userSpaceOnUse"
       id="clipPath2892">
      <path
         sodipodi:nodetypes="ccssccc"
         inkscape:connector-curvature="0"
         id="path2894"
         d="m 144.95689,70.1852 c 56.90526,1e-6 170.71577,2e-6 170.71577,2e-6 V 238.88067 c 0,29.10047 -23.42746,52.52793 -52.52793,52.52793 H 92.934034 c 0,0 -0.505079,-108.68444 -0.505079,-168.69547 0,-29.100473 23.427455,-52.52793 52.527935,-52.52793 z"
         style="opacity:1;vector-effect:none;fill:#729fcf;fill-opacity:1;stroke:none;stroke-width:10;stroke-linecap:round;stroke-linejoin:miter;stroke-miterlimit:4;stroke-dasharray:none;stroke-dashoffset:0;stroke-opacity:0.956863;marker:none;paint-order:normal" />
    </clipPath>
    <clipPath
       clipPathUnits="userSpaceOnUse"
       id="clipPath2892-7">
      <path
         sodipodi:nodetypes="ccssccc"
         inkscape:connector-curvature="0"
         id="path2894-8"
         d="m 144.95689,70.1852 c 56.90526,1e-6 170.71577,2e-6 170.71577,2e-6 V 238.88067 c 0,29.10047 -23.42746,52.52793 -52.52793,52.52793 H 92.934034 c 0,0 -0.505079,-108.68444 -0.505079,-168.69547 0,-29.100473 23.427455,-52.52793 52.527935,-52.52793 z"
         style="opacity:1;vector-effect:none;fill:#729fcf;fill-opacity:1;stroke:none;stroke-width:10;stroke-linecap:round;stroke-linejoin:miter;stroke-miterlimit:4;stroke-dasharray:none;stroke-dashoffset:0;stroke-opacity:0.956863;marker:none;paint-order:normal" />
    </clipPath>
  </defs>
  <sodipodi:namedview
     id="base"
     pagecolor="#ffffff"
     bordercolor="#666666"
     borderopacity="1.0"
     inkscape:pageopacity="0.0"
     inkscape:pageshadow="2"
     inkscape:zoom="1"
     inkscape:cx="298"
     inkscape:cy="129.5"
     inkscape:document-units="px"
     inkscape:current-layer="layer2"
     showgrid="false"
     units="px"
     inkscape:window-width="2560"
     inkscape:window-height="1300"
     inkscape:window-x="0"
     inkscape:window-y="0"
     inkscape:window-maximized="1"
     inkscape:pagecheckerboard="false"
     borderlayer="true"
     inkscape:showpageshadow="false"
     showguides="true"
     inkscape:guide-bbox="true"
     fit-margin-top="0"
     fit-margin-left="0"
     fit-margin-right="0"
     fit-margin-bottom="0"
     inkscape:deskcolor="#d1d1d1">
    <sodipodi:guide
       position="2.1547547,31.620157"
       orientation="1,0"
       id="guide3043"
       inkscape:locked="false" />
    <sodipodi:guide
       position="222.87309,97.785159"
       orientation="1,0"
       id="guide3045"
       inkscape:locked="false" />
  </sodipodi:namedview>
  <metadata
     id="metadata2196">
    <rdf:RDF>
      <cc:Work
         rdf:about="">
        <dc:format>image/svg+xml</dc:format>
        <dc:type
           rdf:resource="http://purl.org/dc/dcmitype/StillImage" />
        <dc:title />
      </cc:Work>
    </rdf:RDF>
  </metadata>
  <g
     inkscape:groupmode="layer"
     id="layer2"
     inkscape:label="vectors"
     transform="translate(-91.789431,-51.378906)">
    <rect
       style="opacity:1;vector-effect:none;fill:#ffffff;fill-opacity:1;stroke:none;stroke-width:1.44651;stroke-linecap:butt;stroke-linejoin:miter;stroke-miterlimit:4;stroke-dasharray:none;stroke-dashoffset:0;stroke-opacity:1;marker:none;paint-order:normal"
       id="rect5099"
       width="64.438477"
       height="64"
       x="91.935211"
       y="51.378906"
       rx="15.035667"
       ry="15.035667" />
    <path
       style="opacity:1;vector-effect:none;fill:#8d9fb4;fill-opacity:1;stroke:none;stroke-width:2.89301;stroke-linecap:round;stroke-linejoin:miter;stroke-miterlimit:4;stroke-dasharray:none;stroke-dashoffset:0;stroke-opacity:0.956863;marker:none;paint-order:normal"
       d="m 106.98566,51.378906 c -8.418808,0 -15.196229,6.777423 -15.196229,15.196228 0,17.361269 0.145779,48.803776 0.145779,48.803776 h 49.24224 c 8.41881,0 15.19623,-6.77743 15.19623,-15.19623 V 51.378906 Z m -0.47859,9.870712 c 2.39116,0 4.36099,1.969272 4.36099,4.360425 0,1.860187 -1.19428,3.46028 -2.84951,4.081294 v 27.597197 l 14.79844,-14.74928 V 69.751799 c -1.74033,-0.573685 -3.0128,-2.220272 -3.0128,-4.141756 10e-6,-2.391153 1.96927,-4.360425 4.36043,-4.360425 2.39115,0 4.36099,1.969272 4.36099,4.360425 0,1.847515 -1.17796,3.438803 -2.8156,4.068866 v 9.976937 l 12.22354,-12.182859 c -0.27183,-0.566875 -0.42887,-1.197305 -0.42887,-1.862944 0,-2.391153 1.96927,-4.360425 4.36043,-4.360425 2.39116,0 4.36099,1.969272 4.36099,4.360425 0,2.391156 -1.96983,4.360427 -4.36099,4.360427 -0.67787,0 -1.31921,-0.162851 -1.89402,-0.444124 l -12.14896,12.108842 h 10.10351 c 0.63022,-1.637495 2.22192,-2.815038 4.06943,-2.815038 2.39116,0 4.36043,1.969271 4.36043,4.360427 0,2.391153 -1.96927,4.360424 -4.36043,4.360424 -1.92149,0 -3.56849,-1.272471 -4.14232,-3.012801 h -12.93324 l -14.84703,14.797874 h 27.7927 c 0.5841,-1.722673 2.22108,-2.978898 4.12989,-2.978898 2.39116,0 4.36043,1.969271 4.36043,4.360424 0,2.39116 -1.96927,4.36099 -4.36043,4.36099 -1.86019,0 -3.4607,-1.19428 -4.08186,-2.8495 H 105.12554 V 69.739367 c -1.72267,-0.583957 -2.9789,-2.220512 -2.9789,-4.129324 0,-2.391153 1.96927,-4.360425 4.36043,-4.360425 z m 0,2.893012 c -0.82771,0 -1.46741,0.639815 -1.46741,1.467413 0,0.827601 0.6397,1.467414 1.46741,1.467414 0.82771,0 1.46798,-0.639813 1.46798,-1.467414 0,-0.827598 -0.64027,-1.467413 -1.46798,-1.467413 z m 17.65755,0 c -0.82771,0 -1.46742,0.639815 -1.46742,1.467413 1e-5,0.827601 0.63971,1.467414 1.46742,1.467414 0.82771,0 1.46798,-0.639813 1.46798,-1.467414 0,-0.827598 -0.64027,-1.467413 -1.46798,-1.467413 z m 17.70049,0 c -0.82771,0 -1.46741,0.639815 -1.46741,1.467413 0,0.827601 0.6397,1.467414 1.46741,1.467414 0.82771,0 1.46798,-0.639813 1.46798,-1.467414 0,-0.827598 -0.64027,-1.467413 -1.46798,-1.467413 z m 0.12996,17.570533 c -0.82771,0 -1.46798,0.639813 -1.46798,1.467414 0,0.827599 0.64027,1.467412 1.46798,1.467412 0.82771,0 1.46741,-0.639813 1.46741,-1.467412 0,-0.827601 -0.6397,-1.467414 -1.46741,-1.467414 z m 0,17.527026 c -0.82771,0 -1.46798,0.639813 -1.46798,1.467411 0,0.8276 0.64027,1.46798 1.46798,1.46798 0.82771,0 1.46741,-0.64038 1.46741,-1.46798 0,-0.827598 -0.6397,-1.467411 -1.46741,-1.467411 z"
       id="path3225"
       inkscape:connector-curvature="0" />
    <path
       style="opacity:1;fill:#436795;fill-opacity:1;stroke:none;stroke-width:0.289301px;stroke-linecap:butt;stroke-linejoin:miter;stroke-opacity:1"
       d="m 156.37368,51.378906 -11.33586,11.259019 c 0.73338,0.781639 1.18828,1.82707 1.18828,2.972118 0,2.391156 -1.96983,4.360427 -4.36099,4.360427 -0.67787,0 -1.31921,-0.162851 -1.89402,-0.444124 l -12.14896,12.108842 h 10.10351 c 0.63022,-1.637495 2.22192,-2.815038 4.06943,-2.815038 2.39116,0 4.36043,1.969271 4.36043,4.360427 0,2.391153 -1.96927,4.360424 -4.36043,4.360424 -1.92149,0 -3.56849,-1.272471 -4.14232,-3.012801 h -12.93324 l -14.84703,14.797874 h 27.7927 c 0.5841,-1.722673 2.22108,-2.978898 4.12989,-2.978898 2.39116,0 4.36043,1.969271 4.36043,4.360424 0,2.39116 -1.96927,4.36099 -4.36043,4.36099 -1.86019,0 -3.4607,-1.19428 -4.08186,-2.8495 h -32.72777 l -13.25023,13.15982 h 49.24224 c 8.41881,0 15.19623,-6.77743 15.19623,-15.19623 z m -13.38018,13.289213 -2.07766,2.063533 c 0.2541,0.213675 0.58084,0.345805 0.94927,0.345805 0.82771,0 1.46798,-0.639813 1.46798,-1.467414 0,-0.364753 -0.12962,-0.688824 -0.33959,-0.941924 z m -0.99843,17.045044 c -0.82771,0 -1.46798,0.639813 -1.46798,1.467414 0,0.827599 0.64027,1.467412 1.46798,1.467412 0.82771,0 1.46741,-0.639813 1.46741,-1.467412 0,-0.827601 -0.6397,-1.467414 -1.46741,-1.467414 z m 0,17.527026 c -0.82771,0 -1.46798,0.639813 -1.46798,1.467411 0,0.8276 0.64027,1.46798 1.46798,1.46798 0.82771,0 1.46741,-0.64038 1.46741,-1.46798 0,-0.827598 -0.6397,-1.467411 -1.46741,-1.467411 z"
       id="path3227"
       inkscape:connector-curvature="0" />
  </g>
</svg>
