<?xml version="1.0" encoding="UTF-8" standalone="no"?>
<svg
   width="64"
   height="64"
   viewBox="0 0 64 64.000002"
   version="1.1"
   id="svg8"
   sodipodi:docname="opensuse.svg"
   inkscape:version="1.4 (e7c3feb100, 2024-10-09)"
   xmlns:inkscape="http://www.inkscape.org/namespaces/inkscape"
   xmlns:sodipodi="http://sodipodi.sourceforge.net/DTD/sodipodi-0.dtd"
   xmlns="http://www.w3.org/2000/svg"
   xmlns:svg="http://www.w3.org/2000/svg"
   xmlns:rdf="http://www.w3.org/1999/02/22-rdf-syntax-ns#"
   xmlns:cc="http://creativecommons.org/ns#"
   xmlns:dc="http://purl.org/dc/elements/1.1/">
  <sodipodi:namedview
     id="namedview1"
     pagecolor="#ffffff"
     bordercolor="#000000"
     borderopacity="0.25"
     inkscape:showpageshadow="2"
     inkscape:pageopacity="0.0"
     inkscape:pagecheckerboard="0"
     inkscape:deskcolor="#d1d1d1"
     inkscape:zoom="4.2539062"
     inkscape:cx="127.88246"
     inkscape:cy="128"
     inkscape:window-width="2560"
     inkscape:window-height="1300"
     inkscape:window-x="0"
     inkscape:window-y="0"
     inkscape:window-maximized="1"
     inkscape:current-layer="svg8" />
  <defs
     id="defs2" />
  <metadata
     id="metadata5">
    <rdf:RDF>
      <cc:Work
         rdf:about="">
        <dc:format>image/svg+xml</dc:format>
        <dc:type
           rdf:resource="http://purl.org/dc/dcmitype/StillImage" />
        <dc:title />
      </cc:Work>
    </rdf:RDF>
  </metadata>
  <circle
     r="28"
     style="opacity:1;fill:#ffffff;fill-opacity:1;stroke:none;stroke-width:0.560481;stroke-linecap:round;stroke-linejoin:round;stroke-miterlimit:4;stroke-dasharray:none;stroke-opacity:1"
     id="path907"
     cx="32"
     cy="31.999996" />
  <path
     style="opacity:1;fill:#73ba25;fill-opacity:1;stroke:none;stroke-width:3.95561;stroke-miterlimit:4;stroke-dasharray:none;stroke-opacity:1"
     d="M 32,0 A 32,32 0 0 0 0,32 32,32 0 0 0 32,64 32,32 0 0 0 64,32 32,32 0 0 0 32,0 Z m 0,4 A 27.99969,27.999903 0 0 1 60,32 27.99969,27.999903 0 0 1 32,60 27.99969,27.999903 0 0 1 10.924805,50.381349 c 2.017456,-1.45916 5.325774,-1.086526 9.39209,-0.627443 1.981425,0.231465 4.238094,0.490483 6.573731,0.542483 6.521111,0.04144 13.544823,-1.162895 17.874023,-3.056643 2.80078,-1.217277 4.588114,-2.02758 5.708005,-3.045897 0.402777,-0.333746 0.611975,-0.875463 0.829592,-1.458498 l 0.152831,-0.385254 c 0.181083,-0.472603 0.447012,-1.468446 0.563966,-2.01416 0.04709,-0.2404 0.102186,-0.475766 -0.09668,-0.629394 -0.1818,-0.14048 -0.599609,0.111326 -0.599609,0.111326 -1.901045,1.144217 -6.653097,3.311254 -11.096191,3.403811 -5.516374,0.111263 -16.693073,-5.584086 -17.851076,-6.185549 -0.77504,-1.845454 -1.549736,-3.691934 -2.335936,-5.532714 7.99628,5.268694 14.629089,8.181243 19.706055,8.630374 5.652034,0.503483 10.057468,-2.580791 11.969725,-3.863771 0.25032,-0.166411 0.50046,-0.352643 0.72998,-0.53174 h 0.0011 c 0.04107,-0.03204 0.13696,-0.1165 0.124512,-0.194334 -0.317032,-1.98112 -3.268483,-11.587971 -5.50244,-13.898439 -0.615535,-0.629334 -1.108417,-1.250117 -2.106446,-1.833984 -8.08162,-4.709368 -27.254237,-7.55153 -28.152487,-7.68164 0,0 -0.09034,-0.01855 -0.152832,0.04248 -0.04852,0.04741 -0.05811,0.138672 -0.05811,0.138672 0,0 -0.07362,3.97233 -0.08496,4.416505 C 15.789704,16.484315 13.37221,15.700513 9.957007,14.788085 A 27.99969,27.999903 0 0 1 32,4 Z m 5.835937,16.243165 c 0.136086,-0.0023 0.272692,-0.001 0.409669,0.0034 4.519125,0.161595 8.07064,3.976563 7.915525,8.49072 -0.08524,2.190178 -1.001762,4.22274 -2.59912,5.708986 -1.602174,1.504766 -3.687614,2.278489 -5.88916,2.204592 -4.514262,-0.166458 -8.061562,-3.973515 -7.910157,-8.4917 0.08117,-2.190175 0.997689,-4.222506 2.599123,-5.713381 1.502032,-1.40234 3.432849,-2.16976 5.47412,-2.202635 z m 0.0542,2.416502 c -1.427054,0.0178 -2.769594,0.554483 -3.811034,1.53125 -1.110912,1.041889 -1.765712,2.4536 -1.812012,3.981934 -0.106357,3.15816 2.366175,5.814446 5.517089,5.930663 1.532351,0.0463 2.992951,-0.495711 4.110349,-1.537597 1.115777,-1.046746 1.757888,-2.457828 1.806642,-3.980466 0.106358,-3.157328 -2.366182,-5.810801 -5.524414,-5.922854 -0.09582,-0.0034 -0.191486,-0.0041 -0.28662,-0.0029 z m 1.222654,2.874513 c 1.403218,0 2.54004,0.755266 2.54004,1.694826 0,0.930623 -1.137611,1.68994 -2.54004,1.68994 -1.403254,0 -2.53662,-0.759275 -2.53662,-1.68994 0,-0.93956 1.133366,-1.694826 2.53662,-1.694826 z"
     id="path820-3-6" />
  <circle
     style="opacity:0.3;fill:#ffffff;fill-opacity:1;stroke:none;stroke-width:0.882393;stroke-miterlimit:4;stroke-dasharray:none;stroke-opacity:1"
     id="path872"
     cx="220.43181"
     cy="-312.8111"
     r="0" />
</svg>
