<?xml version="1.0" encoding="UTF-8" standalone="no"?>
<svg
   width="64"
   height="64"
   version="1.1"
   id="svg1"
   sodipodi:docname="arch_linux.svg"
   inkscape:version="1.4 (e7c3feb100, 2024-10-09)"
   xmlns:inkscape="http://www.inkscape.org/namespaces/inkscape"
   xmlns:sodipodi="http://sodipodi.sourceforge.net/DTD/sodipodi-0.dtd"
   xmlns="http://www.w3.org/2000/svg"
   xmlns:svg="http://www.w3.org/2000/svg">
  <defs
     id="defs1" />
  <sodipodi:namedview
     id="namedview1"
     pagecolor="#ffffff"
     bordercolor="#000000"
     borderopacity="0.25"
     inkscape:showpageshadow="2"
     inkscape:pageopacity="0.0"
     inkscape:pagecheckerboard="0"
     inkscape:deskcolor="#d1d1d1"
     inkscape:zoom="17.015625"
     inkscape:cx="31.970615"
     inkscape:cy="32"
     inkscape:window-width="2560"
     inkscape:window-height="1300"
     inkscape:window-x="0"
     inkscape:window-y="0"
     inkscape:window-maximized="1"
     inkscape:current-layer="svg1" />
  <path
     d="m 31.9975,0 c -2.84951,6.9836906 -4.567215,11.551834 -7.738669,18.328564 1.944665,2.061612 4.331255,4.461163 8.19859,7.172655 C 28.290138,23.78654 25.458624,22.064863 23.322991,20.278198 19.263689,28.74661 12.904782,40.812347 0,64 10.152255,58.145097 18.005905,54.535775 25.342644,53.156033 25.027698,51.802287 24.848729,50.338561 24.862727,48.811847 l 0.012,-0.324939 c 0.159972,-6.498781 3.541391,-11.495844 7.545703,-11.155907 4.004311,0.339935 7.116777,5.884896 6.955804,12.383677 a 18.356845,18.356558 0 0 1 -0.40893,3.490346 C 46.216057,54.622759 53.99472,58.224083 64,64 L 58.580931,53.97588 c -2.649544,-2.052615 -5.412069,-4.725115 -11.048101,-7.618572 3.874334,1.006811 6.648858,2.167594 8.798488,3.46635 C 39.234257,17.989627 37.848495,13.76042 31.985502,0 Z"
     fill="#1793d1"
     fill-rule="evenodd"
     id="path1"
     style="stroke-width:0.99982" />
</svg>
