<?xml version="1.0" encoding="UTF-8" standalone="no"?>
<svg
   id="Layer_1"
   x="0"
   y="0"
   version="1.1"
   xml:space="preserve"
   viewBox="0 0 65.389999 64"
   sodipodi:docname="almalinux.svg"
   width="65.389999"
   height="64"
   inkscape:version="1.4 (e7c3feb100, 2024-10-09)"
   xmlns:inkscape="http://www.inkscape.org/namespaces/inkscape"
   xmlns:sodipodi="http://sodipodi.sourceforge.net/DTD/sodipodi-0.dtd"
   xmlns="http://www.w3.org/2000/svg"
   xmlns:svg="http://www.w3.org/2000/svg"><sodipodi:namedview
   id="namedview1"
   pagecolor="#ffffff"
   bordercolor="#000000"
   borderopacity="0.25"
   inkscape:showpageshadow="2"
   inkscape:pageopacity="0.0"
   inkscape:pagecheckerboard="0"
   inkscape:deskcolor="#d1d1d1"
   inkscape:zoom="18.231654"
   inkscape:cx="30.49641"
   inkscape:cy="29.865639"
   inkscape:window-width="2560"
   inkscape:window-height="1300"
   inkscape:window-x="0"
   inkscape:window-y="0"
   inkscape:window-maximized="1"
   inkscape:current-layer="Layer_1" />
  <defs
   id="defs1" />
  <style
   id="style2"
   type="text/css">
    .st1{fill:#86da2f}.st2{fill:#24c2ff}.st3{fill:#ffcb12}.st4{fill:#0069da}.st5{fill:#ff4649}
  </style>
  <path
   id="path22"
   d="m 60.124019,36.141899 c 2.78581,-0.214294 5.035887,1.607198 5.25018,4.393008 0.214294,2.892957 -1.821491,5.250181 -4.607301,5.464474 -2.678664,0.214293 -5.035888,-1.821492 -5.250181,-4.500155 -0.214293,-2.892957 1.714345,-5.035888 4.607302,-5.357327 z"
   class="st1"
   style="stroke-width:1.07147" />
  <path
   id="path24"
   d="m 26.265711,58.964112 c 0,-2.78581 2.142931,-4.928741 4.714448,-4.928741 2.571517,0 5.035887,2.357224 5.035887,5.035888 0,2.571517 -2.14293,4.821594 -4.607301,4.928741 -3.10725,0 -5.143034,-1.928638 -5.143034,-5.035888 z"
   class="st2"
   style="stroke-width:1.07147" />
  <path
   id="path26"
   d="m 33.873116,27.677322 c -0.428587,0.214293 -0.64288,-0.107147 -0.750026,-0.428587 -3.964422,-7.393111 -2.78581,-16.714861 4.178715,-22.2864811 1.821491,-1.5000516 5.250181,-1.8214913 6.750232,-0.3214396 0.642879,0.5357327 0.750026,1.1786119 0.857173,1.9286377 0.214293,1.6071982 0.535732,3.2143964 1.607198,4.500155 1.178612,1.392905 2.678663,1.928638 4.393008,1.821492 1.500052,0 3.000103,-0.214294 3.964422,1.500051 0.535733,0.964319 0.32144,4.714448 -0.535733,5.464474 -0.428586,0.32144 -0.750025,0.107146 -1.071465,0 -2.464371,-0.964319 -5.035888,-0.964319 -7.607405,-0.535733 -0.857172,0.107147 -1.285758,-0.107146 -1.285758,-1.071465 -0.107147,-1.607198 -0.428586,-3.10725 -1.285759,-4.500155 -1.607198,-2.892957 -4.607301,-3.000103 -6.535939,-0.32144 -1.607198,2.142931 -2.035784,4.714448 -2.46437,7.285965 -0.428587,2.250078 -0.32144,4.607302 -0.214293,6.964526 0,0 -0.107147,0 0,0 z"
   class="st3"
   style="stroke-width:1.07147" />
  <path
   id="path28"
   d="m 36.551779,29.28452 c -0.214293,-0.32144 -0.107146,-0.642879 0.214293,-0.857173 6.107353,-5.57162 15.214809,-6.643085 22.286481,-1.178612 1.821492,1.500052 3.000104,4.607302 2.035785,6.428793 -0.428587,0.750026 -0.964319,1.071466 -1.607198,1.285759 -1.500052,0.642879 -2.892957,1.285758 -3.857276,2.678663 -0.964319,1.392905 -1.178612,3.000103 -0.750026,4.714448 0.32144,1.392905 0.857172,2.892957 -0.535733,4.178715 -0.750025,0.750026 -4.393008,1.392905 -5.357327,0.750026 -0.428586,-0.321439 -0.321439,-0.642879 -0.214293,-1.071465 0.32144,-2.678664 -0.32144,-5.143034 -1.285758,-7.500258 -0.32144,-0.857173 -0.214293,-1.285759 0.642879,-1.500052 1.500051,-0.428586 2.892957,-1.178612 3.964422,-2.250077 2.357224,-2.250078 1.821491,-5.143035 -1.285759,-6.428793 -2.46437,-1.071465 -5.035887,-0.857172 -7.500258,-0.642879 -2.357224,0.107146 -4.607301,0.750026 -6.750232,1.392905 z"
   class="st1"
   style="stroke-width:1.07147" />
  <path
   id="path30"
   d="m 35.158874,32.07033 c 0.32144,-0.32144 0.535733,-0.214293 0.857172,0 7.071672,4.285862 10.714655,12.750439 7.500258,21.000723 -0.857172,2.14293 -3.642982,4.285861 -5.678766,3.750129 -0.857173,-0.214294 -1.285759,-0.64288 -1.714345,-1.178612 -0.964319,-1.285759 -2.035784,-2.464371 -3.642983,-3.000104 -1.714344,-0.535732 -3.214396,-0.214293 -4.714447,0.64288 -1.285759,0.750025 -2.571518,1.714344 -4.178716,0.750025 -0.964319,-0.535732 -2.571517,-3.857275 -2.250077,-4.928741 0.214293,-0.428586 0.642879,-0.428586 1.071465,-0.428586 2.678664,-0.428586 4.821595,-1.714344 6.857379,-3.428689 0.642879,-0.535733 1.178612,-0.535733 1.714345,0.214293 0.857172,1.285758 1.928638,2.357224 3.321543,3.10725 2.78581,1.607198 5.464473,0.214293 5.785913,-3.000104 0.32144,-2.678663 -0.642879,-5.035887 -1.500052,-7.393111 -0.964318,-2.142931 -2.14293,-4.178715 -3.428689,-6.107353 z"
   class="st2"
   style="stroke-width:1.07147" />
  <path
   id="path32"
   d="m 31.730185,32.713209 c -0.428587,2.142931 -1.392905,4.178715 -2.678664,6.000207 -3.857276,5.785913 -9.428896,8.143137 -16.286275,7.500258 C 10.300876,45.999381 8.2650919,43.963596 8.0507988,41.927812 7.9436522,41.07064 8.1579453,40.42776 8.693678,39.784881 9.4437038,38.820562 10.086583,37.96339 10.408023,36.784778 11.050902,34.427554 10.19373,32.498916 8.4793849,30.784571 6.122161,28.427347 6.4436006,26.284417 9.2294107,24.570072 c 0.3214397,-0.214293 0.7500259,-0.428586 1.1786123,-0.642879 0.642879,-0.32144 1.178611,-0.32144 1.392904,0.428586 0.964319,2.46437 2.892957,4.285862 5.035888,5.785913 0.750026,0.642879 0.750026,1.071466 0.107147,1.821491 -1.285759,1.392905 -2.035785,3.10725 -2.142931,5.035888 -0.214293,2.357224 1.178612,3.857276 3.535836,3.857276 1.500051,0 2.892956,-0.535733 4.178715,-1.178612 3.321543,-1.714345 5.89306,-4.178716 8.35743,-6.750233 0.32144,-0.107146 0.428586,-0.321439 0.857173,-0.214293 z"
   class="st4"
   style="stroke-width:1.07147" />
  <path
   id="path34"
   d="m 14.158151,10.212435 c 0.214294,0 0.750026,0.107146 1.285759,0.214293 3.964422,0.750026 6.428793,-0.6428796 7.714551,-4.3930087 0.857172,-2.4643705 2.678664,-3.2143963 5.035888,-1.9286378 0.107146,0 0.107146,0.1071466 0.214293,0.1071466 2.46437,1.392905 2.46437,1.6071981 0.964319,3.750129 -1.285759,1.7143447 -1.928638,3.6429829 -2.250078,5.6787669 -0.214293,1.178612 -0.642879,1.392905 -1.714344,0.964319 -1.714345,-0.642879 -3.535836,-0.642879 -5.357328,0 -2.035784,0.64288 -2.892956,2.464371 -2.250077,4.500155 0.857172,2.678664 3.214396,3.857276 5.250181,5.250181 2.035784,1.392905 4.393008,2.142931 6.643085,3.10725 0.32144,0.107146 0.857173,0.107146 0.750026,0.642879 -0.107146,0.321439 -0.535733,0.321439 -0.964319,0.321439 -4.821594,0.214294 -9.428896,-0.535732 -13.179025,-3.750129 -3.535836,-2.892956 -6.107352,-6.428792 -5.678766,-11.357533 0.321439,-1.607198 1.500051,-2.785811 3.535835,-3.10725 z"
   class="st5"
   style="stroke-width:1.07147" />
  <path
   id="path36"
   d="M 5.3721352,40.320614 C 2.8006181,40.642053 0.22910103,38.499123 0.01480794,35.820459 -0.19948515,33.248942 1.9434458,30.677425 4.4078163,30.463132 c 2.7858101,-0.32144 5.3573272,1.607198 5.5716203,4.178715 0.1071464,2.46437 -1.5000517,5.464474 -4.6073014,5.678767 z"
   class="st4"
   style="stroke-width:1.07147" />
  <path
   id="path38"
   d="m 50.373683,2.1764437 c 2.678664,-0.214293 5.250181,1.9286378 5.464474,4.6073014 0.214293,2.5715171 -1.928638,5.0358879 -4.500155,5.2501809 -2.78581,0.214293 -5.25018,-1.821491 -5.464474,-4.5001551 -0.214293,-2.6786636 1.714345,-5.1430341 4.500155,-5.3573272 z"
   class="st3"
   style="stroke-width:1.07147" />
  <path
   id="path40"
   d="M 22.408435,4.2122281 C 22.729875,6.9980382 20.801237,9.3552622 17.90828,9.7838484 15.44391,10.105288 12.872393,8.0695037 12.550953,5.7122797 12.229514,2.6050299 13.943858,0.35495254 16.836815,0.03351291 19.515479,-0.28792672 22.086996,1.7478576 22.408435,4.2122281 Z"
   class="st5"
   style="stroke-width:1.07147" />
</svg>
