<?xml version="1.0" encoding="UTF-8" standalone="no"?>
<!-- Uploaded to: SVG Repo, www.svgrepo.com, Generator: SVG Repo Mixer Tools -->

<svg
   width="65.197998"
   height="64"
   viewBox="0 -2 20.863359 20.48"
   version="1.1"
   preserveAspectRatio="xMidYMid"
   id="svg2"
   sodipodi:docname="mysql.svg"
   inkscape:version="1.4 (e7c3feb100, 2024-10-09)"
   xmlns:inkscape="http://www.inkscape.org/namespaces/inkscape"
   xmlns:sodipodi="http://sodipodi.sourceforge.net/DTD/sodipodi-0.dtd"
   xmlns="http://www.w3.org/2000/svg"
   xmlns:svg="http://www.w3.org/2000/svg">
  <defs
     id="defs2" />
  <sodipodi:namedview
     id="namedview2"
     pagecolor="#ffffff"
     bordercolor="#000000"
     borderopacity="0.25"
     inkscape:showpageshadow="2"
     inkscape:pageopacity="0.0"
     inkscape:pagecheckerboard="0"
     inkscape:deskcolor="#d1d1d1"
     inkscape:zoom="1.36125"
     inkscape:cx="399.63269"
     inkscape:cy="400"
     inkscape:window-width="2560"
     inkscape:window-height="1300"
     inkscape:window-x="0"
     inkscape:window-y="0"
     inkscape:window-maximized="1"
     inkscape:current-layer="svg2" />
  <path
     d="m 19.217403,13.83984 c -1.135183,-0.02831 -2.014965,0.08528 -2.752857,0.397385 -0.212847,0.0851 -0.553438,0.08519 -0.581834,0.354744 0.113591,0.113591 0.127745,0.29804 0.227089,0.454091 0.170387,0.283705 0.468247,0.666937 0.737889,0.86563 0.297949,0.227001 0.595986,0.454001 0.908093,0.652693 0.553438,0.340591 1.177821,0.539193 1.717016,0.879782 0.312284,0.198512 0.624295,0.454091 0.93649,0.666937 0.156143,0.113411 0.255399,0.297949 0.454092,0.368898 v -0.04255 c -0.09935,-0.127743 -0.127744,-0.312193 -0.227,-0.454091 -0.141809,-0.141898 -0.283795,-0.269641 -0.425694,-0.411539 -0.411539,-0.553348 -0.922338,-1.035832 -1.475769,-1.433128 -0.454,-0.312194 -1.447374,-0.737887 -1.631828,-1.262928 0,0 -0.01424,-0.01415 -0.0284,-0.02831 0.312191,-0.0284 0.681089,-0.141897 0.97913,-0.227091 0.48249,-0.127743 0.92234,-0.09934 1.418975,-0.227 0.227,-0.05679 0.454093,-0.127743 0.681094,-0.198693 V 14.067019 C 19.898585,13.81153 19.714045,13.471031 19.444403,13.229785 18.720761,12.60531 17.926077,11.995256 17.10309,11.484458 16.66315,11.200663 16.095559,11.016123 15.62732,10.774969 15.457115,10.689686 15.173227,10.647226 15.073971,10.505326 14.818484,10.193134 14.676585,9.7816849 14.492137,9.4126942 14.080778,8.6321697 13.6833,7.7667162 13.32856,6.9437268 13.073253,6.3902888 12.917111,5.8368492 12.604918,5.32606 11.143393,2.9138003 9.5541152,1.4522674 7.1134589,0.01904739 6.5884197,-0.27890254 5.9641255,-0.40664548 5.2971862,-0.56269705 4.9425323,-0.57694096 4.5876972,-0.60524796 4.2329502,-0.61949196 4.0059499,-0.71883932 3.7788595,-0.98838992 3.580166,-1.116134 2.7715122,-1.6270196 0.68550477,-2.7337166 0.0895181,-1.2721855 -0.29362406,-0.34984748 0.65710931,0.5582401 0.98345245,1.0265725 1.2247866,1.3529202 1.5368897,1.7218174 1.7071852,2.0908093 1.8065322,2.3318734 1.8348389,2.5874509 1.9341858,2.8428492 2.1612759,3.467055 2.3740325,4.1624765 2.6720718,4.7443178 2.8282133,5.0422677 2.9984186,5.3544606 3.1971113,5.6240092 3.3106111,5.7800606 3.5092141,5.8510996 3.5518551,6.1064975 3.3532529,6.3902921 3.3390088,6.8159863 3.2254181,7.1707335 2.7146226,8.7741561 2.913315,10.760731 3.6369579,11.93846 c 0.2270004,0.354655 0.7662807,1.135272 1.4899292,0.837234 0.6385397,-0.2554 0.4966415,-1.064236 0.681091,-1.773725 0.042642,-0.170386 0.014244,-0.283795 0.099347,-0.397296 7.39e-5,0.01415 0,0.0284 0,0.0284 0.1986925,0.397296 0.3972958,0.780441 0.5817445,1.17773 0.4399367,0.695244 1.2061335,1.418976 1.8446694,1.90147 0.3406805,0.255307 0.610232,0.695245 1.0359238,0.851386 v -0.04264 H 9.3412648 C 9.2560717,14.393271 9.1284185,14.336565 9.0149176,14.23722 8.7595192,13.981821 8.4756344,13.669627 8.2770317,13.385834 7.6811336,12.591149 7.1560031,11.711458 6.6877614,10.80328 6.4607612,10.363433 6.2620688,9.8809406 6.0776194,9.4410957 5.9924267,9.270711 5.9924267,9.0154031 5.8505289,8.9303005 5.6376826,9.2424033 5.3255795,9.5120453 5.169438,9.8951883 4.8999766,10.50533 4.8714888,11.257372 4.7721422,12.037804 c -0.056706,0.01425 -0.028398,0 -0.056796,0.0284 C 4.2613456,11.952612 4.1052041,11.484458 3.9349056,11.087071 3.5092126,10.079636 3.4382641,8.4619611 3.8072519,7.2984763 3.9065985,7.0004368 4.3322915,6.0639459 4.1619961,5.7801499 4.0768932,5.5105075 3.7930079,5.3544569 3.6369565,5.1416106 3.4525071,4.8719686 3.2538147,4.5314681 3.1261609,4.2334322 2.7855701,3.4388388 2.6152753,2.5590569 2.2463787,1.7643723 2.0760833,1.3953841 1.7781341,1.0123324 1.5368897,0.67183064 1.2673386,0.2886895 0.9692985,0.01904739 0.75644923,-0.43504481 0.68559013,-0.59109638 0.58615376,-0.84649377 0.69965426,-1.01679 c 0.0283977,-0.1134994 0.0851025,-0.1560512 0.19869237,-0.184449 0.18444947,-0.1561416 0.70948897,0.042551 0.89393437,0.127654 0.5250396,0.21275573 0.9648873,0.41153985 1.4048241,0.70948896 0.1986026,0.14189763 0.4114489,0.41153974 0.6668472,0.48248859 h 0.298039 c 0.4540906,0.0992566 0.9648873,0.0283963 1.3905799,0.15605149 0.7521301,0.24115429 1.4331291,0.59598835 2.0433672,0.97913106 1.858913,1.1777298 3.3912996,2.8521963 4.4272306,4.8529231 0.170295,0.3262571 0.241154,0.6243855 0.397295,0.9648874 0.29804,0.6953347 0.666938,1.404824 0.964887,2.0859159 0.29795,0.6668466 0.581745,1.3480295 1.007436,1.9014685 0.212937,0.297859 1.064236,0.454 1.447372,0.610142 0.283796,0.127654 0.723735,0.241245 0.979132,0.397296 0.482399,0.297859 0.964888,0.638541 1.418977,0.964887 0.227089,0.170206 0.93649,0.52504 0.979131,0.808746 z"
     fill="#00546b"
     id="path1"
     style="stroke-width:0.0815597" />
  <path
     d="m 4.7436755,1.5088824 c -0.241244,0 -0.411449,0.028488 -0.5817445,0.07104 0,-7.4e-5 0,0.014244 0,0.028398 h 0.028398 c 0.1135902,0.2270002 0.3121031,0.3831418 0.4540005,0.5817436 0.1135907,0.2270003 0.2128464,0.4540914 0.326437,0.6811819 0.014153,-0.014244 0.028307,-0.028398 0.028307,-0.028398 C 5.1978571,2.7008598 5.2971131,2.4738595 5.2971131,2.1333588 5.2119201,2.0340121 5.1977661,1.934666 5.1268176,1.8353194 5.0417148,1.6933311 4.8571752,1.6224731 4.7436755,1.5088824 Z"
     fill="#00546b"
     id="path2"
     style="stroke-width:0.0815597" />
</svg>
