<?xml version="1.0" encoding="UTF-8" standalone="no"?>
<svg
   enable-background="new 0 0 98 26"
   version="1.1"
   viewBox="0 0 94.553001 64"
   xml:space="preserve"
   id="svg8"
   sodipodi:docname="wps_office.svg"
   width="94.553001"
   height="64"
   inkscape:version="1.4 (e7c3feb100, 2024-10-09)"
   xmlns:inkscape="http://www.inkscape.org/namespaces/inkscape"
   xmlns:sodipodi="http://sodipodi.sourceforge.net/DTD/sodipodi-0.dtd"
   xmlns="http://www.w3.org/2000/svg"
   xmlns:svg="http://www.w3.org/2000/svg"><defs
   id="defs8">
                
        </defs><sodipodi:namedview
   id="namedview8"
   pagecolor="#ffffff"
   bordercolor="#000000"
   borderopacity="0.25"
   inkscape:showpageshadow="2"
   inkscape:pageopacity="0.0"
   inkscape:pagecheckerboard="0"
   inkscape:deskcolor="#d1d1d1"
   inkscape:zoom="8.7053503"
   inkscape:cx="55.368248"
   inkscape:cy="26.477969"
   inkscape:window-width="2560"
   inkscape:window-height="1300"
   inkscape:window-x="0"
   inkscape:window-y="0"
   inkscape:window-maximized="1"
   inkscape:current-layer="svg8" />
<style
   type="text/css"
   id="style1">
        .st0{fill-rule:evenodd;clip-rule:evenodd;fill:#3A3A3A;}
        .st1{fill-rule:evenodd;clip-rule:evenodd;fill:url(#e);}
        .st2{fill-rule:evenodd;clip-rule:evenodd;fill:url(#d);}
        .st3{fill-rule:evenodd;clip-rule:evenodd;fill:url(#f);}
</style>
<title
   id="title1">WPS_LOGO_Normal</title>

        <g
   transform="matrix(2.4600509,0,0,2.4600504,0.08704375,0)"
   id="g7">

                                        <linearGradient
   id="e"
   x1="-1119.6"
   x2="-1119.6"
   y1="590.41998"
   y2="591.40997"
   gradientTransform="matrix(38.43,0,0,-25.945,43045,15344)"
   gradientUnits="userSpaceOnUse">
                                        <stop
   stop-color="#FF5100"
   offset="0"
   id="stop1" />
                                        <stop
   stop-color="#FF1522"
   offset="1"
   id="stop2" />
                                </linearGradient>
                                <path
   class="st1"
   d="m 23.2,24.2 -3.1,-6.4 2.6,-5.5 3,6.2 6.2,-13 C 32,5.2 31.9,4.8 31.6,4.7 31.5,4.7 31.4,4.6 31.3,4.6 h -6.8 l -9.4,19.6 c -0.6,1.4 -2.2,2 -3.6,1.5 C 10.8,25.4 10.3,24.9 10,24.3 V 24.2 L 0.2,3.5 C -0.4,2.3 0.2,0.8 1.4,0.2 1.8,0.1 2.2,0 2.5,0 h 11.8 c 1.5,0 2.8,0.8 3.5,2.1 l 0.5,1 -2.6,5.5 -1.6,-3.3 C 13.9,4.9 13.4,4.6 13,4.6 H 7 c -0.3,0 -0.6,0.3 -0.6,0.6 0,0.1 0,0.2 0.1,0.3 l 6.2,13 L 19.2,5 20.6,2.2 C 21.2,0.8 22.5,0 24,0 h 11.9 c 1.4,0 2.5,1.1 2.5,2.5 0,0.4 -0.1,0.7 -0.2,1.1 l -9.9,20.7 c -0.6,1.4 -2.2,2.1 -3.6,1.5 C 24,25.5 23.5,25 23.2,24.2 Z"
   id="path2"
   style="fill:url(#e)" />

                                        <linearGradient
   id="d"
   x1="-1062.5"
   x2="-1062.5"
   y1="562.25"
   y2="563.02002"
   gradientTransform="matrix(13.208,0,0,-11.502,14056,6476.2)"
   gradientUnits="userSpaceOnUse">
                                        <stop
   stop-color="#FD7821"
   stop-opacity="0"
   offset="0"
   id="stop3" />
                                        <stop
   stop-color="#FF5100"
   offset=".4893"
   id="stop4" />
                                        <stop
   stop-color="#FF9B27"
   offset="1"
   id="stop5" />
                                </linearGradient>
                                <path
   class="st2"
   d="M 21.3,11.5 H 16 l 0.5,-1 L 19.2,5 20.6,2.2 C 21.2,0.8 22.5,0 24,0 h 5.3 -0.2 C 27.7,0.1 26.4,0.9 25.9,2.1 L 21.6,11 Z"
   id="path5"
   style="fill:url(#d)" />

                                        <linearGradient
   id="f"
   x1="-1066"
   x2="-1066.5"
   y1="562.63"
   y2="563.15997"
   gradientTransform="matrix(13.805,0,0,-11.545,14751,6502.7)"
   gradientUnits="userSpaceOnUse">
                                        <stop
   stop-color="#FD7821"
   stop-opacity="0"
   offset="0"
   id="stop6" />
                                        <stop
   stop-color="#881000"
   stop-opacity=".9245"
   offset="1"
   id="stop7" />
                                </linearGradient>
                                <path
   class="st3"
   d="m 35.9,0 c 1.4,0 2.5,1.1 2.5,2.5 0,0.4 -0.1,0.7 -0.2,1.1 l -3.8,8 -5,-0.5 L 32,5.6 C 32.1,5.3 32,4.9 31.7,4.8 31.6,4.8 31.5,4.7 31.4,4.7 H 24.6 L 25.8,2.2 C 26.4,0.9 27.7,0 29.2,0 Z"
   id="path7"
   style="fill:url(#f)" />
                        </g>

</svg>
