<?xml version="1.0" encoding="UTF-8" standalone="no"?>
<svg
   version="1.0"
   height="64"
   width="56.139999"
   id="svg21"
   sodipodi:docname="gedit.svg"
   inkscape:version="1.4 (e7c3feb100, 2024-10-09)"
   xmlns:inkscape="http://www.inkscape.org/namespaces/inkscape"
   xmlns:sodipodi="http://sodipodi.sourceforge.net/DTD/sodipodi-0.dtd"
   xmlns:xlink="http://www.w3.org/1999/xlink"
   xmlns="http://www.w3.org/2000/svg"
   xmlns:svg="http://www.w3.org/2000/svg">
  <sodipodi:namedview
     id="namedview21"
     pagecolor="#ffffff"
     bordercolor="#000000"
     borderopacity="0.25"
     inkscape:showpageshadow="2"
     inkscape:pageopacity="0.0"
     inkscape:pagecheckerboard="0"
     inkscape:deskcolor="#d1d1d1"
     inkscape:zoom="8.5078125"
     inkscape:cx="63.94123"
     inkscape:cy="64"
     inkscape:window-width="2560"
     inkscape:window-height="1300"
     inkscape:window-x="0"
     inkscape:window-y="0"
     inkscape:window-maximized="1"
     inkscape:current-layer="svg21" />
  <defs
     id="defs11">
    <linearGradient
       id="a">
      <stop
         offset="0"
         stop-color="#c0bfbc"
         id="stop1" />
      <stop
         offset="0"
         stop-color="#fff"
         id="stop2" />
      <stop
         offset=".1"
         stop-color="#deddda"
         id="stop3" />
      <stop
         offset=".9"
         stop-color="#deddda"
         id="stop4" />
      <stop
         offset="1"
         stop-color="#fff"
         id="stop5" />
      <stop
         offset="1"
         stop-color="#c0bfbc"
         id="stop6" />
    </linearGradient>
    <linearGradient
       id="b">
      <stop
         offset="0"
         stop-color="#d0bb8e"
         id="stop7" />
      <stop
         offset="1"
         stop-color="#fff"
         id="stop8" />
    </linearGradient>
    <linearGradient
       id="c">
      <stop
         offset="0"
         stop-color="#d5d3cf"
         id="stop9" />
      <stop
         offset="1"
         stop-color="#fff"
         id="stop10" />
    </linearGradient>
    <linearGradient
       gradientTransform="translate(-136)"
       gradientUnits="userSpaceOnUse"
       y2="-276"
       x2="116"
       y1="-276"
       x1="28"
       id="e"
       xlink:href="#a" />
    <linearGradient
       gradientTransform="matrix(0.07621,-0.4442,0.4442,-0.07621,78,332)"
       y2="-127.4"
       x2="158.5"
       y1="-97.699997"
       x1="128.8"
       gradientUnits="userSpaceOnUse"
       id="i"
       xlink:href="#b" />
    <linearGradient
       y2="72"
       x2="340"
       y1="76"
       x1="344"
       gradientTransform="matrix(0.25,0,0,0.25,180,83)"
       gradientUnits="userSpaceOnUse"
       id="g"
       xlink:href="#c" />
    <clipPath
       id="d"
       clipPathUnits="userSpaceOnUse">
      <rect
         ry="8"
         rx="8"
         y="-188"
         x="160"
         height="56"
         width="16"
         style="marker:none"
         fill="none"
         stroke="#000000"
         id="rect10" />
    </clipPath>
    <clipPath
       id="f"
       clipPathUnits="userSpaceOnUse">
      <path
         d="m 252,116 28,-28 v -8 h -36 v 36 z"
         fill="#e74747"
         stroke-width="0.3"
         id="path10" />
    </clipPath>
    <clipPath
       id="h"
       clipPathUnits="userSpaceOnUse">
      <rect
         transform="scale(-1)"
         style="marker:none"
         width="88"
         height="108"
         x="-108"
         y="-116"
         rx="8"
         ry="8"
         fill="#f6f5f4"
         stroke-width="13.7"
         id="rect11" />
    </clipPath>
  </defs>
  <g
     transform="matrix(0.5614,0,0,0.56140351,-11.228,-101.05263)"
     id="g21">
    <rect
       ry="8"
       rx="8"
       y="-294"
       x="-108"
       height="30.299999"
       width="88"
       style="marker:none"
       transform="scale(-1)"
       fill="#1a5fb4"
       id="rect12" />
    <rect
       transform="scale(-1)"
       style="fill:url(#e);marker:none"
       width="88"
       height="40"
       x="-108"
       y="-292"
       rx="8"
       ry="8"
       fill="url(#e)"
       id="rect13" />
    <rect
       ry="8"
       rx="8"
       y="-288"
       x="-108"
       height="108"
       width="88"
       style="marker:none"
       transform="scale(-1)"
       fill="#f6f5f4"
       id="rect14" />
    <g
       transform="translate(-4,2)"
       fill="#d5d3cf"
       id="g15">
      <path
         d="m 32,188 a 2,2 0 1 0 0,4 2,2 0 0 0 0,-4 z m 8,0 a 2,2 0 1 0 0,4 2,2 0 0 0 0,-4 z m 8,0 a 2,2 0 1 0 0,4 2,2 0 0 0 0,-4 z m 8,0 a 2,2 0 1 0 0,4 2,2 0 0 0 0,-4 z m 8,0 a 2,2 0 1 0 0,4 2,2 0 0 0 0,-4 z m 8,0 a 2,2 0 1 0 0,4 2,2 0 0 0 0,-4 z m 8,0 a 2,2 0 1 0 0,4 2,2 0 0 0 0,-4 z m 8,0 a 2,2 0 1 0 0,4 2,2 0 0 0 0,-4 z m 8,0 a 2,2 0 1 0 0,4 2,2 0 0 0 0,-4 z"
         id="path14" />
      <circle
         r="2"
         cy="190"
         cx="-104"
         transform="scale(-1,1)"
         id="circle14" />
      <path
         d="m 112,192 a 2,2 0 0 1 -2,-1 2,2 0 0 1 0,-2 2,2 0 0 1 2,-1 m -88,4 a 2,2 0 0 0 2,-1 2,2 0 0 0 0,-2 2,2 0 0 0 -2,-1"
         id="path15" />
    </g>
    <rect
       style="fill:url(#g);marker:none"
       width="36"
       height="36"
       x="252"
       y="88"
       rx="11.2"
       ry="11.2"
       transform="matrix(0,0.71429,0.71429,0,25,88)"
       clip-path="url(#f)"
       fill="url(#g)"
       id="rect15" />
    <path
       clip-path="url(#h)"
       transform="translate(0,172)"
       d="M 100,16 32,84 v 20 h 22 l 68,-68 -8,-6 -8,-8 z"
       style="marker:none"
       opacity="0.2"
       id="path16" />
    <path
       style="fill:url(#i);marker:none"
       d="m 32,276 v -20 l 20,20 z"
       fill="url(#i)"
       id="path17" />
    <path
       d="m 32,276 v -8 l 8,8 z"
       style="marker:none"
       fill="#424048"
       id="path18" />
    <path
       d="m 50,274 -16,-16 68,-68 16,16 z"
       fill="#f6d32d"
       id="path19" />
    <path
       d="m 38,262 -6,-6 68,-68 6,6 z"
       fill="#f9f06b"
       id="path20" />
    <path
       d="m 46,270 6,6 68,-68 -6,-6 z"
       fill="#e5a50a"
       id="path21" />
  </g>
</svg>
