<?xml version="1.0" encoding="UTF-8" standalone="no"?>
<!-- Created with Inkscape (http://www.inkscape.org/) -->

<svg
   version="1.0"
   id="svg2"
   sodipodi:version="0.32"
   inkscape:version="1.4 (e7c3feb100, 2024-10-09)"
   sodipodi:docname="python.svg"
   width="47.47575pt"
   height="48pt"
   inkscape:export-filename="python-logo-only.png"
   inkscape:export-xdpi="232.44"
   inkscape:export-ydpi="232.44"
   xmlns:inkscape="http://www.inkscape.org/namespaces/inkscape"
   xmlns:sodipodi="http://sodipodi.sourceforge.net/DTD/sodipodi-0.dtd"
   xmlns:xlink="http://www.w3.org/1999/xlink"
   xmlns="http://www.w3.org/2000/svg"
   xmlns:svg="http://www.w3.org/2000/svg"
   xmlns:rdf="http://www.w3.org/1999/02/22-rdf-syntax-ns#"
   xmlns:cc="http://creativecommons.org/ns#"
   xmlns:dc="http://purl.org/dc/elements/1.1/">
  <metadata
     id="metadata371">
    <rdf:RDF>
      <cc:Work
         rdf:about="">
        <dc:format>image/svg+xml</dc:format>
        <dc:type
           rdf:resource="http://purl.org/dc/dcmitype/StillImage" />
      </cc:Work>
    </rdf:RDF>
  </metadata>
  <sodipodi:namedview
     inkscape:window-height="1190"
     inkscape:window-width="1290"
     inkscape:pageshadow="2"
     inkscape:pageopacity="0.0"
     guidetolerance="10.0"
     gridtolerance="10.0"
     objecttolerance="10.0"
     borderopacity="1.0"
     bordercolor="#666666"
     pagecolor="#ffffff"
     id="base"
     inkscape:zoom="2.1461642"
     inkscape:cx="91.325724"
     inkscape:cy="47.759626"
     inkscape:window-x="26"
     inkscape:window-y="23"
     inkscape:current-layer="svg2"
     width="210mm"
     height="40mm"
     units="mm"
     inkscape:showpageshadow="2"
     inkscape:pagecheckerboard="0"
     inkscape:deskcolor="#d1d1d1"
     inkscape:document-units="pt"
     showgrid="false"
     inkscape:window-maximized="0" />
  <defs
     id="defs4">
    <linearGradient
       id="linearGradient2795">
      <stop
         style="stop-color:#b8b8b8;stop-opacity:0.49803922;"
         offset="0"
         id="stop2797" />
      <stop
         style="stop-color:#7f7f7f;stop-opacity:0;"
         offset="1"
         id="stop2799" />
    </linearGradient>
    <linearGradient
       id="linearGradient2787">
      <stop
         style="stop-color:#7f7f7f;stop-opacity:0.5;"
         offset="0"
         id="stop2789" />
      <stop
         style="stop-color:#7f7f7f;stop-opacity:0;"
         offset="1"
         id="stop2791" />
    </linearGradient>
    <linearGradient
       id="linearGradient3676">
      <stop
         style="stop-color:#b2b2b2;stop-opacity:0.5;"
         offset="0"
         id="stop3678" />
      <stop
         style="stop-color:#b3b3b3;stop-opacity:0;"
         offset="1"
         id="stop3680" />
    </linearGradient>
    <linearGradient
       id="linearGradient3236">
      <stop
         style="stop-color:#f4f4f4;stop-opacity:1"
         offset="0"
         id="stop3244" />
      <stop
         style="stop-color:white;stop-opacity:1"
         offset="1"
         id="stop3240" />
    </linearGradient>
    <linearGradient
       id="linearGradient4671">
      <stop
         style="stop-color:#ffd43b;stop-opacity:1;"
         offset="0"
         id="stop4673" />
      <stop
         style="stop-color:#ffe873;stop-opacity:1"
         offset="1"
         id="stop4675" />
    </linearGradient>
    <linearGradient
       id="linearGradient4689">
      <stop
         style="stop-color:#5a9fd4;stop-opacity:1;"
         offset="0"
         id="stop4691" />
      <stop
         style="stop-color:#306998;stop-opacity:1;"
         offset="1"
         id="stop4693" />
    </linearGradient>
    <linearGradient
       x1="224.23996"
       y1="144.75717"
       x2="-65.308502"
       y2="144.75717"
       id="linearGradient2987"
       xlink:href="#linearGradient4671"
       gradientUnits="userSpaceOnUse"
       gradientTransform="translate(100.2702,99.61116)" />
    <linearGradient
       x1="172.94208"
       y1="77.475983"
       x2="26.670298"
       y2="76.313133"
       id="linearGradient2990"
       xlink:href="#linearGradient4689"
       gradientUnits="userSpaceOnUse"
       gradientTransform="translate(100.2702,99.61116)" />
    <linearGradient
       inkscape:collect="always"
       xlink:href="#linearGradient4689"
       id="linearGradient2587"
       gradientUnits="userSpaceOnUse"
       gradientTransform="translate(100.2702,99.61116)"
       x1="172.94208"
       y1="77.475983"
       x2="26.670298"
       y2="76.313133" />
    <linearGradient
       inkscape:collect="always"
       xlink:href="#linearGradient4671"
       id="linearGradient2589"
       gradientUnits="userSpaceOnUse"
       gradientTransform="translate(100.2702,99.61116)"
       x1="224.23996"
       y1="144.75717"
       x2="-65.308502"
       y2="144.75717" />
    <linearGradient
       inkscape:collect="always"
       xlink:href="#linearGradient4689"
       id="linearGradient2248"
       gradientUnits="userSpaceOnUse"
       gradientTransform="translate(100.2702,99.61116)"
       x1="172.94208"
       y1="77.475983"
       x2="26.670298"
       y2="76.313133" />
    <linearGradient
       inkscape:collect="always"
       xlink:href="#linearGradient4671"
       id="linearGradient2250"
       gradientUnits="userSpaceOnUse"
       gradientTransform="translate(100.2702,99.61116)"
       x1="224.23996"
       y1="144.75717"
       x2="-65.308502"
       y2="144.75717" />
    <linearGradient
       inkscape:collect="always"
       xlink:href="#linearGradient4671"
       id="linearGradient2255"
       gradientUnits="userSpaceOnUse"
       gradientTransform="matrix(0.562541,0,0,0.567972,-11.5974,-7.60954)"
       x1="224.23996"
       y1="144.75717"
       x2="-65.308502"
       y2="144.75717" />
    <linearGradient
       inkscape:collect="always"
       xlink:href="#linearGradient4689"
       id="linearGradient2258"
       gradientUnits="userSpaceOnUse"
       gradientTransform="matrix(0.562541,0,0,0.567972,-11.5974,-7.60954)"
       x1="172.94208"
       y1="76.176224"
       x2="26.670298"
       y2="76.313133" />
    <radialGradient
       inkscape:collect="always"
       xlink:href="#linearGradient2795"
       id="radialGradient2801"
       cx="61.518883"
       cy="132.28575"
       fx="61.518883"
       fy="132.28575"
       r="29.036913"
       gradientTransform="matrix(1,0,0,0.177966,0,108.7434)"
       gradientUnits="userSpaceOnUse" />
    <linearGradient
       inkscape:collect="always"
       xlink:href="#linearGradient4671"
       id="linearGradient1475"
       gradientUnits="userSpaceOnUse"
       gradientTransform="matrix(0.32033939,0,0,0.32343208,-8.536704,-6.6639238)"
       x1="150.96111"
       y1="192.35176"
       x2="112.03144"
       y2="137.27299" />
    <linearGradient
       inkscape:collect="always"
       xlink:href="#linearGradient4689"
       id="linearGradient1478"
       gradientUnits="userSpaceOnUse"
       gradientTransform="matrix(0.32033939,0,0,0.32343208,-8.536704,-6.6639238)"
       x1="26.648937"
       y1="20.603781"
       x2="135.66525"
       y2="114.39767" />
  </defs>
  <path
     style="fill:url(#linearGradient1478);fill-opacity:1;stroke-width:0.569451"
     d="M 31.273543,5.2348133e-4 C 28.663378,0.01265164 26.170729,0.23526115 23.977455,0.62336023 17.516344,1.7648264 16.343257,4.1540129 16.343256,8.56008 v 5.819074 h 15.268398 v 1.939692 H 16.343256 10.613158 c -4.4374215,0 -8.3229546,2.667146 -9.5382997,7.740971 -1.40188519,5.815781 -1.46406642,9.444923 0,15.517532 1.0853323,4.520216 3.6772527,7.74097 8.1146727,7.740971 h 5.249624 v -6.975771 c 0,-5.039583 4.360367,-9.484913 9.5383,-9.484914 h 15.250603 c 4.245227,0 7.6342,-3.495382 7.634199,-7.758766 V 8.56008 c 0,-4.1378222 -3.490722,-7.246134 -7.634199,-7.93671977 C 36.605175,0.18674794 33.883707,-0.01160486 31.273543,5.2348133e-4 Z M 23.016507,4.6806967 c 1.57712,0 2.865049,1.3089655 2.865049,2.9184345 -1e-6,1.6037648 -1.287929,2.9006398 -2.865049,2.9006398 -1.582775,-1e-6 -2.86505,-1.2968758 -2.86505,-2.9006398 0,-1.6094685 1.282275,-2.9184345 2.86505,-2.9184345 z"
     id="path1948" />
  <path
     style="fill:url(#linearGradient1475);fill-opacity:1;stroke-width:0.569451"
     d="m 48.766357,16.318846 v 6.780023 c 0,5.25646 -4.456461,9.680662 -9.538299,9.680662 H 23.977455 c -4.177396,0 -7.634198,3.575287 -7.634199,7.758766 v 14.538788 c 0,4.137825 3.598125,6.571646 7.634199,7.758768 4.833117,1.421127 9.467823,1.677961 15.250603,0 3.84388,-1.112928 7.6342,-3.352704 7.634199,-7.758768 V 49.258012 H 31.611654 V 47.31832 h 15.250603 7.6342 c 4.437423,0 6.090989,-3.095197 7.634195,-7.740971 1.59408,-4.782751 1.526253,-9.382142 0,-15.517532 -1.096638,-4.417481 -3.191129,-7.740971 -7.634195,-7.740971 z m -8.577351,36.818549 c 1.582776,1e-6 2.865048,1.296877 2.865048,2.900638 0,1.60947 -1.282275,2.918437 -2.865048,2.918437 -1.577123,0 -2.86505,-1.308967 -2.86505,-2.918437 2e-6,-1.603761 1.287926,-2.900638 2.86505,-2.900638 z"
     id="path1950" />
</svg>
