<?xml version="1.0" encoding="UTF-8" standalone="no"?>
<svg
   width="38.019749pt"
   height="48pt"
   viewBox="0 0 38.019749 48"
   version="1.1"
   id="svg21"
   sodipodi:docname="temurin.svg"
   inkscape:version="1.4 (e7c3feb100, 2024-10-09)"
   xmlns:inkscape="http://www.inkscape.org/namespaces/inkscape"
   xmlns:sodipodi="http://sodipodi.sourceforge.net/DTD/sodipodi-0.dtd"
   xmlns="http://www.w3.org/2000/svg"
   xmlns:svg="http://www.w3.org/2000/svg">
  <defs
     id="defs21" />
  <sodipodi:namedview
     id="namedview21"
     pagecolor="#ffffff"
     bordercolor="#000000"
     borderopacity="0.25"
     inkscape:showpageshadow="2"
     inkscape:pageopacity="0.0"
     inkscape:pagecheckerboard="0"
     inkscape:deskcolor="#d1d1d1"
     inkscape:document-units="pt"
     inkscape:zoom="0.49446928"
     inkscape:cx="1407.5697"
     inkscape:cy="187.06926"
     inkscape:window-width="2560"
     inkscape:window-height="1300"
     inkscape:window-x="0"
     inkscape:window-y="0"
     inkscape:window-maximized="1"
     inkscape:current-layer="svg21" />
  <g
     id="#af0e56ff"
     transform="matrix(0.18531845,0,0,0.18531803,-7.7008859,-2.5940223)">
    <path
       fill="#af0e56"
       opacity="1"
       d="M 53.15,38.25 C 60.06,24.1 75.05,13.81 91,14.05 c 9.03,0.3 18.07,0.19 27.1,0.2 0.11,4.37 -0.69,9.18 1.73,13.1 -6.34,3.3 -12.09,7.58 -18.19,11.27 -13.22,8.83 -26.82,17.08 -40.01,25.96 -3.65,2.38 -7.9,4.21 -10.28,8.06 l -0.11,0.14 C 46.92,61.65 47.6,48.82 53.15,38.25 Z"
       id="path1" />
  </g>
  <g
     id="#960b52ff"
     transform="matrix(0.18531845,0,0,0.18531803,-7.7008859,-2.5940223)">
    <path
       fill="#960b52"
       opacity="1"
       d="m 189.96,14.25 c 9.23,-0.78 18.9,0.09 27.04,4.86 16.85,9.33 26.99,30.47 21.42,49.29 -1.95,8 -7.55,14.23 -11.84,21.02 -5.2,7.99 -10.41,15.98 -15.65,23.94 -7.75,-4.53 -14.94,-9.93 -22.53,-14.73 2.9,-4.7 1.28,-10.44 1.54,-15.64 0.05,-22.91 0.14,-45.82 0.02,-68.74 z"
       id="path2" />
  </g>
  <g
     id="#a00c54ff"
     transform="matrix(0.18531845,0,0,0.18531803,-7.7008859,-2.5940223)">
    <path
       fill="#a00c54"
       opacity="1"
       d="m 118.1,14.25 c 23.95,-0.02 47.9,0.01 71.86,0 0.12,22.92 0.03,45.83 -0.02,68.74 -0.26,5.2 1.36,10.94 -1.54,15.64 -6.97,-1.14 -14.09,-0.88 -21.08,-0.07 -5.77,-8.89 -11.68,-17.68 -17.4,-26.59 -4.84,-7.82 -10.09,-15.37 -15.01,-23.14 -4.96,-7.21 -8.8,-15.28 -15.08,-21.48 -2.42,-3.92 -1.62,-8.73 -1.73,-13.1 z"
       id="path3" />
  </g>
  <g
     id="#ba0e58ff"
     transform="matrix(0.18531845,0,0,0.18531803,-7.7008859,-2.5940223)">
    <path
       fill="#ba0e58"
       opacity="1"
       d="m 101.64,38.62 c 6.1,-3.69 11.85,-7.97 18.19,-11.27 6.28,6.2 10.12,14.27 15.08,21.48 C 129.41,51.9 124.25,55.51 119,58.98 107.97,65.9 97.1,73.08 86.14,80.1 78.96,84.44 72.24,89.52 64.9,93.59 63.68,93.1 63.28,91.55 62.47,90.59 58.89,84.52 54.06,79.21 51.35,72.64 53.73,68.79 57.98,66.96 61.63,64.58 74.82,55.7 88.42,47.45 101.64,38.62 Z"
       id="path4" />
  </g>
  <g
     id="#c40f5aff"
     transform="matrix(0.18531845,0,0,0.18531803,-7.7008859,-2.5940223)">
    <path
       fill="#c40f5a"
       opacity="1"
       d="m 119,58.98 c 5.25,-3.47 10.41,-7.08 15.91,-10.15 4.92,7.77 10.17,15.32 15.01,23.14 -15.61,9.61 -30.83,19.82 -46.3,29.64 -7.78,5.38 -16.45,9.57 -23.39,16.1 C 75,109.73 69.8,101.74 64.58,93.76 L 64.9,93.59 C 72.24,89.52 78.96,84.44 86.14,80.1 97.1,73.08 107.97,65.9 119,58.98 Z"
       id="path5" />
  </g>
  <g
     id="#d1105cff"
     transform="matrix(0.18531845,0,0,0.18531803,-7.7008859,-2.5940223)">
    <path
       fill="#d1105c"
       opacity="1"
       d="m 103.62,101.61 c 15.47,-9.82 30.69,-20.03 46.3,-29.64 5.72,8.91 11.63,17.7 17.4,26.59 3.25,4.98 6.57,9.92 9.75,14.95 -8.38,4.2 -15.84,9.92 -23.87,14.71 -11.43,7.64 -23.09,14.9 -34.64,22.36 -3.94,2.64 -8.49,4.76 -11.07,8.95 -4.43,-6.72 -8.82,-13.47 -13.18,-20.24 -4.67,-7.21 -9.39,-14.39 -14.08,-21.58 6.94,-6.53 15.61,-10.72 23.39,-16.1 z"
       id="path6" />
  </g>
  <g
     id="#8a0a50ff"
     transform="matrix(0.18531845,0,0,0.18531803,-7.7008859,-2.5940223)">
    <path
       fill="#8a0a50"
       opacity="1"
       d="m 167.32,98.56 c 6.99,-0.81 14.11,-1.07 21.08,0.07 7.59,4.8 14.78,10.2 22.53,14.73 -5.64,8.67 -11.26,17.34 -16.99,25.95 -5.65,-8.58 -11.33,-17.15 -16.87,-25.8 -3.18,-5.03 -6.5,-9.97 -9.75,-14.95 z"
       id="path14" />
  </g>
  <g
     id="#e0125fff"
     transform="matrix(0.18531845,0,0,0.18531803,-7.7008859,-2.5940223)">
    <path
       fill="#e0125f"
       opacity="1"
       d="m 153.2,128.22 c 8.03,-4.79 15.49,-10.51 23.87,-14.71 5.54,8.65 11.22,17.22 16.87,25.8 2.08,3.17 4.19,6.33 6.21,9.53 -8.93,5 -17.17,11.1 -25.92,16.4 -14.87,9.35 -29.28,19.43 -44.4,28.37 -7.51,-11.31 -14.79,-22.79 -22.34,-34.08 2.58,-4.19 7.13,-6.31 11.07,-8.95 11.55,-7.46 23.21,-14.72 34.64,-22.36 z"
       id="path15" />
  </g>
  <g
     id="#620749ff"
     transform="matrix(0.18531845,0,0,0.18531803,-7.7008859,-2.5940223)">
    <path
       fill="#620749"
       opacity="1"
       d="m 94.31,139.29 c 4.36,6.77 8.75,13.52 13.18,20.24 7.55,11.29 14.83,22.77 22.34,34.08 3.43,5.2 6.85,10.4 10.17,15.68 -9.48,-5.39 -18.23,-11.93 -27.39,-17.83 -11.89,-8.48 -24.18,-16.38 -36.28,-24.56 6,-9.2 12.11,-18.32 17.98,-27.61 z"
       id="path16" />
  </g>
  <g
     id="#ec1261ff"
     transform="matrix(0.18531845,0,0,0.18531803,-7.7008859,-2.5940223)">
    <path
       fill="#ec1261"
       opacity="1"
       d="m 174.23,165.24 c 8.75,-5.3 16.99,-11.4 25.92,-16.4 6.68,10.14 13.29,20.31 19.94,30.45 -18.05,11.96 -36.41,23.47 -54.52,35.35 -5.17,3.32 -10.61,6.28 -15.2,10.42 -1.94,-2.96 -3.87,-5.94 -5.82,-8.89 -1.51,-2.3 -3.01,-4.61 -4.55,-6.88 -3.32,-5.28 -6.74,-10.48 -10.17,-15.68 15.12,-8.94 29.53,-19.02 44.4,-28.37 z"
       id="path17" />
  </g>
  <g
     id="#550547ff"
     transform="matrix(0.18531845,0,0,0.18531803,-7.7008859,-2.5940223)">
    <path
       fill="#550547"
       opacity="1"
       d="m 53.76,201.5 c 7.47,-11.57 15.09,-23.04 22.57,-34.6 12.1,8.18 24.39,16.08 36.28,24.56 9.16,5.9 17.91,12.44 27.39,17.83 1.54,2.27 3.04,4.58 4.55,6.88 -7.35,9.02 -13,19.28 -19.59,28.86 -0.88,0.93 -1.79,1.83 -2.71,2.73 C 108.42,238.22 94.39,228.96 80.42,219.61 71.7,213.34 62.69,207.47 53.76,201.5 Z"
       id="path18" />
  </g>
  <g
     id="#f81363ff"
     transform="matrix(0.18531845,0,0,0.18531803,-7.7008859,-2.5940223)">
    <path
       fill="#f81363"
       opacity="1"
       d="m 165.57,214.64 c 18.11,-11.88 36.47,-23.39 54.52,-35.35 6.41,9.79 12.74,19.63 19.29,29.31 7.2,10.7 9.49,24.78 5.11,37.02 -5.79,16.89 -23.54,28.34 -41.27,27.33 -13.07,-0.51 -25.83,-7.12 -33.26,-17.98 -6.57,-9.94 -13.03,-19.96 -19.59,-29.91 4.59,-4.14 10.03,-7.1 15.2,-10.42 z"
       id="path19" />
  </g>
  <g
     id="#430444ff"
     transform="matrix(0.18531845,0,0,0.18531803,-7.7008859,-2.5940223)">
    <path
       fill="#430444"
       opacity="1"
       d="m 42.14,225.81 c 1.2,-9.14 6.29,-17.03 11.62,-24.31 8.93,5.97 17.94,11.84 26.66,18.11 13.97,9.35 28,18.61 41.83,28.15 0.92,-0.9 1.83,-1.8 2.71,-2.73 -0.32,9.31 -0.09,18.64 -0.07,27.97 -13.97,-0.01 -27.95,0 -41.92,0 -9.78,0.07 -19.45,-3.62 -26.96,-9.84 -10.8,-8.84 -16.35,-23.58 -13.87,-37.35 z"
       id="path20" />
  </g>
  <g
     id="#330241ff"
     transform="matrix(0.18531845,0,0,0.18531803,-7.7008859,-2.5940223)">
    <path
       fill="#330241"
       opacity="1"
       d="m 124.96,245.03 c 6.59,-9.58 12.24,-19.84 19.59,-28.86 1.95,2.95 3.88,5.93 5.82,8.89 6.56,9.95 13.02,19.97 19.59,29.91 7.43,10.86 20.19,17.47 33.26,17.98 -26.11,0.09 -52.22,0.03 -78.33,0.05 -0.02,-9.33 -0.25,-18.66 0.07,-27.97 z"
       id="path21" />
  </g>
</svg>
