<?xml version="1.0" encoding="UTF-8" standalone="no"?>
<svg
   width="60.269001"
   height="64"
   viewBox="0 0 60.269001 64"
   fill="none"
   version="1.1"
   id="svg7"
   sodipodi:docname="zulu.svg"
   inkscape:version="1.4 (e7c3feb100, 2024-10-09)"
   xmlns:inkscape="http://www.inkscape.org/namespaces/inkscape"
   xmlns:sodipodi="http://sodipodi.sourceforge.net/DTD/sodipodi-0.dtd"
   xmlns="http://www.w3.org/2000/svg"
   xmlns:svg="http://www.w3.org/2000/svg">
  <sodipodi:namedview
     id="namedview7"
     pagecolor="#ffffff"
     bordercolor="#000000"
     borderopacity="0.25"
     inkscape:showpageshadow="2"
     inkscape:pageopacity="0.0"
     inkscape:pagecheckerboard="0"
     inkscape:deskcolor="#d1d1d1"
     inkscape:zoom="17.015625"
     inkscape:cx="31.970615"
     inkscape:cy="32"
     inkscape:window-width="2560"
     inkscape:window-height="1300"
     inkscape:window-x="0"
     inkscape:window-y="0"
     inkscape:window-maximized="1"
     inkscape:current-layer="svg7" />
  <path
     d="M 21.400747,0.62991891 0.11394548,44.97744 c -0.46024742,0.958872 0.56076525,1.953722 1.50736662,1.468789 L 23.030884,35.479003 c 0.439405,-0.225087 0.974529,-0.133031 1.31355,0.225754 l 26.39524,27.938201 c 0.867482,0.918229 2.350486,-0.09394 1.811363,-1.236483 L 23.406105,0.63660391 c -0.398984,-0.8456838 -1.600711,-0.8496814 -2.005358,-0.006685 z"
     fill="#00374a"
     id="path1"
     style="stroke-width:1.11045" />
  <path
     d="M 21.400747,0.62991891 0.11394548,44.97744 c -0.46024742,0.958872 0.56076525,1.953722 1.50736662,1.468789 L 23.030884,35.479003 c 0.439405,-0.225087 0.974529,-0.133031 1.31355,0.225754 l 26.39524,27.938201 c 0.867482,0.918229 2.350486,-0.09394 1.811363,-1.236483 L 23.406105,0.63660391 c -0.398984,-0.8456838 -1.600711,-0.8496814 -2.005358,-0.006685 z"
     fill="url(#paint0_linear_3578_2134)"
     fill-opacity="0.7"
     style="mix-blend-mode:overlay;fill:url(#paint0_linear_3578_2134);stroke-width:1.11045"
     id="path2" />
  <path
     d="m 29.423957,12.936135 29.878271,3.917327 c 1.089239,0.142915 1.331872,1.611593 0.346461,2.097191 L 28.835419,34.133918 2.0049942,46.710738 C 0.91609989,47.2211 -0.09404137,45.878014 0.69845203,44.973443 L 28.44432,13.305359 c 0.24441,-0.278944 0.611857,-0.417417 0.979637,-0.369224 z"
     fill="#006588"
     id="path3"
     style="stroke-width:1.11045" />
  <path
     d="m 29.423957,12.936135 29.878271,3.917327 c 1.089239,0.142915 1.331872,1.611593 0.346461,2.097191 L 28.835419,34.133918 2.0049942,46.710738 C 0.91609989,47.2211 -0.09404137,45.878014 0.69845203,44.973443 L 28.44432,13.305359 c 0.24441,-0.278944 0.611857,-0.417417 0.979637,-0.369224 z"
     fill="url(#paint1_linear_3578_2134)"
     fill-opacity="0.7"
     style="mix-blend-mode:overlay;fill:url(#paint1_linear_3578_2134);stroke-width:1.11045"
     id="path4" />
  <defs
     id="defs7">
    <linearGradient
       id="paint0_linear_3578_2134"
       x1="31.261801"
       y1="2.5999801"
       x2="31.261801"
       y2="65.800003"
       gradientUnits="userSpaceOnUse"
       gradientTransform="matrix(1.1104482,0,0,1.1104479,-8.3503786,-4.3607555)">
      <stop
         stop-color="white"
         stop-opacity="0"
         id="stop4" />
      <stop
         offset="1"
         stop-color="white"
         id="stop5" />
    </linearGradient>
    <linearGradient
       id="paint1_linear_3578_2134"
       x1="46.226799"
       y1="4.1781201"
       x2="31.5574"
       y2="56.151798"
       gradientUnits="userSpaceOnUse"
       gradientTransform="matrix(1.1104482,0,0,1.1104479,-8.3503786,-4.3607555)">
      <stop
         stop-color="white"
         stop-opacity="0"
         id="stop6" />
      <stop
         offset="1"
         stop-color="white"
         id="stop7" />
    </linearGradient>
  </defs>
</svg>
