<?xml version="1.0" encoding="UTF-8" standalone="no"?>
<svg
   enable-background="new 0 0 24 24"
   height="21.003"
   viewBox="0 0 19.962999 21.003"
   width="19.962999"
   fill="#bb86fc"
   version="1.1"
   id="svg7"
   sodipodi:docname="favicon.svg"
   inkscape:version="1.4 (e7c3feb100, 2024-10-09)"
   xmlns:inkscape="http://www.inkscape.org/namespaces/inkscape"
   xmlns:sodipodi="http://sodipodi.sourceforge.net/DTD/sodipodi-0.dtd"
   xmlns="http://www.w3.org/2000/svg"
   xmlns:svg="http://www.w3.org/2000/svg">
  <defs
     id="defs7" />
  <sodipodi:namedview
     id="namedview7"
     pagecolor="#ffffff"
     bordercolor="#000000"
     borderopacity="0.25"
     inkscape:showpageshadow="2"
     inkscape:pageopacity="0.0"
     inkscape:pagecheckerboard="0"
     inkscape:deskcolor="#d1d1d1"
     inkscape:zoom="8.0212426"
     inkscape:cx="20.944386"
     inkscape:cy="41.888772"
     inkscape:window-width="1342"
     inkscape:window-height="1269"
     inkscape:window-x="26"
     inkscape:window-y="23"
     inkscape:window-maximized="0"
     inkscape:current-layer="svg7" />
  <g
     opacity="0.3"
     id="g2"
     transform="matrix(1.000025,0,0,1.000025,-2.0000499,-1.000025)"
     style="opacity:1;fill:#3700b3;fill-opacity:1">
    <polygon
       points="5.12,19.59 9.36,15.34 8.66,14.64 4.41,18.88 "
       id="polygon1"
       style="fill:#3700b3;fill-opacity:1" />
  </g>
  <g
     opacity="0.3"
     id="g3"
     transform="matrix(1.000025,0,0,1.000025,-2.0000499,-1.000025)"
     style="opacity:1;fill:#3700b3;fill-opacity:1">
    <rect
       height="6"
       transform="matrix(0.7071,-0.7071,0.7071,0.7071,-7.0983,17.0848)"
       width="1"
       x="16.57"
       y="14.11"
       id="rect2"
       style="fill:#3700b3;fill-opacity:1" />
  </g>
  <g
     id="g7">
    <g
       id="g4"
       transform="matrix(1.000025,0,0,1.000025,-2.0000501,-1.000025)">
      <path
         d="m 21.67,18.17 -5.3,-5.3 h -0.99 l -2.54,2.54 v 0.99 l 5.3,5.3 c 0.39,0.39 1.02,0.39 1.41,0 l 2.12,-2.12 c 0.39,-0.38 0.39,-1.02 0,-1.41 z m -2.83,1.42 -4.24,-4.24 0.71,-0.71 4.24,4.24 z"
         id="path3" />
    </g>
    <g
       id="g5"
       transform="matrix(1.000025,0,0,1.000025,-2.0000501,-1.000025)">
      <path
         d="m 17.34,10.19 1.41,-1.41 2.12,2.12 c 1.17,-1.17 1.17,-3.07 0,-4.24 L 17.33,3.12 15.92,4.53 V 1.71 L 15.22,1 11.68,4.54 12.39,5.25 h 2.83 L 13.81,6.66 14.87,7.72 11.98,10.61 7.85,6.48 V 5.06 L 4.83,2.04 2,4.87 5.03,7.9 h 1.41 l 4.13,4.13 -0.85,0.85 H 7.6 l -5.3,5.3 c -0.39,0.39 -0.39,1.02 0,1.41 l 2.12,2.12 c 0.39,0.39 1.02,0.39 1.41,0 l 5.3,-5.3 V 14.29 L 16.28,9.14 Z M 9.36,15.34 5.12,19.58 4.41,18.87 8.65,14.63 v 0 z"
         id="path4" />
    </g>
  </g>
</svg>
