<?xml version="1.0" encoding="UTF-8" standalone="no"?>
<!-- Uploaded to: SVG Repo, www.svgrepo.com, Generator: SVG Repo Mixer Tools -->

<svg
   fill="#000000"
   width="64.084999"
   height="64"
   viewBox="0 0 1.92255 1.92"
   role="img"
   version="1.1"
   id="svg1"
   sodipodi:docname="codacy-svgrepo-com.svg"
   inkscape:version="1.4 (e7c3feb100, 2024-10-09)"
   xmlns:inkscape="http://www.inkscape.org/namespaces/inkscape"
   xmlns:sodipodi="http://sodipodi.sourceforge.net/DTD/sodipodi-0.dtd"
   xmlns="http://www.w3.org/2000/svg"
   xmlns:svg="http://www.w3.org/2000/svg">
  <defs
     id="defs1" />
  <sodipodi:namedview
     id="namedview1"
     pagecolor="#ffffff"
     bordercolor="#000000"
     borderopacity="0.25"
     inkscape:showpageshadow="2"
     inkscape:pageopacity="0.0"
     inkscape:pagecheckerboard="0"
     inkscape:deskcolor="#d1d1d1"
     inkscape:zoom="1.36125"
     inkscape:cx="399.63269"
     inkscape:cy="400"
     inkscape:window-width="2560"
     inkscape:window-height="1300"
     inkscape:window-x="0"
     inkscape:window-y="0"
     inkscape:window-maximized="1"
     inkscape:current-layer="svg1" />
  <title
     id="title1">Codacy icon</title>
  <path
     d="M 0.31105403,0.78576609 A 0.67770206,0.67770206 0 0 1 0.62146721,0.3796255 L 0.62467121,0.3779435 0.48023923,0.12857133 C 0.26242931,0.25602097 0.1015752,0.46085362 0.03420553,0.70445787 l -0.0016021,0.006729 z M 0.7869675,0.31065369 a 0.66055924,0.66055924 0 0 1 0.17335074,-0.0226702 h 4.0053e-4 V 1.9406547e-7 h -0.001522 A 0.96528485,0.96528485 0 0 0 0.70565927,0.03372508 l 0.006729,-0.0016021 z m 0.3487843,2.4032e-4 a 0.67682089,0.67682089 0 0 1 0.4055798,0.31041318 l 0.00168,0.003204 L 1.792704,0.48039937 C 1.6652566,0.26266982 1.4605841,0.10181571 1.21706,0.03436594 L 1.210331,0.0327638 Z M 0,0.95999797 v 4.8064e-4 C 0,1.0485959 0.01185578,1.1339095 0.03404532,1.2149774 l -0.0016021,-0.00673 0.27845064,-0.074419 A 0.65206794,0.65206794 0 0 1 0.28814354,0.96071893 V 0.96007808 Z M 0.12857114,1.4402372 c 0.0440586,0.07538 0.0945258,0.140507 0.15228269,0.1982639 L 0.48536605,1.4350303 a 0.68571272,0.68571272 0 0 1 -0.10518,-0.1357808 l -0.001762,-0.0032 z m 0.35166809,0.3512676 a 0.942855,0.942855 0 0 0 0.47799624,0.128491 h 0.001682 -8.011e-5 V 1.6320125 H 0.95951717 A 0.66552585,0.66552585 0 0 1 0.62122689,1.5402904 l 0.003124,0.00168 z M 1.5427735,1.2968463 A 0.67609993,0.67609993 0 0 1 1.1395168,1.6079805 l -0.00473,0.00112 0.074579,0.2784506 C 1.4596228,1.8186609 1.6644555,1.6582073 1.7898224,1.445364 l 0.00248,-0.00449 z m 0.3459004,-0.078825 c 0.021469,-0.075861 0.033885,-0.163017 0.033885,-0.25305682 0,-0.0870759 -0.011535,-0.17142814 -0.033244,-0.25169498 l 0.00152,0.006729 -0.2792517,0.0745793 c 0.014019,0.0512682 0.022029,0.11006647 0.022029,0.1707873 0,0.0632843 -0.00873,0.1245658 -0.025073,0.1826431 l 0.00112,-0.00473 z"
     id="path1"
     style="stroke-width:0.0801066" />
</svg>
