<?xml version="1.0" encoding="UTF-8" standalone="no"?>
<!-- Generator: Adobe Illustrator 19.2.1, SVG Export Plug-In . SVG Version: 6.00 Build 0)  -->

<svg
   version="1.1"
   id="layer"
   x="0px"
   y="0px"
   viewBox="0 0 66.636002 64"
   xml:space="preserve"
   sodipodi:docname="codecov.svg"
   width="66.636002"
   height="64"
   inkscape:version="1.4 (e7c3feb100, 2024-10-09)"
   xmlns:inkscape="http://www.inkscape.org/namespaces/inkscape"
   xmlns:sodipodi="http://sodipodi.sourceforge.net/DTD/sodipodi-0.dtd"
   xmlns="http://www.w3.org/2000/svg"
   xmlns:svg="http://www.w3.org/2000/svg"><defs
   id="defs1" /><sodipodi:namedview
   id="namedview1"
   pagecolor="#ffffff"
   bordercolor="#000000"
   borderopacity="0.25"
   inkscape:showpageshadow="2"
   inkscape:pageopacity="0.0"
   inkscape:pagecheckerboard="0"
   inkscape:deskcolor="#d1d1d1"
   inkscape:zoom="1.6702454"
   inkscape:cx="325.70064"
   inkscape:cy="326"
   inkscape:window-width="2560"
   inkscape:window-height="1300"
   inkscape:window-x="0"
   inkscape:window-y="0"
   inkscape:window-maximized="1"
   inkscape:current-layer="layer" />
<style
   type="text/css"
   id="style1">
	.st0{fill:#F01F7A;}
</style>
<path
   class="st0"
   d="M 33.337333,0 C 14.973005,0.01279744 0.01279744,14.857828 0,33.106979 v 0.07678 l 5.6692661,3.314537 0.076785,-0.05119 c 3.544891,-2.405919 7.8832229,-3.340132 12.1063789,-2.572286 2.981803,0.524695 5.74605,1.906819 7.972805,3.967207 l 0.972605,0.908618 0.55029,-1.20296 c 0.537493,-1.164567 1.15177,-2.265147 1.830034,-3.250549 0.268747,-0.396721 0.575885,-0.806239 0.921416,-1.241352 L 30.662667,32.339132 29.958808,31.75045 C 26.861828,29.165367 23.137772,27.424915 19.157768,26.708258 15.433713,26.029994 11.607279,26.260348 7.9984003,27.360928 10.69866,15.536093 21.090182,7.2945411 33.362927,7.2945411 c 6.923416,0 13.437313,2.6746651 18.338733,7.5376929 3.493701,3.468106 5.89962,7.780843 6.961807,12.490301 -2.252349,-0.691061 -4.594281,-1.04939 -6.94901,-1.04939 h -0.422315 c -0.921416,0.0128 -1.842832,0.08958 -2.75145,0.204759 l -0.115177,0.0128 c -0.409518,0.05119 -0.755049,0.102379 -1.087783,0.166367 -0.153569,0.02559 -0.319936,0.06399 -0.473505,0.08958 -0.371126,0.07678 -0.742251,0.153569 -1.087782,0.243151 l -0.383924,0.10238 c -0.44791,0.115177 -0.89582,0.255948 -1.343731,0.39672 l -0.07678,0.02559 c -0.985403,0.332734 -1.970806,0.742252 -2.917817,1.215757 l -0.07678,0.03839 c -0.422316,0.204759 -0.844632,0.447911 -1.305339,0.716657 l -0.10238,0.06399 c -2.239552,1.330934 -4.223155,3.032994 -5.886823,5.042192 l -0.204759,0.255949 c -0.422315,0.524695 -0.755049,0.972605 -1.04939,1.394921 -0.243151,0.358328 -0.486302,0.742251 -0.806238,1.254149 l -0.166367,0.294341 c -0.243152,0.422315 -0.460708,0.831833 -0.65267,1.202959 l -0.03839,0.07679 c -0.473505,0.94701 -0.883023,1.945211 -1.228554,2.956209 l -0.05119,0.153569 c -0.793441,2.431514 -1.177365,4.965407 -1.138972,7.524895 v 0.307139 c 0.0128,0.371125 0.02559,0.729454 0.05119,1.100579 0.0128,0.179165 0.02559,0.345531 0.05119,0.511898 0.0256,0.204759 0.05119,0.422316 0.07679,0.627075 l 0.0128,0.115177 0.03839,0.281543 c 0.05119,0.358329 0.102379,0.703859 0.179164,1.04939 0.665467,3.519297 2.341931,7.025795 4.85023,10.161168 L 33.721256,64 33.836433,63.859228 c 0.9982,-1.177364 3.468106,-4.914217 3.685663,-7.153769 v -0.03839 l -0.02559,-0.03839 c -1.164567,-2.226754 -1.766047,-4.69666 -1.778845,-7.204959 0,-8.382323 6.590682,-15.331333 14.985803,-15.843231 l 0.55029,-0.02559 c 3.416917,-0.07679 6.757049,0.895821 9.636473,2.853829 l 0.07679,0.05119 5.592481,-3.25055 0.07679,-0.03839 v -0.07679 C 66.64907,24.25115 63.180964,15.945611 56.884623,9.7004599 50.613877,3.4297141 42.244351,0 33.337333,0"
   id="path1"
   style="stroke-width:0.127974" />
</svg>
